<?xml version="1.0" encoding="utf-8"?>
<!-- Generator: Adobe Illustrator 16.0.0, SVG Export Plug-In . SVG Version: 6.00 Build 0)  -->
<!DOCTYPE svg PUBLIC "-//W3C//DTD SVG 1.1//EN" "http://www.w3.org/Graphics/SVG/1.1/DTD/svg11.dtd">
<svg version="1.1" id="Layer_1" xmlns="http://www.w3.org/2000/svg" xmlns:xlink="http://www.w3.org/1999/xlink" x="0px" y="0px"
	 width="1024px" height="571.275px" viewBox="0 0 1024 571.275" enable-background="new 0 0 1024 571.275" xml:space="preserve">
<path opacity="0.2" fill="#8ADAE2" enable-background="new    " d="M912.396,211.82C886.967,98.396,798.524,54.658,698.062,81.501
	C597.601,108.343,534.436-16.867,419.305,7.779C263.115,41.218,276.566,130.273,179.23,160.542
	C83.352,190.357,82.896,308.217,33.014,361.68c-75.798,81.241,98.166,174.624,185.166,131.897c87-42.728,155.087,40.236,209,60.272
	c113,42,155-29.547,223-60.272c68-30.727,105.634,44.272,157,44.272c48,0,84.834-44.067,116-57
	C1111.181,402.852,937.822,325.246,912.396,211.82z"/>
<g>
	<defs>
		<path id="SVGID_1_" d="M912.396,211.82C886.967,98.396,798.524,54.658,698.062,81.501
			C597.601,108.343,534.436-16.867,419.305,7.779C263.115,41.218,276.566,130.273,179.23,160.542
			C83.352,190.357,82.896,308.217,33.014,361.68c-75.798,81.241,98.166,174.624,185.166,131.897
			c87-42.728,155.087,40.236,209,60.272c113,42,155-29.547,223-60.272c68-30.727,105.634,44.272,157,44.272
			c48,0,84.834-44.067,116-57C1111.181,402.852,937.822,325.246,912.396,211.82z"/>
	</defs>
	<clipPath id="SVGID_2_">
		<use xlink:href="#SVGID_1_"  overflow="visible"/>
	</clipPath>
	<g clip-path="url(#SVGID_2_)">
		<polygon fill="#FFFFFF" points="255.6,265.661 247.075,154.498 331.961,238.002 335.92,254.043 256.031,172.86 269.155,272.471 		
			"/>
		<polygon fill="#FFFFFF" points="252.631,163.24 237.555,89.455 226.807,95.253 249.212,166.591 		"/>
		<polygon fill="#FFFFFF" points="252.495,166.719 282.071,273.193 289.966,271.572 262.557,185.126 329.378,267.799 
			332.356,259.91 		"/>
		<path fill="#FFFFFF" d="M243.423,156.426c0,0,0.471-3.722,3.729-3.889c3.259-0.167,6.199,0.673,5.813,2.189
			c-0.387,1.518-0.133,3.411-0.133,3.411s3.785,1.557,2.264,4.29s-8.414,7.009-9.91,4.006c-1.496-3.005-0.357-4.573-0.357-4.573
			S242.294,161.099,243.423,156.426z"/>
		<path fill="#FFFFFF" d="M766.548,265.334c-17.809-14.197-8.215-31.596-8.215-31.596s-59.114,180.785-216.114,180.785
			c-157,0-210.257-176.521-210.257-176.521s5.806,19-14.542,29.227c-17.731,8.912-61.819-1.566-61.819-1.566s56.99,187,306.034,187
			c223.499,0,265.73-176.136,265.73-176.136S782.064,277.705,766.548,265.334z"/>
		<polygon fill="#FFFFFF" points="827.365,276.525 847.175,163.412 758.334,233.74 752.552,248.75 754.907,248.916 836.802,181.014 
			815.173,280.429 		"/>
		<polygon fill="#FFFFFF" points="840.949,171.691 861.781,99.319 872.041,105.943 844.094,175.299 		"/>
		<polygon fill="#FFFFFF" points="840.811,175.169 803.415,278.877 796.335,276.152 829.333,192.727 756.218,269.891 
			753.871,261.792 		"/>
		<path fill="#FFFFFF" d="M850.665,165.623c0,0-0.177-3.747-3.41-4.171c-3.235-0.424-6.233,0.184-5.966,1.728
			c0.267,1.543-0.137,3.409-0.137,3.409s-3.897,1.255-2.596,4.098c1.305,2.846,7.837,7.649,9.565,4.773
			c1.729-2.877,0.717-4.53,0.717-4.53S851.423,170.37,850.665,165.623z"/>
	</g>
</g>
<path opacity="0.2" fill="#8ADAE2" enable-background="new    " d="M912.396,211.82C886.967,98.396,798.524,54.658,698.062,81.501
	C597.601,108.343,534.436-16.867,419.305,7.779C263.115,41.218,276.566,130.273,179.23,160.542
	C83.352,190.357,82.896,308.217,33.014,361.68c-75.798,81.241,98.166,174.624,185.166,131.897c87-42.728,155.087,40.236,209,60.272
	c113,42,155-29.547,223-60.272c68-30.727,105.634,44.272,157,44.272c48,0,84.834-44.067,116-57
	C1111.181,402.852,937.822,325.246,912.396,211.82z"/>
<g>
	<path fill="none" stroke="#3B3444" stroke-width="1.6248" stroke-miterlimit="10" d="M712.922,464.051
		c4.818,5.016-9.662,28.774-18.249,24.002"/>
	<path fill="none" stroke="#3B3444" stroke-width="1.5075" stroke-miterlimit="10" d="M549.736,198.305
		c-4.259,8.292-28.502-7.828-23.857-12.81"/>
	<path fill="none" stroke="#3B3444" stroke-width="1.5241" stroke-miterlimit="10" d="M545.825,207.823
		c-6.267,6.978-25.48-15.613-19.701-19.228"/>
	<path fill="#F4A134" d="M447.385,254.001c0,0,15.016,21.606,26.846,29.065c3.925,2.473,55.602-39.22,61.03-45.345
		c3.765-4.248,3.82-3.626,4.348-4.691c0.525-1.065,11.789-54.187,10.546-59.842c-1.242-5.657-15.11-7.993-18.531,1.562
		c0,0-15.422,45.701-17.865,50.126C511.314,229.302,493.919,225.807,447.385,254.001z"/>
	<path fill="#3B3444" d="M400.96,308.75c0,0,40.718,98.352,72.458,118.623c31.738,20.272,55.684-32.676,55.684-32.676l17.202-25.278
		c0,0-34.953-33.241-38.47-50.541c-3.519-17.303-13.271-26.188-20.782-31.765c-5.627-4.174-7.492-5.602-7.492-5.602L400.96,308.75z"
		/>
	<g>
		<path fill="#F4A134" d="M798.548,323.012c0-0.002-1.775-4.896-5.581-1.834c-3.808,3.064-3.582,4.654-9.824,6.904
			c-6.239,2.246-14.085,4.145-21.81,5.447c-6.505,1.102-12.544,0.27-18.738,1.947c-12.533-0.549-27.744-1.457-43.475-2.269
			c-22.816-1.176-46.728-0.382-64.973-1.669c-46.435,8.264-116.102,48.973-113.46,59.945c2.092,8.688-14.371,40.73-0.688,46.1
			c48.108-13.638,96.066-34.685,119.706-68.304c12.07,5.688,30.534,3.913,46.157,1.414c14.813-2.368,31.094-7.126,49.053-12.946
			c6.187-1.486,12.838,0.818,15.173,3.99c2.458,3.34,10.819,11.303,16.546,7.574c7.003-4.561,7.39-13.488,17.034-23.447
			c8.365-8.637,6.178-3.377,12.669-11.256C800.786,329.208,798.27,323.471,798.548,323.012z"/>
		<path fill="#F4A134" d="M799.175,322.573C799.222,322.493,799.203,322.524,799.175,322.573L799.175,322.573z"/>
		<path fill="#F4A134" d="M799.175,322.573c-0.015,0.023-0.033,0.055-0.06,0.098C799.115,322.671,799.149,322.616,799.175,322.573z"
			/>
	</g>
	<path fill="#3B3444" d="M439.273,367.195c37.089-1.385,34.94-71.721,40.287-85.684c-18.798-5.874-21.081-23.189-32.175-27.511
		c0,0-41.816,8.831-47.439,48.085C399.069,308.201,424.917,368.041,439.273,367.195z"/>
	<path fill="#F4A134" d="M434.474,237.099c10.077,6.61,23.127,48.804,22.438,54.529c-12.28,11.67-39.701-10.512-39.498-13.029
		c1.148-14.304-15.472-39.262-15.472-39.262S424.393,230.49,434.474,237.099z"/>
	<path fill="#FBB040" d="M415.419,246.099c15.974,2.205,29.127,7.721,42.542-8.449c7.813-9.41,3.702-26.011-15.458-38.198
		c-18.04-11.471-31.469-26.493-41.598-18.807C353.213,216.823,382.354,241.531,415.419,246.099z"/>
	<path fill="#EF4136" d="M391.561,182.49c-36.456,34.943-11.129,51.426,1.722,58.961c12.85,7.533,22.136,4.647,22.136,4.647
		c-6.321-0.814-17.421-7.413-16.021-11.277c1.398-3.862,3.596-1.992,3.596-1.992s4.687,4.041,9.601,3.205
		c0,0-4.247-9.012-11.545-9.756c0,0-10.167-10.245,4.816-14.232c14.982-3.989,37.508-10.952,33.99-23.492
		c0,0-7.287,3.761-12.719-6.739C421.706,171.315,398.693,170.935,391.561,182.49z"/>
	<path fill="#F4A134" d="M451.074,268.469c0,0,16.364,15.074,5.837,23.158S451.074,268.469,451.074,268.469z"/>
	<path fill="#F7D116" d="M549.513,411.21c0,0,1.764,3.657,13.943-6.622c0,0-26.635,22.936-35.259,27.781L549.513,411.21z"/>
	<path fill="#FBB040" d="M650.959,391.218c1.586,4.867,1.343,11.5-5.708,10.999c-14.125-1.001-42.423,17.059-78.546,28.071
		c-31.469,9.6-46.464,12.832-65.675,9.615c-32.373-7.631-23.981-48.251,5.523-57.031c53.008-14.935,84.168-15.188,113.096-11.854
		C642.129,373.089,648.261,382.938,650.959,391.218z"/>
	<path fill="#FFE236" d="M514.509,380.697c0,0-51.318,8.415-43.884,39.094c5.435,22.427,28.69,22.624,32.729,22.912
		c8.748,0.622,27.703-1.595,27.703-1.595s-10.601-1.224-20.5-10.324C497.807,419.063,492.902,386.474,514.509,380.697z"/>
	<g>
		<path fill="#DA1C5C" d="M453.338,234.852c-3.423,3.68-8.463,0.139-8.634,0.112c-0.728-0.124-1.214-0.816-1.091-1.546
			c0.125-0.727,3.167-2.026,4.689-3.516c0.977-0.961,2.578-4.908,3.312-5.013c0.732-0.103,1.408,0.405,1.515,1.137
			C454.121,228.644,455.738,231.908,453.338,234.852z"/>
	</g>
	<path fill="#F4A134" d="M534.107,123.668c0,0,4.206-2.033,4.456,3.19c0,0,2.514-1.146,3.206,0.823c0.691,1.969,1.007,3.6,1.007,3.6
		L534.107,123.668z"/>
	<path fill="#F4A134" d="M550.154,173.188c0.601-3.783-1.916-20.53-10.91-24.581c-8.991-4.051-9.463-3.443-9.463-3.443
		s2.842-2.413,3.729-2.935c0.891-0.525,3.245-3.646,3.245-3.646s1.694-2.814,0.884-4.896c-0.813-2.086-7.417,4.054-7.417,4.054
		l-8.762,8.742l-3.178,8.212c0,0,8.148,13.773,13.788,19.027C537.713,178.975,550.154,173.188,550.154,173.188z"/>
	<path fill="#FBB040" d="M530.294,142.888c0,0,8.762-0.976,10.579,0.431c1.82,1.409,2.007,3.251,2.993,3.288
		c0.987,0.036,1.68,2.271,2.391,3.548c0.707,1.278,0.141,10.783,0.141,10.783l-18.803-14.559L530.294,142.888z"/>
	<g>
		<path fill="#3B3444" d="M539.356,162.515c-0.954,1.19-2.759,1.447-4.009,0.569l-40.14-28.223c-1.247-0.879-1.49-2.572-0.535-3.762
			l16.292-20.315c0.955-1.192,2.756-1.447,4.008-0.569l40.142,28.221c1.246,0.877,1.487,2.57,0.532,3.761L539.356,162.515z"/>
		<path fill="#7AC6D2" d="M536.355,158.794c-0.478,0.596-1.382,0.726-2.008,0.286l-34.755-24.435
			c-0.621-0.44-0.744-1.287-0.266-1.883l14.642-18.257c0.476-0.596,1.378-0.725,2.003-0.285l34.755,24.432
			c0.626,0.444,0.747,1.29,0.269,1.886L536.355,158.794z"/>
		<g>
			<path fill="#A0EEF2" d="M525.16,139.667l-6.899-5.014c0,0-0.491-4.578-4.503-7.492c0,0,1.676-2.104,3.799-0.562
				c2.121,1.542,2.772,3.687,3.804,2.649c1.026-1.039,1.707-3.88,3.529-2.553c0.69,0.5,7.376,3.706,5.164,6.816
				c-0.521,0.729-0.968,1.796-1.836,2.817C527.015,137.745,525.16,139.667,525.16,139.667z"/>
			<path fill="#A0EEF2" d="M525.534,127.053c0,0,1.021-0.242,2.054,1.135c0,0,1.665,0.202,2.002,1.548c0,0,1.597,0.894,0.678,1.903
				c-0.358,0.395-1.026,0.099-1.026,0.099L525.534,127.053z"/>
			<polygon fill="#A0EEF2" points="523.702,141.672 521.996,144.023 516.834,140.274 518.542,137.918 			"/>
			<path fill="#A0EEF2" d="M517.944,133.217c0.145,0.809-0.121,2.103,0.001,3.023c0.124,0.922,0.836,1.347,0.328,2.045l5.162,3.75
				c0,0,0.746-1.288,1.725-2.369L517.944,133.217z"/>
		</g>
		<path fill="#414042" d="M508.434,116.778c0.385,0.279,0.907,0.176,1.16-0.227c0.25-0.405,0.14-0.958-0.246-1.234
			c-0.393-0.279-0.908-0.179-1.162,0.226C507.936,115.946,508.046,116.501,508.434,116.778z"/>
		<path fill="#414042" d="M510.002,116.048c0.391,0.272,0.466,0.798,0.167,1.167c-0.299,0.374-0.857,0.453-1.245,0.175
			c-0.394-0.272-0.467-0.798-0.169-1.169C509.05,115.849,509.608,115.775,510.002,116.048z"/>
		<path fill="#414042" d="M506.913,119.902c0.131,0.093,0.156,0.274,0.057,0.4l-3.65,4.547c-0.1,0.129-0.292,0.155-0.426,0.064l0,0
			c-0.135-0.098-0.158-0.275-0.058-0.402l3.647-4.547C506.587,119.834,506.778,119.809,506.913,119.902L506.913,119.902z"/>
		<path fill="#3B3444" d="M526.484,117.74c0.207,0.15,0.25,0.431,0.089,0.631l0,0c-0.16,0.199-0.464,0.242-0.674,0.096l-5.889-4.138
			c-0.212-0.15-0.252-0.43-0.091-0.634l0,0c0.162-0.201,0.464-0.244,0.674-0.095L526.484,117.74z"/>
		<path fill="#3B3444" d="M531.81,121.483c0.209,0.148,0.247,0.429,0.086,0.632l0,0c-0.158,0.2-0.462,0.243-0.673,0.098
			l-2.789-1.966c-0.207-0.147-0.25-0.43-0.088-0.629l0,0c0.159-0.199,0.461-0.244,0.672-0.098L531.81,121.483z"/>
	</g>
	<path fill="#3B3444" d="M501.108,384.137c-7.639,3.856-12.914,18.216-18.778,24.358s-6.43,12.535-14.71,9.997
		s-3.999-27.03-3.999-27.03L501.108,384.137z"/>
	<path fill="#FBB040" d="M448.484,405.437c0,0-3.854,5.129,1.005,6.572s6.543,5.896,6.543,5.896s10.386,0.696,11.259,0.572
		s-0.292-6.43-0.042-7.302s0.097-11.926-21.511-15.322L448.484,405.437z"/>
	<path fill="#F4A134" d="M524.24,163.419c0,0-2.508-7.145-2.943-14.016c-0.195-3.085,6.137-11.991,7.49-11.285
		c3.649,1.899,0.115,3.56,1.052,10.836c0.319,2.481,4.415,6.387,5.13,7.945c1.054,2.299,2.771,7.954,1.099,10.373L524.24,163.419z"
		/>
	<path fill="#FFFFFF" d="M255.568,266.452c0,0,266.082,355.565,571.764,10.865c0,0-36.407,193.214-297.857,193.214
		C381.277,470.531,287.494,343.797,255.568,266.452z"/>
	<g>
		<path fill="#FBB040" d="M698.262,480.393c1.124,1.701,1.932,5.096,5.474,6.715c2.021,0.926,10.9,17.378,14.699,17.918
			c8.396,1.188,12.312-12.383,18.223-18.303c5.905-5.923,11.869-7.019,14.141-15.418c2.67-9.901,1.562-4.905,1.768-11.696
			c0.208-6.783-2.159-6.811-8.228-2.675c-6.073,4.136-3.635,2.896-13.352,8.172c-7.954,4.314-15.214,10.061-19.052,3.308
			C707.592,460.778,698.262,480.393,698.262,480.393z"/>
		<path fill="#FBB040" d="M649.641,386.052c34.992,55.353,69.161,85.931,62.873,91.696c-5.084,4.665-11.085,5.59-11.085,5.59
			s-43.95-23.243-64.681-42.784c-8.349-7.869-19.171-30.244-19.171-30.244S625.843,359,649.641,386.052z"/>
	</g>
	<path fill="#EF4136" d="M405.525,243.896c3.502,2.716,11.864,3.552,16.275,27.177c2.266,12.134,23.532,22.736,21.719,21.871
		c16.088,7.679,0.166,10.396,2.014,20.243c2.222,11.842-3.278,22.33-13.111,19.604c-9.836-2.726-10.123-16.863-11.562-21.118
		s-28.547,8.596-29.412-11.49c-0.777-18.069,9.926-19.52,5.213-31.955c-4.712-12.434-20.773-33.629-23.275-47.745
		C369.523,198.701,405.525,243.896,405.525,243.896z"/>
	<path fill="#FBB040" d="M387.877,299.642c2.476-5.829,11.125-17.5,24.063-12.5s10.113,28.325,0,59.927
		c-9.073,28.351-12.516,32.081-12.016,34.081s23.447,5.781,41.305,12.529c16.842,6.364,10.446,17.22,10.446,17.22
		s-57.385,1.313-79.667-6.312C367.264,402.965,366.157,350.775,387.877,299.642z"/>
	<g>
		<polygon fill="#FBB040" points="481.654,149.002 487.18,156.699 471.328,170.079 463.908,159.741 		"/>
		<polygon fill="#FBB040" points="477.229,117.376 474.452,126.436 454.202,121.923 457.935,109.759 		"/>
		<polygon fill="#FBB040" points="499.718,94.702 490.825,97.976 482.152,79.135 494.095,74.735 		"/>
		<polygon fill="#FBB040" points="531.377,98.87 523.387,93.776 533.133,75.464 543.866,82.304 		"/>
	</g>
	<g>
		<path fill="none" stroke="#3B3444" stroke-width="2.9773" stroke-miterlimit="10" d="M391.155,315.325
			c0,0,4.642-3.092,8.372,0.673s7.82,0,7.82,0"/>
		<path fill="none" stroke="#3B3444" stroke-width="2.9773" stroke-miterlimit="10" d="M389.394,326.003
			c0,0,4.642-3.092,8.372,0.673s7.82,0,7.82,0"/>
		
			<line fill="none" stroke="#3B3444" stroke-width="2.9773" stroke-miterlimit="10" x1="397.766" y1="326.676" x2="399.527" y2="315.998"/>
	</g>
	<path fill="none" stroke="#3B3444" stroke-width="1.5241" stroke-miterlimit="10" d="M526.124,188.596
		c5.777-3.615,25.968,12.249,19.701,19.228"/>
	<path fill="none" stroke="#3B3444" stroke-width="1.5075" stroke-miterlimit="10" d="M525.879,185.495
		c4.644-4.982,28.116,4.519,23.857,12.81"/>
	<path fill="none" stroke="#3B3444" stroke-width="1.6248" stroke-miterlimit="10" d="M694.673,488.052
		c-8.586-4.772,13.434-29.02,18.249-24.002"/>
</g>
</svg>
