<?xml version="1.0" encoding="utf-8"?>
<!-- Generator: Adobe Illustrator 16.0.0, SVG Export Plug-In . SVG Version: 6.00 Build 0)  -->
<!DOCTYPE svg PUBLIC "-//W3C//DTD SVG 1.1//EN" "http://www.w3.org/Graphics/SVG/1.1/DTD/svg11.dtd">
<svg version="1.1" xmlns="http://www.w3.org/2000/svg" xmlns:xlink="http://www.w3.org/1999/xlink" x="0px" y="0px"
	 width="930.35px" height="441.49px" viewBox="0 0 930.35 441.49" enable-background="new 0 0 930.35 441.49" xml:space="preserve">
<g id="Layer_2">
	<g opacity="0.2">
		<g>
			<path fill="#8ADAE2" d="M279.185,307.473c-5.067,36.768-11.361,57.867-15.42,68.604h45.991
				c1.058-10.33,3.046-32.561,4.338-64.315C299.477,311.479,286.815,309.841,279.185,307.473z M322.533,294.998
				c0.111,3.859,0.235,7.607,0.369,11.24c17.793-0.335,31.59-2.721,31.59-5.616C354.492,297.706,340.505,295.307,322.533,294.998z
				 M314.307,306.238c0.134-3.633,0.258-7.381,0.369-11.24c-17.971,0.309-31.959,2.708-31.959,5.624
				C282.717,303.518,296.515,305.903,314.307,306.238z M352.965,258.387c-9.572,0.444-20.045,0.708-31.049,0.752
				c0.068,11.944,0.266,23.165,0.552,33.587c14.023,0.231,26.306,1.709,34.156,3.888
				C355.25,285.235,354.004,272.534,352.965,258.387z M103.754,376.077h131.365c20.74,0,31.425-38.634,36.811-72.59
				c-0.259-0.406-0.406-0.818-0.406-1.238c0-0.631,0.31-1.247,0.884-1.844c2.737-18.164,3.97-34.564,4.449-42.407
				c-26.5-1.566-44.444-4.577-44.444-8.035v-9.185c0-5.071,38.59-9.184,86.193-9.184s86.193,4.112,86.193,9.184v9.185
				c0,3.458-17.944,6.469-44.444,8.035c0.479,7.843,1.712,24.243,4.449,42.407c0.574,0.597,0.884,1.213,0.884,1.844
				c0,0.42-0.147,0.832-0.406,1.238c5.386,33.956,16.07,72.59,36.811,72.59h28.077c-81.714-83.351,46.889-98.027,104.773-109.885
				c57.918-11.864,104.484-97.378,136.591-70.61c123.145,102.669,59.875,166.264,42.231,180.495h131.871
				c28.025,0,109.119-33.144,42.131-86.296c-44.084-34.979-38.296-109.071-126.836-113.448S684.409,80.114,546.372,58.237
				C444.623,42.11,388.799,124.031,300.014,106.47c-88.785-17.563-166.949,11.054-189.422,85.264
				C88.121,265.942-84.637,326.505,103.754,376.077z M358.026,307.473c-7.632,2.368-20.293,4.007-34.911,4.289
				c1.292,31.755,3.28,53.985,4.338,64.315h45.993C369.388,365.34,363.094,344.24,358.026,307.473z M280.587,296.613
				c7.85-2.179,20.131-3.655,34.154-3.887c0.286-10.423,0.483-21.644,0.552-33.588c-11.003-0.045-21.476-0.308-31.047-0.752
				C283.207,272.534,281.961,285.235,280.587,296.613z"/>
		</g>
	</g>
</g>
<g id="Layer_3">
	<g>
		<path fill="#F4A134" d="M566.296,181.591c-0.256,3.849-4.195,45.445-17.256,52.453c-12.782,2.301-3.955-48.002-2.899-54.71
			c1.053-6.707,2.294-13.638,10.844-16.146C565.531,160.68,566.557,177.743,566.296,181.591z"/>
		<path fill="#F4A134" d="M543.511,213.931c0,0-12.355-11.521-21.386-18.546c-5.799-4.511-5.483-3.81-5.483-3.81
			s-7.143,0.328-8.481,3.922c-1.341,3.595,19.314,24.51,25.612,30.956c6.298,6.447,10.499,11.179,15.268,7.592
			C553.81,230.456,543.511,213.931,543.511,213.931z"/>
		<path fill="#494254" d="M522.435,195.626c0,0-9.84,2.066-9.632,9.145l6.037,7.078l1.375,0.396c0,0-0.688-2.63,2.198-6.186
			s6.786-4.879,6.786-4.879v-0.886L522.435,195.626z"/>
		<path fill="#3B3444" d="M604.777,173.625c0,0,16.966,69.557,9.849,94.215c-13.98,48.44-45.48,3.381-45.48,3.381l-17.969-4.604
			c0,0,5.172-32.461-0.081-43.285c-5.254-10.825-3.65-19.673-1.89-25.8c1.32-4.589,1.739-6.133,1.739-6.133L604.777,173.625z"/>
		<g>
			<path fill="#F4A134" d="M472.011,358.478c0.201-0.913,0.392-1.86,0.577-2.824c-1.01,2.988-2.354,5.781-3.774,8.82
				c-2.262,4.838-4.934,9.646-7.545,13.337c-2.611,3.689-3.615,3.254-6.32,5.196c-2.705,1.943-0.139,4.31-0.139,4.31
				s0,0,7.475-2.101c7.473-2.102,4.652,0.764,12.311-4.771c7.658-5.532,12.389-4.435,16.525-8.349
				c5.305-5.018,0.01-7.659-1.738-9.881s-2.75-6.95-2.531-9.834C486.851,352.382,476.935,363.626,472.011,358.478z"/>
			<path fill="#F4A134" d="M474.173,348.337c-0.244,2.688-0.821,5.056-1.585,7.316c-0.186,0.964-0.376,1.911-0.577,2.824
				c4.924,5.148,14.84-6.096,14.84-6.096S474.739,342.1,474.173,348.337z"/>
			<g>
				<path fill="#F4A134" d="M551.983,253.078c-0.784-0.066-1.526-0.123-2.217-0.17c2.143,0.944,3.214,1.417,3.214,1.417
					s-1.071-0.473-3.214-1.417c-2.426-0.165-4.224-0.216-5.003-0.152c-10.063,0.818-56.644-1.105-61.396,37.652
					c-6.171,17.851-7.123,46.263-10.779,65.245c0.764-2.261,1.341-4.629,1.585-7.316c0.566-6.237,12.678,4.045,12.678,4.045
					c21.482-43.817,12.926-44.211,24.857-58.378c14.131-3.509,25.806-2.469,52.59-3.488
					C571.15,267.609,560.379,256.668,551.983,253.078z"/>
				<path fill="#F7D116" d="M570.231,265.054c3.184-10.563-6.813-11.015-18.248-11.976c8.396,3.59,19.167,14.531,12.314,37.438
					C571.08,290.258,568.474,270.886,570.231,265.054z"/>
			</g>
		</g>
		<path fill="#3B3444" d="M608.214,221.125c-20.656,14.597-48.596-24.379-57.269-29.728c7.749-10.958,1.82-21.28,6.039-28.21
			c0,0,26.296-12.521,45.585,6.408C605.572,172.545,616.339,215.643,608.214,221.125z"/>
		<path fill="#F4A134" d="M560.973,172.549c0,0-2.622,14.933,6.422,14.955C576.438,187.526,560.973,172.549,560.973,172.549z"/>
		<path fill="#F4A134" d="M487.55,169.039c0,0-2.902,1.575-0.006,3.875c0,0-1.699,0.969-0.854,2.179
			c0.846,1.214,1.651,2.068,1.651,2.068L487.55,169.039z"/>
		<path fill="#F4A134" d="M509.36,198.717c-2.422-1.219-10.999-9.585-9.607-16.423c1.391-6.839,1.93-6.857,1.93-6.857
			s-2.558,0.635-3.226,0.927c-0.668,0.295-3.435,0.359-3.435,0.359s-2.315-0.191-3.177-1.517c-0.861-1.328,5.395-2.586,5.395-2.586
			l8.641-1.418l6.335,3.599c0,0,4.605,7.586,4.426,16.773C516.533,197.027,509.36,198.717,509.36,198.717z"/>
		<path fill="#F4A134" d="M500.168,174.789c0,0-4.183,4.629-4.126,6.254c0.057,1.627,1.038,2.498,0.65,3.079
			c-0.388,0.582,0.61,1.903,1.05,2.837c0.442,0.935,6.136,4.537,6.136,4.537l-0.59-16.815L500.168,174.789z"/>
		<g>
			<path fill="#3B3444" d="M491.13,189.589c-1.08,0.021-2.037-0.84-2.128-1.917l-2.9-34.596c-0.088-1.077,0.72-1.976,1.8-1.998
				l18.42-0.377c1.08-0.022,2.038,0.84,2.128,1.917l2.901,34.595c0.089,1.077-0.719,1.976-1.799,1.997L491.13,189.589z"/>
			<path fill="#7AC6D2" d="M491.784,186.271c-0.538,0.011-1.018-0.422-1.063-0.96l-2.511-29.955
				c-0.046-0.538,0.36-0.987,0.899-0.999l16.557-0.338c0.538-0.012,1.018,0.42,1.063,0.958l2.509,29.953
				c0.046,0.539-0.358,0.989-0.896,1L491.784,186.271z"/>
			<path fill="#414042" d="M492.715,152.778c0.031,0.336-0.221,0.614-0.557,0.623c-0.338,0.006-0.634-0.26-0.662-0.598
				c-0.026-0.336,0.222-0.614,0.56-0.621C492.393,152.175,492.689,152.441,492.715,152.778z"/>
			<path fill="#414042" d="M503.027,152.566c0.028,0.336-0.221,0.615-0.559,0.622c-0.335,0.008-0.634-0.259-0.659-0.597
				c-0.029-0.336,0.222-0.614,0.558-0.622C502.705,151.963,502.999,152.229,503.027,152.566z"/>
			<path fill="#414042" d="M499.534,152.638c0.008,0.114-0.078,0.21-0.189,0.213l-4.129,0.085c-0.113,0.002-0.217-0.089-0.226-0.205
				l0,0c-0.01-0.116,0.075-0.209,0.192-0.212l4.125-0.085C499.422,152.432,499.524,152.522,499.534,152.638L499.534,152.638z"/>
			<path fill="#3B3444" d="M509.589,162.28c0.015,0.181-0.119,0.333-0.3,0.336l0,0c-0.183,0.004-0.343-0.142-0.359-0.322
				l-0.426-5.077c-0.016-0.181,0.121-0.331,0.304-0.334l0,0c0.183-0.004,0.341,0.14,0.356,0.32L509.589,162.28z"/>
			<path fill="#3B3444" d="M509.976,166.87c0.016,0.182-0.121,0.331-0.304,0.335l0,0c-0.181,0.002-0.342-0.141-0.355-0.323
				l-0.201-2.403c-0.017-0.182,0.12-0.332,0.302-0.336l0,0c0.181-0.003,0.341,0.141,0.357,0.323L509.976,166.87z"/>
			<path fill="#A0EEF2" d="M504.892,176.804l-10.563,0.217c-0.327-4.006,1.061-7.408,3.237-8.439c-1.622-0.526-2.874-2-3.019-3.766
				c-0.183-2.24,1.487-4.095,3.733-4.142c2.242-0.045,4.213,1.733,4.396,3.975c0.146,1.765-0.861,3.287-2.391,3.878
				C502.623,169.464,504.563,172.798,504.892,176.804z"/>
		</g>
		<path fill="#F4A134" d="M514.458,179.796c0,0-3.064-4.395-6.833-7.481c-1.689-1.387-9.421-1.429-9.575-0.36
			c-0.417,2.88,1.996,1.535,5.789,5.081c1.291,1.207,1.845,5.176,2.441,6.229c0.885,1.555,3.424,4.877,5.504,4.916L514.458,179.796z
			"/>
		<g>
			<path fill="#FBB040" d="M563.365,260.819c-5.062,1.494-8.979,2.967-10.262,3.595c-9.067,4.444-53.123,19.691-43.369,57.502
				c0.632,15.187,6.907,35.495,11.182,52.756c3.176-1.497,12.356,1.641,12.356,1.641c0.334,1.085,0.95,2.366,1.72,3.608
				c0.422-0.966,0.653-1.601,0.653-1.601c5.363-54.408-1.826-51.575,1.78-63.425c12.83-9.118,40.293-13.537,57.266-22.51
				C605.028,265.523,575.062,261.412,563.365,260.819z"/>
			<path fill="#FFE236" d="M595.396,258.068c-7.549-3.235-22.029-0.2-32.03,2.751c11.696,0.593,38.079,6.466,27.742,33.328
				c2.702-1.429,8.435-2.546,11.301-3.865C620.103,282.138,606.763,262.941,595.396,258.068z"/>
			<path fill="#FBB040" d="M524.063,389.422c-0.712-4.471-1.84-9.474-3.146-14.75c1.416,10.696,0.361,13.611-0.008,19.492
				c-0.335,5.329-1.063,10.783-2.144,15.172c-1.081,4.39-2.174,4.352-3.982,7.148c-1.806,2.799,1.448,4.063,1.448,4.063
				s0,0,6.188-4.689c6.186-4.689,4.61-0.992,9.714-8.943c5.102-7.949,9.907-8.658,12.325-13.814c3.103-6.61-2.792-7.133-5.232-8.561
				c-1.481-0.868-2.389-4.298-3.579-6.219C534.071,381.921,529.16,391.779,524.063,389.422z"/>
			<path fill="#FBB040" d="M520.916,374.672c1.307,5.276,2.435,10.279,3.146,14.75c5.098,2.357,9.355-5.9,10.93-9.501
				c-0.77-1.242-1.386-2.523-1.72-3.608C533.272,376.313,524.092,373.175,520.916,374.672z"/>
		</g>
		<path fill="#EF4136" d="M552.579,152.182c0,0-9.189,12.842-10.837,21.443c-1.034,5.402,3.691,4.599,1.866,11.334
			c-2.796,10.316-1.539,19.022,3.911,15.953s2.085-5.659,6.741-9.161s0.698-16.023,9.104-22.904s6.669-32.404,6.669-32.404
			L552.579,152.182z"/>
		<path fill="#F4A134" d="M556.981,148.692c-2.723,7.75,7.671,35.997,10.413,38.812c11.479,1.238,17.148-22.119,15.997-23.399
			c-6.542-7.271-7.868-27.662-7.868-27.662S559.706,140.942,556.981,148.692z"/>
		<path fill="#FBB040" d="M571.025,145.681c-7.738,7.804-12.578,16.232-26.534,13.029c-8.123-1.864-12.768-12.554-7.435-27.082
			c5.021-13.675,6.078-27.367,14.744-27.396C592.594,104.088,587.039,129.526,571.025,145.681z"/>
		<path fill="#EF4136" d="M557.623,101.366c34.198,3.837,27.305,23.241,23.464,32.639c-3.841,9.396-10.062,11.675-10.062,11.675
			c3.085-3.056,6.363-11.222,4.007-12.735c-2.355-1.513-2.77,0.41-2.77,0.41s-0.867,4.127-3.873,5.708c0,0-1.43-6.637,2.214-10.059
			c0,0,1.266-9.755-8.498-5.715c-9.762,4.04-24.841,9.59-28.126,1.344c0,0,5.504-0.978,4.1-8.912
			C536.675,107.788,548.979,98.059,557.623,101.366z"/>
		<g>
			<path fill="#DA1C5C" d="M548.193,150.034c0.337-0.299,0.369-0.816,0.07-1.155c-0.301-0.339-0.815-0.37-1.154-0.07
				c-1.049,0.927-1.991,1.309-2.813,1.133c-1.272-0.276-1.986-1.824-2.002-1.86c-0.183-0.415-0.663-0.6-1.078-0.418
				c-0.415,0.181-0.604,0.664-0.422,1.076c0.042,0.096,1.046,2.335,3.144,2.798c0.181,0.038,0.359,0.064,0.542,0.076
				C545.675,151.69,546.922,151.16,548.193,150.034z"/>
		</g>
		<path fill="#FBB040" d="M612.136,188.032c1.775,3.424,15.435,39.112,7.904,51.878c-4.529,4.162-44.302,21.095-52.094,23.757
			c-5.503-4.318-9.332-9.508-9.332-9.508c10.449-4.802,30.979-21.456,40.053-24.866c0.901-4.432-8.308-33.9-10.883-40.18
			c-2.58-6.281-5.252-21.435,3.371-23.666C604.696,161.943,610.36,184.61,612.136,188.032z"/>
		<path fill="#FBB040" d="M558.614,254.159c0,0-7.394-4.137-8.313-4.222s-0.92-0.085-0.92-0.085l-4.784,2.153
			c0,0-12.784,3.245-14.381,4.672s-1.867,3.507-1.321,4.142s3.209,0.702,3.96,1.386s1.845,1.912,3.073,1.912s1.229,0,1.229,0
			s2.146,0.185,4.043,0.502s22.177,1.82,24.703,0.659s2.044-1.611,2.044-1.611L558.614,254.159z"/>
		<path fill="none" stroke="#494254" stroke-width="3" stroke-linecap="round" stroke-linejoin="round" stroke-miterlimit="10" d="
			M560.694,253.122c0,0,7.257,3.069,7.252,10.545"/>
		<polygon fill="#494254" points="596.317,182.265 602.812,178.896 602.812,186.688 606.188,184.61 603.418,200.283 602.206,192.16 
			598.05,193.356 		"/>
	</g>
	<polygon fill="#494254" points="526.535,360.278 524.201,363.551 526.254,366.813 528.846,363.286 	"/>
	<polygon fill="#494254" points="534.629,360.956 531.54,363.528 532.697,367.205 536.1,364.451 	"/>
	<g>
		<path fill="#494254" d="M521.36,363.413l-3.168-2.084l-0.383,1.304c0.352,1.339,0.7,2.67,1.046,3.992l1.211,0.97L521.36,363.413z"
			/>
	</g>
	<g>
		<path fill="#876F7D" d="M350.744,218.804l1.548,23.982c0,0.808,5.483,1.468,10.204,1.468c5.144,0,10.205-0.66,10.205-1.468
			l1.548-23.982H350.744z"/>
		<path fill="#876F7D" d="M350.744,218.804c0,0.813,4.158,1.468,11.752,1.468c7.595,0,11.753-0.655,11.753-1.468
			c0-0.803-4.158-1.461-11.753-1.461C354.902,217.343,350.744,218.001,350.744,218.804z"/>
		<path fill="#876F7D" d="M372.983,221.603c0,0,1.011-2.408,3.264-0.854s4.662,11.577-3.264,14.996l-0.699-2.642
			c0,0,3.652-1.631,4.041-4.195c0.389-2.565-0.388-6.84-3.186-4.274L372.983,221.603z"/>
		<path fill="#6D5C67" d="M352.652,219.042c0,0.681,3.482,1.229,9.844,1.229c6.362,0,9.845-0.548,9.845-1.229
			c0-0.672-3.482-1.224-9.845-1.224C356.135,217.818,352.652,218.37,352.652,219.042z"/>
		<path opacity="0.8" fill="#FFFFFF" d="M364.282,219.417c0,0-16.743-1.457-7.278-8.889s11.292-17.486-0.333-24.19
			s-2.566-9.472-2.566-9.472s-4.475,6.995,12.469,10.346s10.626,17.633-0.059,22.587S364.282,219.417,364.282,219.417z"/>
		<path opacity="0.8" fill="#FFFFFF" d="M368.46,216.898c0,0-7.869-2.186,1.603-6.266S366.419,212.818,368.46,216.898z"/>
	</g>
</g>
</svg>
