<?xml version="1.0" encoding="utf-8"?>
<!-- Generator: Adobe Illustrator 16.0.0, SVG Export Plug-In . SVG Version: 6.00 Build 0)  -->
<!DOCTYPE svg PUBLIC "-//W3C//DTD SVG 1.1//EN" "http://www.w3.org/Graphics/SVG/1.1/DTD/svg11.dtd">
<svg version="1.1" id="Layer_1" xmlns="http://www.w3.org/2000/svg" xmlns:xlink="http://www.w3.org/1999/xlink" x="0px" y="0px"
	 width="930.35px" height="441.49px" viewBox="0 0 930.35 441.49" enable-background="new 0 0 930.35 441.49" xml:space="preserve">
<g>
	<g id="Layer_2">
		<g opacity="0.2">
			<g>
				<path fill="#8ADAE2" d="M103.754,374.254H235.12c20.74,0,31.425-38.634,36.811-72.59c-0.259-0.406-0.406-0.818-0.406-1.238
					c0-0.631,0.31-1.247,0.884-1.844c2.737-18.164,3.97-34.564,4.449-42.407c-26.5-1.566-44.444-4.577-44.444-8.035v-9.185
					c0-5.071,38.59-9.185,86.193-9.185c47.603,0,86.192,4.112,86.192,9.185v9.185c0,3.458-17.944,6.469-44.444,8.035
					c0.479,7.843,1.713,24.243,4.449,42.407c0.574,0.597,0.885,1.213,0.885,1.844c0,0.42-0.147,0.832-0.406,1.238
					c5.386,33.956,16.069,72.59,36.811,72.59h28.077c-81.714-83.352,46.888-98.027,104.773-109.885
					c57.918-11.864,104.483-97.379,136.591-70.61c123.145,102.669,59.875,166.264,42.23,180.495h131.871
					c28.025,0,109.119-33.145,42.131-86.296c-44.084-34.979-38.296-109.071-126.836-113.448S684.41,78.291,546.372,56.414
					c-101.749-16.127-157.573,65.794-246.358,48.231C211.229,87.083,133.065,115.7,110.592,189.91
					C88.122,264.119-84.637,324.682,103.754,374.254z M314.307,304.415c0.135-3.634,0.259-7.381,0.369-11.24
					c-17.971,0.309-31.959,2.708-31.959,5.624C282.717,301.695,296.516,304.08,314.307,304.415z M279.186,305.649
					c-5.067,36.769-11.361,57.867-15.42,68.604h45.991c1.059-10.33,3.046-32.562,4.338-64.315
					C299.477,309.656,286.815,308.018,279.186,305.649z M322.534,293.175c0.11,3.859,0.234,7.607,0.369,11.24
					c17.793-0.335,31.59-2.722,31.59-5.616C354.493,295.883,340.505,293.483,322.534,293.175z M280.587,294.79
					c7.85-2.179,20.131-3.655,34.154-3.888c0.286-10.423,0.482-21.644,0.552-33.588c-11.003-0.045-21.476-0.308-31.047-0.752
					C283.208,270.711,281.961,283.412,280.587,294.79z M358.027,305.649c-7.633,2.368-20.293,4.007-34.911,4.289
					c1.292,31.755,3.279,53.985,4.338,64.315h45.993C369.388,363.517,363.094,342.417,358.027,305.649z M352.965,256.563
					c-9.572,0.444-20.045,0.708-31.049,0.752c0.068,11.944,0.266,23.165,0.552,33.587c14.023,0.231,26.307,1.709,34.156,3.889
					C355.25,283.412,354.004,270.711,352.965,256.563z"/>
			</g>
		</g>
	</g>
	<g id="Layer_3">
		<g>
			<rect x="271.157" y="233.752" fill="#3B3444" width="79.666" height="5.135"/>
			<g>
				<path fill="#494254" d="M328.319,181.348c-0.355-0.828-1.386-1.507-2.287-1.507h-79.709c-0.9,0-1.348,0.678-0.992,1.507
					l21.855,50.896c0.357,0.828,1.385,1.508,2.289,1.508l79.707,0.002c0.902,0,1.351-0.679,0.992-1.508L328.319,181.348z"/>
			</g>
			<polygon fill="#494254" points="390.139,238.885 307.586,238.888 307.586,233.753 390.139,233.753 			"/>
			<path fill="#7AC6D2" d="M326.399,187.336c-0.316-0.739-1.235-1.345-2.041-1.345h-71.122c-0.803,0-1.202,0.604-0.885,1.345
				l18.128,42.166c0.319,0.739,1.235,1.345,2.042,1.345l71.119,0.002c0.807,0,1.205-0.604,0.887-1.346L326.399,187.336z"/>
			<circle fill="#3B3444" cx="290.929" cy="183.002" r="1.127"/>
			<g>
				<path fill="#A0EEF2" d="M297.996,219.077l-5.327-12.954c0,0,3.267-4.703,0.169-12.235c0,0,4.157,0.172,5.794,4.157
					c1.636,3.979,0.698,6.697,3.036,7.034c2.332,0.325,7.732-1.386,9.139,2.036c0.536,1.298,7.119,12.363,1.342,12.44
					c-1.358,0.015-2.902,0.421-4.995,0.274C304.25,219.626,297.996,219.077,297.996,219.077z"/>
				<path fill="#A0EEF2" d="M311.396,208.225c0,0,1.639,1.036,1.897,3.535c0,0,2.154,2.219,1.467,3.848c0,0,1.46,2.75-0.693,2.53
					c-0.844-0.083-1.521-1.17-1.521-1.17L311.396,208.225z"/>
				<polygon fill="#A0EEF2" points="294.226,219.079 289.81,219.102 285.826,209.412 290.247,209.397 				"/>
				<path fill="#A0EEF2" d="M293.465,204.447c-0.496,0.905-1.98,1.74-2.603,2.717c-0.625,0.979,0.006,2.231-1.308,2.231l3.986,9.689
					c0,0,2.154-0.239,4.454-0.009L293.465,204.447z"/>
			</g>
		</g>
		<g>
			<path fill="#F4A134" d="M414.355,159.589c2.196,3.172,25.017,38.173,19.159,51.789c-8.568,9.76-32.982-35.099-36.335-41.004
				c-3.353-5.904-6.696-12.101-1.567-19.387C400.737,143.704,412.165,156.417,414.355,159.589z"/>
			<path fill="#F4A134" d="M416.666,199.082c0,0-16.843-1.321-28.283-1.194c-7.346,0.081-6.662,0.433-6.662,0.433
				s-5.386,4.703-4.194,8.352c1.188,3.646,30.376,7.151,39.315,8.273c8.942,1.123,15.178,2.209,16.674-3.566
				C435.014,205.602,416.666,199.082,416.666,199.082z"/>
			<path fill="#494254" d="M388.776,197.884c0,0-6.413,7.743-1.845,13.153l9.133,1.777l1.321-0.546c0,0-2.177-1.63-2.131-6.21
				c0.046-4.578,2.271-8.042,2.271-8.042l-0.552-0.692L388.776,197.884z"/>
			<path fill="#3B3444" d="M439.507,129.395c0,0,56.585,43.862,66.372,67.589c19.223,46.609-33.483,30.966-33.483,30.966
				l-16.926,7.586c0,0-16.166-28.621-27.017-33.819c-10.853-5.199-15.106-13.12-17.543-19.012c-1.824-4.411-2.458-5.882-2.458-5.882
				L439.507,129.395z"/>
			<path fill="#3B3444" d="M471.773,164.424c-7.074,24.282-53.207,11.182-63.322,12.396c-0.762-13.399-11.826-17.783-12.84-25.834
				c0,0,12.778-26.171,39.659-23.37C439.458,128.056,474.719,155.074,471.773,164.424z"/>
			<path fill="#F4A134" d="M404.562,155.829c0,0,7.244,13.316,14.338,7.703C425.989,157.919,404.562,155.829,404.562,155.829z"/>
			<path fill="#F4A134" d="M380.47,208.443c-2.653,0.555-14.575-0.651-17.744-6.867c-3.17-6.217-2.761-6.568-2.761-6.568
				s-1.604,2.089-1.944,2.734c-0.341,0.646-2.466,2.421-2.466,2.421s-1.93,1.292-3.431,0.79c-1.5-0.503,2.612-5.383,2.612-5.383
				l5.878-6.49l7.196-1.127c0,0,8.327,3.066,13.908,10.367C385.03,202.654,380.47,208.443,380.47,208.443z"/>
			<path fill="#F4A134" d="M358.377,195.445c0,0-0.39,6.226,0.666,7.462c1.058,1.237,2.368,1.309,2.426,2.004
				c0.061,0.696,1.662,1.108,2.588,1.565c0.929,0.457,7.626-0.271,7.626-0.271l-10.932-12.789L358.377,195.445z"/>
			<g>
				<path fill="#F4A134" d="M439.925,224.07c-4.185,32.062-3.759,34.879-9.203,71.329c-1.567,15.117,1.708,36.12,3.443,53.817
					c3.359-1.021,11.992,3.409,11.992,3.409c0.174,1.12,0.598,2.477,1.18,3.817c0.557-0.896,0.877-1.488,0.877-1.488
					c10.95-47.558,20.023-52.649,9.785-68.085c0.658-15.727,13.996-40.136,17.308-59.046
					C460.416,203.193,447.562,215.189,439.925,224.07z"/>
				<path fill="#F7D116" d="M448.621,206.236c-7.182,3.981-4.899,8.123-8.695,17.834c7.636-8.881,16.721-8.562,34.578,7.666
					c0.527-3.011,3.158-8.225,3.871-11.299C482.782,201.464,459.439,200.241,448.621,206.236z"/>
				<path fill="#F4A134" d="M431.195,363.856c2.228-3.938,4.465-8.556,6.729-13.497c-5.556,9.248-8.197,10.873-12.152,15.241
					c-3.582,3.96-7.55,7.775-11.129,10.532c-3.58,2.76-4.409,2.051-7.566,3.109c-3.157,1.063-1.4,4.081-1.4,4.081s0,0,7.764,0.188
					c7.759,0.183,4.225,2.096,13.169-0.946c8.943-3.037,13.144-0.597,18.249-3.125c6.547-3.235,2.26-7.316,1.239-9.955
					c-0.614-1.602,0.812-4.849,1.076-7.093C443.697,364.226,438.345,361.328,431.195,363.856z"/>
				<path fill="#F4A134" d="M434.166,349.217c0.532,5.409-3.029,10.113-2.971,14.64c4.705,3.069,13.897,1.871,15.977-1.464
					c-0.582-1.342,1.649-8.173,1.477-9.295C448.646,353.098,437.525,348.195,434.166,349.217z"/>
			</g>
			<path fill="#EF4136" d="M385.311,145.119c0,0,0.807,15.77,4.873,23.524c2.556,4.872,5.753,1.302,8.519,7.708
				c4.234,9.813,10.641,15.844,12.993,10.047c2.354-5.795-1.893-5.727-0.431-11.364c1.463-5.642-9.43-12.974-7.138-23.594
				c2.293-10.616-14.959-29.507-14.959-29.507L385.311,145.119z"/>
			<path fill="#F4A134" d="M386.583,139.647c2.694,7.761,28.417,23.392,32.315,23.886c9.752-6.18-0.355-27.985-2.054-28.271
				c-9.646-1.614-23.382-16.745-23.382-16.745S383.889,131.887,386.583,139.647z"/>
			<path fill="#FBB040" d="M395.697,128.546c-1.194,10.926,0.266,20.534-12.649,26.718c-7.517,3.6-17.807-1.873-22.68-16.562
				c-4.587-13.828-12.285-25.2-5.522-30.617C386.675,82.57,398.168,105.935,395.697,128.546z"/>
			<path fill="#EF4136" d="M357.616,102.216c29.148-18.292,35.837,1.184,38.684,10.93c2.847,9.743-0.603,15.4-0.603,15.4
				c0.511-4.313-2.01-12.744-4.794-12.46c-2.786,0.283-1.913,2.045-1.913,2.045s1.893,3.771,0.522,6.878c0,0-5.251-4.303-4.53-9.25
				c0,0-5.084-8.422-10.209,0.819c-5.122,9.24-13.466,22.973-21.171,18.563c0,0,3.697-4.19-2.341-9.523
				C345.223,120.284,348.793,105.01,357.616,102.216z"/>
			<g>
				<path fill="#FFE236" d="M473.602,204.24c-6.561,4.939-4.856,7.988-7.268,18.134c6.328-9.854,38.425-1.713,38.172,7.646
					c0.104-3.056,1.984-8.584,2.265-11.728C508.5,198.892,483.481,196.801,473.602,204.24z"/>
				<path fill="#FBB040" d="M526.495,357.146c-1.379-1.021-1.916-4.526-2.896-6.563c-10.619-22.586-10.826-48.491-29.894-61.134
					c-1.532-15.666,10.401-44.229,11.054-63.415c-18.169-22.323-32.097-13.516-38.425-3.66c-1.22,5.135,0,37.846,3.658,76.772
					c0.548,15.189,26.26,28.897,38.994,56.222c-0.432,3.588-1.143,5.974-1.729,9.398c-0.898,5.264-2.202,10.611-3.744,14.857
					c-1.542,4.25-1.468,2.048-4.73,2.716c-3.262,0.676-1.885,3.881-1.885,3.881s4.486,1.983,9.555,0.278
					c7.355-2.477,4.69-0.496,10.607-7.861c5.92-7.36,10.774-7.553,13.728-12.425C534.577,359.972,528.771,358.827,526.495,357.146z"
					/>
			</g>
			<path fill="#3B3444" d="M444.586,204.521c-0.911,6.631-5.846,10.596-2.627,12.865c0,0,6.218-6.595,16.125-5.324
				c9.907,1.271,21.317,1.273,27.272-1.107s8.284-11.699,16.027-6.385l-8.179-12.236L444.586,204.521z"/>
			<path fill="#FBB040" d="M448.739,154.624c1.875,3.37,16.561,38.649,9.4,51.628c-4.409,4.292-43.675,22.365-51.386,25.249
				c-5.625-4.157-9.603-9.231-9.603-9.231c10.306-5.103,30.347-22.345,39.315-26.015c0.774-4.453-9.281-33.646-12.037-39.848
				c-2.76-6.204-5.87-21.274,2.688-23.753C440.55,128.762,446.867,151.253,448.739,154.624z"/>
			<path fill="#FBB040" d="M397.151,222.27c0,0-8.015-2.75-8.938-2.668c-0.919,0.082-0.919,0.082-0.919,0.082l-4.321,2.973
				c0,0-11.998,5.479-13.314,7.167c-1.313,1.688-1.21,3.782-0.56,4.313c0.651,0.525,3.282,0.115,4.146,0.654
				c0.86,0.539,2.156,1.551,3.365,1.332c1.209-0.218,1.209-0.218,1.209-0.218s2.144-0.204,4.065-0.23
				c1.924-0.025,22.146-2.174,24.424-3.767c2.277-1.595,1.725-1.954,1.725-1.954L397.151,222.27z"/>
			<polygon fill="#494254" points="509.632,337.033 509.044,341.011 512.357,342.979 513.06,338.659 			"/>
			<polygon fill="#494254" points="503.636,342.162 504.214,346.142 507.953,347.075 507.386,342.736 			"/>
			<g>
				<path fill="#494254" d="M517.425,334.218l-0.08-0.068l-1.59,3.694l2.693,2.753l0.619-1.38
					C518.495,337.551,517.951,335.883,517.425,334.218z"/>
			</g>
			<polygon fill="#494254" points="433.602,153.047 440.096,149.678 440.096,157.471 443.473,155.393 440.703,171.064 
				439.491,162.943 435.334,164.139 			"/>
			<g>
				<path fill="#DA1C5C" d="M378.332,151.102c-2.617,1.724-5.146-1.168-5.245-1.209c-0.423-0.184-0.616-0.676-0.433-1.099
					c0.186-0.423,2.218-0.759,3.36-1.436c0.734-0.438,2.288-2.592,2.747-2.547c0.46,0.046,0.793,0.453,0.749,0.912
					C379.726,147.457,380.223,149.674,378.332,151.102z"/>
			</g>
		</g>
		<polygon fill="#FBB040" points="283.538,163.699 278.1,165.809 272.565,154.299 279.868,151.468 		"/>
		<polygon fill="#FBB040" points="299.018,165.93 294.047,162.876 299.852,151.505 306.53,155.603 		"/>
		<polygon fill="#FBB040" points="308.947,176.756 306.601,171.414 317.849,165.375 321.002,172.547 		"/>
		<polygon fill="#FBB040" points="267.812,176.756 270.157,171.414 258.909,165.375 255.754,172.547 		"/>
		<path fill="none" stroke="#494254" stroke-width="3" stroke-linecap="round" stroke-linejoin="round" stroke-miterlimit="10" d="
			M399.558,220.963c0,0,8.534,1.249,8.85,9.886"/>
	</g>
</g>
</svg>
