<?xml version="1.0" encoding="utf-8"?>
<!-- Generator: Adobe Illustrator 16.0.0, SVG Export Plug-In . SVG Version: 6.00 Build 0)  -->
<!DOCTYPE svg PUBLIC "-//W3C//DTD SVG 1.1//EN" "http://www.w3.org/Graphics/SVG/1.1/DTD/svg11.dtd">
<svg version="1.1" id="Layer_1" xmlns="http://www.w3.org/2000/svg" xmlns:xlink="http://www.w3.org/1999/xlink" x="0px" y="0px"
	 width="930.35px" height="441.49px" viewBox="0 0 930.35 441.49" enable-background="new 0 0 930.35 441.49" xml:space="preserve">
<g>
	<g id="Layer_2">
		<g opacity="0.2">
			<g>
				<path fill="#8ADAE2" d="M616.256,310.786c1.292,31.755,3.28,53.985,4.338,64.315h45.991
					c-4.059-10.737-10.353-31.837-15.42-68.604C643.534,308.865,630.873,310.504,616.256,310.786z M646.104,257.411
					c-9.571,0.443-20.045,0.707-31.048,0.752c0.068,11.944,0.267,23.165,0.553,33.588c14.022,0.231,26.305,1.708,34.153,3.888
					C648.389,284.259,647.143,271.559,646.104,257.411z M647.633,299.646c0-2.915-13.987-5.315-31.959-5.624
					c0.111,3.858,0.235,7.606,0.369,11.24C633.835,304.928,647.633,302.542,647.633,299.646z M575.857,299.646
					c0,2.896,13.797,5.281,31.59,5.616c0.134-3.634,0.258-7.381,0.369-11.24C589.845,294.331,575.857,296.73,575.857,299.646z
					 M819.758,190.759c-22.473-74.211-100.637-102.826-189.422-85.265c-88.785,17.563-144.609-64.358-246.359-48.231
					C245.939,79.139,257.958,170.98,169.418,175.357S86.667,253.826,42.583,288.806c-66.988,53.151,14.105,86.296,42.131,86.296
					h131.871c-17.644-14.231-80.913-77.826,42.231-180.495c32.106-26.769,78.673,58.746,136.591,70.609
					c57.885,11.857,186.487,26.534,104.773,109.886h28.077c20.74,0,31.425-38.634,36.812-72.59c-0.26-0.406-0.406-0.818-0.406-1.238
					c0-0.631,0.31-1.247,0.884-1.844c2.737-18.164,3.97-34.564,4.449-42.407c-26.5-1.566-44.444-4.577-44.444-8.035v-9.185
					c0-5.071,38.59-9.185,86.193-9.185c47.603,0,86.192,4.112,86.192,9.185v9.185c0,3.458-17.943,6.469-44.443,8.035
					c0.479,7.843,1.712,24.243,4.449,42.407c0.573,0.597,0.884,1.213,0.884,1.844c0,0.42-0.147,0.833-0.406,1.238
					c5.386,33.956,16.07,72.59,36.811,72.59h131.365C1014.986,325.529,842.229,264.968,819.758,190.759z M556.903,375.102h45.992
					c1.059-10.33,3.047-32.562,4.339-64.315c-14.618-0.282-27.279-1.921-34.911-4.289
					C567.256,343.265,560.962,364.364,556.903,375.102z M573.726,295.638c7.852-2.18,20.134-3.656,34.156-3.888
					c0.286-10.424,0.483-21.644,0.552-33.588c-11.004-0.045-21.477-0.308-31.049-0.752
					C576.346,271.559,575.1,284.259,573.726,295.638z"/>
			</g>
		</g>
	</g>
	<g id="Layer_3">
		<g>
			<g>
				<path fill="#FBB040" d="M447.809,320.703c0.453,1.313,0.41,3.688,2.474,5.358c1.18,0.955,4.247,13.32,6.661,14.319
					c5.34,2.212,8.89-2.486,14.503-3.482c5.61-0.998,10.321,0.805,14.873-2.998c5.36-4.482,2.791-2.128,5.559-5.838
					c2.766-3.707,1.457-4.646-3.549-4.71s-3.162,0.197-10.648-0.655c-6.125-0.698-17.427-2.473-18.814-7.581
					C457.295,309.338,447.809,320.703,447.809,320.703z"/>
				<path fill="#FBB040" d="M441.583,258.468c12.528,42.835,21.263,60.58,16.059,63.178c-4.206,2.1-8.312,1.578-8.312,1.578
					l-33.302-46.804C416.03,276.421,431.076,236.276,441.583,258.468z"/>
			</g>
			<path fill="#F4A134" d="M360.857,196.649c0,0,0.644-12.012,1.931-23.38s2.655-9.866,2.655-9.866s4.208-1.288,7.641,0.429
				c3.433,1.718,2.574,31.102,2.359,40.109c-0.216,9.008-1.857,15.908-7.792,16.534
				C361.715,221.102,360.857,196.649,360.857,196.649z"/>
			<path fill="#F4A134" d="M332.209,178.131c1.663,3.48,20.714,40.669,35.44,42.346c12.726-2.592-14.087-46.06-17.55-51.899
				c-3.461-5.841-7.179-11.82-16.05-10.988C325.183,158.421,330.544,174.652,332.209,178.131z"/>
			<path fill="#3B3444" d="M293.514,184.968c0,0,8.617,72.029,25.71,91.173c17.095,19.143,42.553-11.191,42.553-11.191l15.94-13.422
				c0,0-16.815-28.244-15.94-40.244s-3.889-19.627-7.792-24.667c-2.925-3.775-3.885-5.055-3.885-5.055L293.514,184.968z"/>
			<path fill="#3B3444" d="M307.895,230.37c24.592,5.917,36.127-40.631,42.205-48.809c-11.254-7.313-9.564-19.097-16.05-23.975
				c0,0-29.063-1.9-39.978,22.821C292.374,184.261,298.319,228.283,307.895,230.37z"/>
			<path fill="#F4A134" d="M328.691,144.121c5.396,6.192,6.192,36.28,4.687,39.91c-10.205,5.397-24.116-14.204-23.52-15.819
				c3.387-9.175-2.927-28.609-2.927-28.609S323.292,137.929,328.691,144.121z"/>
			<path fill="#FBB040" d="M314.53,146.52c10.077,4.387,17.69,10.427,29.472,2.286c6.856-4.737,7.216-16.388-3.114-27.91
				c-9.725-10.848-15.771-23.176-23.834-19.996C279.102,115.86,293.674,137.437,314.53,146.52z"/>
			<path fill="#EF4136" d="M310.583,100.391c-30.352,16.219-16.768,31.694-9.722,39.005c7.045,7.308,13.668,7.123,13.668,7.123
				c-3.998-1.697-10.065-8.07-8.437-10.349c1.629-2.276,2.726-0.645,2.726-0.645s2.332,3.514,5.711,3.869
				c0,0-1.129-6.694-5.779-8.526c0,0-4.786-8.594,5.779-8.453c10.564,0.142,26.627-0.282,26.627-9.158c0,0-5.476,1.127-7.105-6.763
				S317.389,94.12,310.583,100.391z"/>
			<g>
				<path fill="#DA1C5C" d="M342.944,137.314c0.438,0.108,0.705,0.553,0.597,0.991c-0.109,0.438-0.552,0.706-0.991,0.597
					c-1.358-0.338-2.371-0.24-3.018,0.295c-1,0.834-0.918,2.537-0.915,2.576c0.028,0.451-0.312,0.839-0.763,0.869
					c-0.45,0.03-0.842-0.311-0.871-0.761c-0.008-0.104-0.152-2.553,1.492-3.934c0.143-0.117,0.289-0.224,0.445-0.318
					C339.946,137.012,341.295,136.904,342.944,137.314z"/>
			</g>
			<path fill="#FBB040" d="M299.875,204.072c1.165,3.677,16.745,38.568,31.097,42.271c6.146-0.262,39.053-17.424,46.746-20.361
				c1.468-6.838-3.733-11.43-3.733-11.43c-11.103,2.991-26.583,5.164-35.411,9.171c-3.771-2.496-18.098-29.844-20.716-36.106
				c-2.618-6.264-11.444-18.867-19.12-14.348C286.686,180.365,298.709,200.396,299.875,204.072z"/>
			<path fill="#FBB040" d="M368.276,215.956c3.909-1.027,5.548-8.745,7.054-9.348s4.829,2.625,5.73,2.625
				c0.903,0,2.94,0.347,2.94,0.347s0.662,0.783,1.024,0.964c0.36,0.182,0,1.023,0,1.927c0,0.902,0.678,0.867,0.542,2.253
				c-0.137,1.385-0.222,1.072-0.281,1.855c-0.062,0.782,0.234,1.394,0,1.71c-0.547,0.74-0.724,0.725-0.663,1.326
				c0.061,0.603-0.398,1.694-1,1.875c-0.603,0.181-3.188,4.188-7.645,5.206C374.155,227.113,368.276,215.956,368.276,215.956z"/>
			<path fill="#F4A134" d="M333.81,167.761c0,0,7.963,12.902-0.432,16.271C324.985,187.399,333.81,167.761,333.81,167.761z"/>
			<g>
				<path fill="#F4A134" d="M446.982,289.433c6.483,18.757,7.204,49.184,11.355,68.068c-4.924,5.148-14.84-6.096-14.84-6.096
					c-21.482-43.817-12.926-44.211-24.857-58.378c-17.71-4.397-45.178,0.617-83.025-2.501c-4.929-8.721,5.659-23.689,8.287-29.185
					c3.319-6.938,37.445-9.905,41.683-9.563C395.649,252.599,442.229,250.675,446.982,289.433z"/>
				<path fill="#F4A134" d="M443.499,351.406c0.219,2.884-0.784,7.612-2.531,9.834c-1.748,2.222-7.044,4.863-1.738,9.881
					c4.137,3.914,8.867,2.816,16.525,8.35s4.838,2.669,12.312,4.771c7.475,2.102,7.475,2.102,7.475,2.102s2.566-2.366-0.139-4.311
					c-2.705-1.942-3.709-1.507-6.32-5.196s-5.284-8.499-7.545-13.337c-2.495-5.338-4.793-9.896-5.359-16.137
					C455.61,341.124,443.499,351.406,443.499,351.406z"/>
			</g>
			<path fill="#F4A134" d="M375.695,149.891c3.383-1.106,6.923-1.689,7.556-1.806c0.633-0.113,8.571-3.955,12.583-3.12
				c3.913,0.813,0.184,2.569-2.242,3.38c-2.479,0.824-5.163,4.986-6.015,5.378c-4.398,2.016-7.195,4.036-7.646,5.645
				c-0.451,1.607-5.59,4.835-5.116,9.366c0.473,4.531-11.019-2.032-11.019-2.032s0.266-5.199,0-6.301
				c-0.879-3.639-2.32-8.373-1.291-9.607c1.029-1.233,6.627-2.882,8.458-3.909c1.831-1.028,2.964-2.17,3.581-0.364
				S366.724,152.823,375.695,149.891z"/>
			<path fill="#F4A134" d="M384.583,150.528c2.38-0.678,3.489-5.216,5.657-6.402c2.168-1.186,2.641,0.362,2.198,0.872
				c-0.444,0.511-3.091,3.324-3.313,3.766C388.904,149.204,382.205,151.206,384.583,150.528z"/>
			<path fill="#FBB040" d="M441.77,259.105c0.988,3.346,0.697,7.858-4.098,7.385c-9.602-0.95-29.224,10.813-54.04,17.631
				c-21.62,5.939-31.896,7.856-44.924,5.3c-21.908-5.813-15.419-33.324,4.848-38.747c33.374-7.288,57.625-8.745,77.271-5.925
				C436.1,246.588,440.089,253.414,441.77,259.105z"/>
			<path fill="#F7D116" d="M362.563,289.27c0,0-0.641,2.691,10.219,2.492c0,0-23.943,0.679-30.586-0.468L362.563,289.27z"/>
			<path fill="#FFE236" d="M343.556,250.674c0,0-29.983,8.13-25.177,24.468c4.439,15.088,19.114,15.959,21.86,16.23
				c5.948,0.59,14.557-1.33,14.557-1.33s-5.77,0.573-13.063-4.977C331.95,277.622,328.729,254.198,343.556,250.674z"/>
			<polygon fill="#494254" points="437.602,331.559 436.928,335.521 440.202,337.561 440.994,333.257 			"/>
			<polygon fill="#494254" points="445.304,328.925 443.925,332.7 446.773,335.298 448.333,331.209 			"/>
			<polygon fill="#494254" points="453.479,328.277 451.016,331.455 452.942,334.796 454.637,332.669 454.247,329.362 			"/>
			<path fill="#494254" d="M357.888,218.216v-0.721l8.224-1.997c0,0,5.993,3.152,4.94,13.978l-8.304,4.099h-1.431
				C361.318,233.573,363.328,222.09,357.888,218.216z"/>
			<g>
				
					<ellipse transform="matrix(-0.4706 -0.8823 0.8823 -0.4706 277.3564 585.9594)" fill="#494254" cx="314.461" cy="209.775" rx="9.961" ry="8.162"/>
				<polygon fill="none" stroke="#FBB040" stroke-linecap="round" stroke-linejoin="round" stroke-miterlimit="10" points="
					306.932,209.788 316.41,203.473 317.858,216.252 				"/>
				
					<line fill="none" stroke="#FBB040" stroke-linecap="round" stroke-linejoin="round" stroke-miterlimit="10" x1="314.493" y1="214.261" x2="317.399" y2="212.207"/>
			</g>
			<path fill="#EF4136" d="M308.445,143.253c1.798,2.428,7.13,4.516,5.677,20.828c-0.746,8.379,11.256,19.25,10.226,18.35
				c9.145,8-1.804,6.853-2.403,13.653c-0.722,8.18-6.261,14.05-12.212,10.45c-5.952-3.599-3.539-12.929-3.7-15.984
				c-0.161-3.057-20.313,0.386-17.185-12.952c2.815-12,10.106-10.982,9.302-20.01c-0.804-9.026-7.44-25.89-6.484-35.611
				C293.14,106.972,308.445,143.253,308.445,143.253z"/>
			<path fill="none" stroke="#494254" stroke-width="3" stroke-linecap="round" stroke-linejoin="round" stroke-miterlimit="10" d="
				M363.819,166.22c0,0,3.021,4.87,10.832,3.51"/>
		</g>
		<g>
			<rect x="589.509" y="234.565" fill="#3B3444" width="79.666" height="5.135"/>
			<g>
				<path fill="#494254" d="M612.013,182.161c0.355-0.828,1.386-1.507,2.287-1.507h79.709c0.9,0,1.349,0.678,0.992,1.507
					l-21.855,50.896c-0.356,0.828-1.385,1.508-2.288,1.508l-79.707,0.002c-0.902,0-1.351-0.679-0.992-1.508L612.013,182.161z"/>
			</g>
			<polygon fill="#494254" points="550.192,239.698 632.745,239.701 632.745,234.566 550.192,234.566 			"/>
			<path fill="#7AC6D2" d="M613.933,188.149c0.316-0.739,1.235-1.345,2.041-1.345h71.121c0.803,0,1.202,0.604,0.885,1.345
				l-18.128,42.166c-0.318,0.739-1.234,1.345-2.042,1.345l-71.118,0.002c-0.807,0-1.205-0.604-0.887-1.346L613.933,188.149z"/>
			<circle fill="#3B3444" cx="649.403" cy="183.815" r="1.127"/>
			<g>
				<g>
					
						<line fill="none" stroke="#A0EEF2" stroke-width="3" stroke-linecap="round" stroke-linejoin="round" x1="617.281" y1="196.824" x2="617.281" y2="196.824"/>
					
						<line fill="none" stroke="#A0EEF2" stroke-width="3" stroke-linecap="round" stroke-linejoin="round" stroke-dasharray="0,4.5877" x1="621.869" y1="196.824" x2="642.514" y2="196.824"/>
					
						<line fill="none" stroke="#A0EEF2" stroke-width="3" stroke-linecap="round" stroke-linejoin="round" x1="644.808" y1="196.824" x2="644.808" y2="196.824"/>
				</g>
			</g>
			<g>
				<g>
					
						<line fill="none" stroke="#A0EEF2" stroke-width="3" stroke-linecap="round" stroke-linejoin="round" x1="644.808" y1="206.529" x2="644.808" y2="206.529"/>
					
						<line fill="none" stroke="#A0EEF2" stroke-width="3" stroke-linecap="round" stroke-linejoin="round" stroke-dasharray="0,4.5877" x1="649.396" y1="206.529" x2="670.04" y2="206.529"/>
					
						<line fill="none" stroke="#A0EEF2" stroke-width="3" stroke-linecap="round" stroke-linejoin="round" x1="672.334" y1="206.529" x2="672.334" y2="206.529"/>
				</g>
			</g>
			<g opacity="0.6">
				<g>
					
						<line fill="none" stroke="#A0EEF2" stroke-width="3" stroke-linecap="round" stroke-linejoin="round" x1="608.929" y1="215.178" x2="608.929" y2="215.178"/>
					
						<line fill="none" stroke="#A0EEF2" stroke-width="3" stroke-linecap="round" stroke-linejoin="round" stroke-dasharray="0,4.5879" x1="613.517" y1="215.178" x2="634.162" y2="215.178"/>
					
						<line fill="none" stroke="#A0EEF2" stroke-width="3" stroke-linecap="round" stroke-linejoin="round" x1="636.456" y1="215.178" x2="636.456" y2="215.178"/>
				</g>
			</g>
			<g opacity="0.6">
				<g>
					
						<line fill="none" stroke="#A0EEF2" stroke-width="3" stroke-linecap="round" stroke-linejoin="round" x1="636.456" y1="224.884" x2="636.456" y2="224.884"/>
					
						<line fill="none" stroke="#A0EEF2" stroke-width="3" stroke-linecap="round" stroke-linejoin="round" stroke-dasharray="0,4.5876" x1="641.044" y1="224.884" x2="661.688" y2="224.884"/>
					
						<line fill="none" stroke="#A0EEF2" stroke-width="3" stroke-linecap="round" stroke-linejoin="round" x1="663.981" y1="224.884" x2="663.981" y2="224.884"/>
				</g>
			</g>
		</g>
		<ellipse fill="#A0EEF2" cx="512.183" cy="163.226" rx="40.724" ry="31.598"/>
		<ellipse fill="#A0EEF2" cx="669.411" cy="105.478" rx="40.932" ry="31.488"/>
		<path fill="#A0EEF2" d="M665.354,125.596c0,0,6.581,10.962-0.98,28.999c0,0,21.609-14.491,19.166-33.908L665.354,125.596z"/>
		<path fill="#A0EEF2" d="M540.925,175.653c0,0,5.91,11.905,20.922,16.061c0,0-18.319,4.752-30.985-4.213L540.925,175.653z"/>
		<polyline fill="none" stroke="#FFFFFF" stroke-width="5" stroke-linejoin="round" stroke-miterlimit="10" points="
			654.155,103.295 664.519,116.097 687.86,94.86 		"/>
		<g>
			
				<line fill="none" stroke="#FFFFFF" stroke-width="5" stroke-linejoin="round" stroke-miterlimit="10" x1="499.815" y1="150.858" x2="524.55" y2="175.593"/>
			
				<line fill="none" stroke="#FFFFFF" stroke-width="5" stroke-linejoin="round" stroke-miterlimit="10" x1="524.55" y1="150.858" x2="499.815" y2="175.593"/>
		</g>
	</g>
</g>
</svg>
