<?xml version="1.0" encoding="utf-8"?>
<!-- Generator: Adobe Illustrator 16.0.0, SVG Export Plug-In . SVG Version: 6.00 Build 0)  -->
<!DOCTYPE svg PUBLIC "-//W3C//DTD SVG 1.1//EN" "http://www.w3.org/Graphics/SVG/1.1/DTD/svg11.dtd">
<svg version="1.1" id="Layer_1" xmlns="http://www.w3.org/2000/svg" xmlns:xlink="http://www.w3.org/1999/xlink" x="0px" y="0px"
	 width="930.35px" height="441.49px" viewBox="0 0 930.35 441.49" enable-background="new 0 0 930.35 441.49" xml:space="preserve">
<g>
	<g id="Layer_2">
		<g opacity="0.2">
			<g>
				<path fill="#8ADAE2" d="M646.104,257.411c-9.571,0.444-20.045,0.707-31.048,0.752c0.068,11.944,0.267,23.166,0.553,33.589
					c14.022,0.23,26.305,1.708,34.153,3.887C648.389,284.261,647.143,271.56,646.104,257.411z M616.256,310.786
					c1.292,31.756,3.28,53.985,4.338,64.315h45.991c-4.059-10.737-10.353-31.837-15.42-68.604
					C643.534,308.866,630.873,310.505,616.256,310.786z M575.857,299.647c0,2.896,13.797,5.281,31.59,5.616
					c0.134-3.633,0.258-7.381,0.369-11.24C589.845,294.332,575.857,296.731,575.857,299.647z M647.633,299.647
					c0-2.916-13.987-5.314-31.959-5.624c0.111,3.859,0.235,7.607,0.369,11.24C633.835,304.929,647.633,302.543,647.633,299.647z
					 M819.758,190.759c-22.473-74.21-100.637-102.826-189.422-85.264c-88.785,17.562-144.609-64.359-246.359-48.232
					C245.94,79.14,257.958,170.981,169.418,175.358S86.667,253.827,42.583,288.807c-66.988,53.151,14.105,86.296,42.131,86.296
					h131.871c-17.644-14.23-80.913-77.826,42.231-180.495c32.106-26.768,78.673,58.746,136.591,70.61
					c57.885,11.856,186.487,26.534,104.773,109.885h28.077c20.74,0,31.425-38.634,36.812-72.59c-0.26-0.406-0.406-0.818-0.406-1.238
					c0-0.631,0.31-1.247,0.884-1.844c2.737-18.164,3.97-34.564,4.449-42.407c-26.5-1.565-44.444-4.577-44.444-8.035v-9.185
					c0-5.071,38.59-9.185,86.193-9.185c47.603,0,86.192,4.112,86.192,9.185v9.185c0,3.458-17.943,6.47-44.443,8.035
					c0.479,7.843,1.712,24.243,4.449,42.407c0.573,0.597,0.884,1.213,0.884,1.844c0,0.42-0.147,0.832-0.406,1.238
					c5.386,33.956,16.07,72.59,36.811,72.59h131.365C1014.986,325.53,842.229,264.968,819.758,190.759z M556.903,375.103h45.992
					c1.059-10.33,3.047-32.561,4.339-64.314c-14.618-0.282-27.279-1.922-34.911-4.289
					C567.256,343.266,560.962,364.365,556.903,375.103z M573.726,295.639c7.852-2.179,20.134-3.656,34.156-3.888
					c0.286-10.422,0.483-21.644,0.552-33.587c-11.004-0.044-21.477-0.309-31.049-0.752
					C576.346,271.56,575.1,284.261,573.726,295.639z"/>
			</g>
		</g>
	</g>
	<g id="Layer_3">
		<g>
			<g>
				<path fill="#FBB040" d="M447.809,320.704c0.453,1.313,0.41,3.688,2.474,5.357c1.18,0.955,4.247,13.321,6.661,14.32
					c5.34,2.211,8.89-2.487,14.503-3.483c5.61-0.998,10.321,0.806,14.873-2.998c5.36-4.481,2.791-2.128,5.559-5.838
					c2.766-3.707,1.457-4.646-3.549-4.71c-5.006-0.063-3.162,0.197-10.648-0.655c-6.125-0.698-17.427-2.473-18.814-7.581
					C457.295,309.339,447.809,320.704,447.809,320.704z"/>
				<path fill="#FBB040" d="M441.583,258.469c12.528,42.835,21.263,60.581,16.059,63.178c-4.206,2.101-8.312,1.578-8.312,1.578
					l-33.302-46.803C416.03,276.422,431.076,236.277,441.583,258.469z"/>
			</g>
			<path fill="#F4A134" d="M373.388,192.937c0.844,3.763,12.814,45.546,26.794,50.469c13.945,0.568-5.15-49.321-7.221-55.789
				c-2.07-6.466-4.357-13.125-13.191-14.293C370.94,172.154,372.542,189.174,373.388,192.937z"/>
			<path fill="#3B3444" d="M331.84,182.259c0,0-20.701,69.525-12.616,93.883s43.497,6.631,43.497,6.631l19.96-5.985
				c0,0-4.215-32.601,1.355-43.266s4.227-19.558,2.646-25.731c-1.184-4.626-1.557-6.183-1.557-6.183L331.84,182.259z"/>
			<path fill="#3B3444" d="M327.007,229.637c20.218,15.198,49.292-22.938,58.119-28.029c-7.424-11.183-1.194-21.325-5.208-28.377
				c0,0-25.917-13.288-45.754,5.065C331.076,181.155,319.047,223.918,327.007,229.637z"/>
			<path fill="#F4A134" d="M380.349,158.743c2.493,7.826-8.727,35.756-11.55,38.487c-11.509,0.901-16.491-22.612-15.302-23.858
				c6.752-7.074,8.679-27.419,8.679-27.419S377.854,150.915,380.349,158.743z"/>
			<path fill="#F4A134" d="M375.658,182.471c0,0,2.182,15.004-6.859,14.76C359.757,196.987,375.658,182.471,375.658,182.471z"/>
			<g>
				<path fill="#F4A134" d="M446.982,289.434c6.483,18.757,7.204,49.184,11.355,68.069c-4.924,5.147-14.84-6.097-14.84-6.097
					c-21.482-43.816-12.926-44.211-24.857-58.378c-17.71-4.396-45.178,0.617-83.025-2.501c-4.929-8.721,5.659-23.688,8.287-29.184
					c3.319-6.938,37.445-9.906,41.683-9.563C395.649,252.6,442.229,250.676,446.982,289.434z"/>
				<path fill="#F4A134" d="M443.499,351.407c0.219,2.885-0.784,7.612-2.531,9.834c-1.748,2.223-7.044,4.863-1.738,9.881
					c4.137,3.914,8.867,2.816,16.525,8.35c7.658,5.534,4.838,2.669,12.312,4.771c7.475,2.102,7.475,2.102,7.475,2.102
					s2.566-2.366-0.139-4.311c-2.705-1.941-3.709-1.507-6.32-5.196s-5.284-8.498-7.545-13.337
					c-2.495-5.338-4.793-9.896-5.359-16.137C455.61,341.125,443.499,351.407,443.499,351.407z"/>
			</g>
			<path fill="#FBB040" d="M441.77,259.106c0.988,3.346,0.697,7.859-4.098,7.385c-9.602-0.949-29.224,10.813-54.04,17.631
				c-21.62,5.939-31.896,7.856-44.924,5.301c-21.908-5.814-15.419-33.325,4.848-38.747c33.374-7.289,57.625-8.746,77.271-5.925
				C436.1,246.589,440.089,253.415,441.77,259.106z"/>
			<path fill="#F7D116" d="M362.563,289.271c0,0-0.641,2.692,10.219,2.492c0,0-23.943,0.679-30.586-0.467L362.563,289.271z"/>
			<path fill="#FFE236" d="M343.556,250.675c0,0-29.983,8.129-25.177,24.467c4.439,15.088,19.114,15.959,21.86,16.231
				c5.948,0.59,14.557-1.33,14.557-1.33s-5.77,0.573-13.063-4.978C331.95,277.623,328.729,254.199,343.556,250.675z"/>
			<polygon fill="#494254" points="437.602,331.56 436.928,335.522 440.202,337.562 440.994,333.258 			"/>
			<polygon fill="#494254" points="445.304,328.926 443.925,332.702 446.773,335.299 448.333,331.21 			"/>
			<polygon fill="#494254" points="453.479,328.278 451.016,331.456 452.942,334.797 454.637,332.67 454.247,329.363 			"/>
			<g>
				<path fill="#F4A134" d="M377.656,247.439c0,0,15.353-18.011,20.555-19.114c3.837-0.813,5.581,3.511,6.454,9.888
					s-17.7,14.254-17.7,14.254L377.656,247.439z"/>
				
					<path fill="none" stroke="#494254" stroke-width="3" stroke-linecap="round" stroke-linejoin="round" stroke-miterlimit="10" d="
					M378.806,246.146c0,0,8.833-4.784,11.284,4.874"/>
				<path fill="#F4A134" d="M362.653,254.591c0,0,6.353-7.119,7.926-7.151s2.695-0.577,7.077,0s11.79,3.813,9,5.229
					c-3.692,1.877-3.692,1.877-6.633,2.679c-1.599,0.436-4.716,2.145-7.979,2.405c-0.518,0.042-2.423-0.588-2.979-0.588
					c-0.941,0-2.361,0.175-3.347-0.068c-0.894-0.221-0.405-0.891-1.313-1.373C363.779,255.39,363.267,255.082,362.653,254.591z"/>
				<path fill="#F4A134" d="M370.175,247.986l-9.737,2.185c0,0,1.541,2.205,6.693,1.417L370.175,247.986z"/>
			</g>
			<path fill="#FBB040" d="M366.4,155.318c7.506,8.029,12.095,16.598,26.14,13.806c8.174-1.624,13.131-12.174,8.227-26.852
				c-4.615-13.816-5.27-27.535-13.931-27.817C346.064,113.11,350.869,138.7,366.4,155.318z"/>
			<path fill="#FBB040" d="M351.182,202.786c2.168,3.19,27.074,32.172,41.886,31.614c5.813-2.008,32.438-27.862,38.972-32.879
				c-0.55-6.972-6.846-9.883-6.846-9.883c-9.782,6.041-23.996,12.549-31.312,18.911c-4.327-1.313-25.874-23.422-30.175-28.676
				s-16.361-14.807-22.424-8.28C331.764,183.843,349.013,199.599,351.182,202.786z"/>
			<path fill="#494254" d="M410.817,199.752l-0.206-0.69l7.309-4.265c0,0,6.644,1.306,8.73,11.979l-6.784,6.304l-1.371,0.407
				C418.495,213.487,417.135,201.909,410.817,199.752z"/>
			<g>
				
					<ellipse transform="matrix(-0.7033 -0.7109 0.7109 -0.7033 479.7278 608.4036)" fill="#494254" cx="366.827" cy="204.091" rx="9.963" ry="8.163"/>
				<polygon fill="none" stroke="#FBB040" stroke-linecap="round" stroke-linejoin="round" stroke-miterlimit="10" points="
					359.578,206.247 366.854,197.486 371.895,209.317 				"/>
				
					<line fill="none" stroke="#FBB040" stroke-linecap="round" stroke-linejoin="round" stroke-miterlimit="10" x1="368.101" y1="208.37" x2="370.299" y2="205.571"/>
			</g>
			<path fill="#EF4136" d="M362.113,149.904c0.687,2.941,4.75,6.976-3.063,21.369c-4.012,7.395,2.685,22.138,2.097,20.9
				c5.214,10.975-4.378,5.572-7.63,11.577c-3.909,7.219-11.324,10.406-15.357,4.74c-4.033-5.668,1.888-13.271,2.954-16.142
				c1.065-2.869-18.796-7.714-10.626-18.711c7.35-9.896,13.636-6.065,16.483-14.669s3.454-26.716,8.193-35.259
				C362.477,110.528,362.113,149.904,362.113,149.904z"/>
			<path fill="#EF4136" d="M381.1,111.417c-34.297,2.83-27.978,22.428-24.414,31.935c3.563,9.505,9.715,11.966,9.715,11.966
				c-2.995-3.146-6.032-11.404-3.632-12.846c2.399-1.443,2.757,0.49,2.757,0.49s0.744,4.149,3.705,5.817
				c0,0,1.622-6.592-1.917-10.118c0,0-0.979-9.787,8.66-5.464c9.641,4.325,24.55,10.317,28.074,2.171c0,0-5.472-1.14-3.834-9.027
				C401.851,118.454,389.837,108.366,381.1,111.417z"/>
			<g>
				<path fill="#DA1C5C" d="M392.211,166.194c-3.125,0.219-3.912-3.542-3.978-3.626c-0.279-0.366-0.206-0.891,0.161-1.169
					c0.369-0.277,2.305,0.426,3.633,0.397c0.854-0.023,3.265-1.138,3.643-0.872s0.469,0.783,0.206,1.162
					C395.214,163.702,394.561,165.878,392.211,166.194z"/>
			</g>
		</g>
		<g>
			<rect x="574.474" y="234.566" fill="#3B3444" width="79.666" height="5.136"/>
			<g>
				<path fill="#494254" d="M596.978,182.161c0.355-0.827,1.386-1.507,2.287-1.507h79.709c0.9,0,1.349,0.679,0.992,1.507
					l-21.854,50.896c-0.357,0.829-1.386,1.508-2.289,1.508l-79.707,0.002c-0.902,0-1.351-0.679-0.992-1.508L596.978,182.161z"/>
			</g>
			<polygon fill="#494254" points="535.157,239.699 617.71,239.702 617.71,234.567 535.157,234.567 			"/>
			<path fill="#7AC6D2" d="M598.897,188.15c0.315-0.739,1.234-1.345,2.041-1.345h71.12c0.804,0,1.202,0.604,0.886,1.345
				l-18.128,42.166c-0.319,0.739-1.235,1.345-2.042,1.345l-71.119,0.002c-0.807,0-1.205-0.604-0.887-1.346L598.897,188.15z"/>
			<circle fill="#3B3444" cx="634.368" cy="183.816" r="1.127"/>
			<g>
				<g>
					<defs>
						<path id="SVGID_1_" d="M598.897,188.15c0.315-0.739,1.234-1.345,2.041-1.345h71.12c0.804,0,1.202,0.604,0.886,1.345
							l-18.128,42.166c-0.319,0.739-1.235,1.345-2.042,1.345l-71.119,0.002c-0.807,0-1.205-0.604-0.887-1.346L598.897,188.15z"/>
					</defs>
					<clipPath id="SVGID_2_">
						<use xlink:href="#SVGID_1_"  overflow="visible"/>
					</clipPath>
					<g clip-path="url(#SVGID_2_)">
						
							<ellipse transform="matrix(-0.4226 0.9063 -0.9063 -0.4226 1066.7231 -264.8308)" fill="#3B3444" cx="617.724" cy="207.392" rx="6.329" ry="4.378"/>
						<path fill="#F4DBBD" d="M609.963,232.267c0,0,12.235-11.23,25.283-10.25s10.997,11.052,10.997,11.052L609.963,232.267z"/>
						<path fill="#F4A134" d="M623.418,215.827c-1.091,3.427,4.032,13.599,5.267,14.793c5.038,0.396,7.007-7.846,6.486-8.391
							c-2.955-3.097-3.798-12.001-3.798-12.001S624.511,212.401,623.418,215.827z"/>
						<path fill="#FBB040" d="M629.523,214.329c-3.285,3.515-5.294,7.264-11.44,6.041c-3.578-0.711-5.748-5.327-3.601-11.752
							c2.02-6.047,2.306-12.051,6.096-12.175C638.424,195.854,636.322,207.055,629.523,214.329z"/>
						<g>
							<path fill="#DA1C5C" d="M618.227,219.088c1.367,0.096,1.712-1.55,1.74-1.587c0.122-0.16,0.091-0.39-0.069-0.513
								c-0.161-0.12-1.01,0.188-1.591,0.176c-0.374-0.012-1.429-0.498-1.596-0.382c-0.164,0.114-0.205,0.343-0.09,0.508
								C616.912,217.997,617.198,218.95,618.227,219.088z"/>
						</g>
						<path fill="#3B3444" d="M631.231,206.655c0,0,3.733-1.765,2.529,1.072c-0.814,1.918-2.19,4.083-2.19,4.083
							s1.026,0.204,1.783-0.167c0.756-0.372,0.326-0.739,0.634-1.168c0.306-0.429,0.918-0.313,1.774-1.963
							c0.857-1.65,0.612-1.268,1.348-2.162c0.734-0.896,2.756,0.548,2.878-1.46c0.123-2.008-1.96-2.437-0.918-3.6
							c1.041-1.164,2.815-1.653,0.429-3.612c-2.389-1.961-4.042-0.308-4.593-2.39c-0.551-2.081-0.918-5.204-3.674-5.021
							c-2.757,0.183-2.145,1.347-3.858,0.429c-1.715-0.919-1.836-2.511-3.673-1.896c-1.837,0.611-2.757,2.837-4.594,2.734
							s-3.551-1.307-4.285,0c-0.736,1.307,0.066,1.796-1.191,2.715s-3.646,1.348-2.482,3s1.103,3.062,0.552,3.674
							c-0.552,0.613-1.409,2.021-0.185,2.449c1.224,0.43,3.062,1.408,2.57,2.145c-0.489,0.734-0.365,0.594,0.891,1.521
							c0,0,1.62-5.136,2.479-5.196c0.858-0.062,1.654-1.286,1.899-2.572c0.243-1.286,2.144-2.572,2.938-1.775
							c0.796,0.798-1.776,1.594,1.349,2.39c3.121,0.796,6.453,0.367,5.614,1.469c-0.84,1.104-4.513,0.858-1.94,2.145
							c2.571,1.285,1.103,1.652,0.734,2.57c-0.367,0.919,2.475,1.459,1.206,2.354C627.986,209.314,630.252,210.734,631.231,206.655z
							"/>
						
							<ellipse transform="matrix(-0.4226 0.9063 -0.9063 -0.4226 1089.4773 -273.4938)" fill="#3B3444" cx="631.861" cy="210.309" rx="6.329" ry="4.378"/>
						<polygon fill="#3B3444" points="628.896,214.452 621.885,216.858 622.249,217.928 630.263,216.189 						"/>
					</g>
				</g>
			</g>
		</g>
		<path fill="#FBB040" d="M425.193,191.64c0,0,2.946-20.148,3.178-21.979s-0.69-1.599,0.229-1.828c0.92-0.23,0-0.957,1.611-1.631
			c1.611-0.673,2.041,1.146,1.826,3.459c-0.215,2.314,0.445,6.781,0,10.993s-0.445,2.794,1.167,6.15s2.762,8.336,2.072,10.681
			c-0.69,2.346-2.093,3.116-3.238,4.036C430.892,202.441,425.193,191.64,425.193,191.64z"/>
		<path fill="#FBB040" d="M432.975,191.083c0,0,1.43-7.853,4.629-7.265c3.198,0.588-2.787,8.562-2.326,13.667L432.975,191.083z"/>
		<path fill="#FBB040" d="M430.003,178.147l1.484-2.969c0,0,2.657-2.735,3.204-2.735s0.469,1.327,0.391,1.953
			s-2.07,2.979-2.512,4.063c-0.442,1.085-1.396,4.845-1.396,4.845L430.003,178.147z"/>
		<g>
			<path fill="#FBB040" d="M586.074,181.35c0,0-0.25-7.289-0.235-7.387c0.016-0.099,4.626-4.177,4.626-4.177l5.76-1.185
				l-1.524-4.312l-7.623,1.359l-4.802,5.368l-0.378,9.708L586.074,181.35z"/>
			<path fill="#FBB040" d="M593.347,182.679c0,0-0.134-3.915-0.126-3.968c0.009-0.053,2.484-2.243,2.484-2.243l3.094-0.637
				l-0.817-2.317l-4.097,0.73l-2.58,2.886l-0.202,5.215L593.347,182.679z"/>
			<path fill="#FBB040" d="M572.654,175.476c0,0-0.376-11.002-0.354-11.148s6.98-6.302,6.98-6.302l8.692-1.789l-2.301-6.508
				l-11.506,2.053l-7.25,8.104l-0.567,14.65L572.654,175.476z"/>
		</g>
	</g>
</g>
</svg>
