<?xml version="1.0" encoding="utf-8"?>
<!-- Generator: Adobe Illustrator 16.0.0, SVG Export Plug-In . SVG Version: 6.00 Build 0)  -->
<!DOCTYPE svg PUBLIC "-//W3C//DTD SVG 1.1//EN" "http://www.w3.org/Graphics/SVG/1.1/DTD/svg11.dtd">
<svg version="1.1" id="Layer_1" xmlns="http://www.w3.org/2000/svg" xmlns:xlink="http://www.w3.org/1999/xlink" x="0px" y="0px"
	 width="829.121px" height="704.329px" viewBox="0 0 829.121 704.329" enable-background="new 0 0 829.121 704.329"
	 xml:space="preserve">
<g id="Layer_1_1_">
	<g opacity="0.4" enable-background="new    ">
		<g>
			<defs>
				<rect id="SVGID_1_" x="7.609" y="44.271" width="813.903" height="603.263"/>
			</defs>
			<clipPath id="SVGID_2_">
				<use xlink:href="#SVGID_1_"  overflow="visible"/>
			</clipPath>
			<g clip-path="url(#SVGID_2_)">
				<g>
					<path fill="#A8CB15" d="M599.359,619.622c-12.868,0-23.301-10.432-23.301-23.299c0-12.869,10.433-23.301,23.301-23.301h218.993
						c0.834-10.596,1.264-21.307,1.264-32.115c0-36.197-4.767-71.281-13.695-104.664h-60.344c-9.334,0-16.899-7.564-16.899-16.898
						c0-9.333,7.565-16.898,16.899-16.898h49.685c-56.519-154.928-205.164-265.54-379.646-265.54
						c-122.202,0-231.729,54.258-305.812,139.995h82.682c9.333,0,16.899,7.566,16.899,16.9c0,9.332-7.566,16.899-16.899,16.899
						H83.577c-26.865,38.675-47.146,82.267-59.221,129.156h420.357c12.868,0,23.299,10.432,23.299,23.299
						s-10.431,23.299-23.299,23.299H15.26c-2.399,17.811-3.646,35.986-3.646,54.453c0,223.125,180.877,404.002,404.001,404.002
						c196.188,0,359.706-139.844,396.329-325.287H599.359L599.359,619.622z"/>
				</g>
			</g>
		</g>
	</g>
</g>
<g id="Layer_2">
	<g>
		<rect x="427.021" y="551.186" fill="#683716" width="133.884" height="15.414"/>
		<polygon fill="#6D4120" points="498.949,647.534 488.976,647.534 485.508,470.254 502.417,470.254 		"/>
		<polygon fill="#6D4120" points="422.83,647.547 412.638,647.583 431.503,469.338 444.871,470.729 		"/>
		<polygon fill="#6D4120" points="565.095,647.547 575.287,647.583 556.421,469.338 543.054,470.729 		"/>
		<path fill="#8B5E3C" d="M566.899,445.76c0-16.566-32.655-29.997-72.938-29.997s-72.937,13.431-72.937,29.997
			c0,5.193-1.227,9.861,2.827,13.021h140.219C567.792,456.018,566.899,450.954,566.899,445.76z"/>
		<rect x="423.854" y="458.782" fill="#754C29" width="140.218" height="13.332"/>
	</g>
	<g>
		<path fill="#82AA8E" d="M272.219,487.338c-6.357,46.449-4.137,120.178-4.137,120.178l5.778-0.078l5.777-0.078
			C279.637,607.36,279.841,533.598,272.219,487.338z"/>
		<path fill="#82AA8E" d="M301.938,503.946c-10.221,40.424-14.183,105.707-14.183,105.707l5.761,0.457l5.761,0.455
			C299.277,610.565,305.654,545.473,301.938,503.946z"/>
		<path fill="#A8CB15" d="M254.011,525.25c-0.826,35.25,10.002,89.166,10.002,89.166l5.689-1.014l5.689-1.014
			C275.392,612.389,266.95,558.049,254.011,525.25z"/>
		<path fill="#A8CB15" d="M320.916,519.006c-14.409,34.859-25.256,92.83-25.256,92.83l5.657,1.178l5.656,1.182
			C306.973,614.196,320.193,556.719,320.916,519.006z"/>
		<path fill="#A8CB15" d="M284.536,472.696c-6.99,53.443-5.778,138.471-5.778,138.471h5.778h5.778
			C290.314,611.167,291.526,526.139,284.536,472.696z"/>
		<polygon fill="#65B9C1" points="305.4,647.534 263.673,647.534 254.826,612.348 314.247,612.348 		"/>
		<rect x="253.833" y="603.584" fill="#7AC6D2" width="61.406" height="15.162"/>
	</g>
	<g>
		<path fill="#213547" d="M464.06,425.157c-21.229,30.707-115.432,7.559-142.533,27.877c-46.274-5.945-34.312-36.861-27.697-44.035
			c0,0,52.95-26.681,134.434-13.623C509.747,408.432,464.06,425.157,464.06,425.157z"/>
		<path fill="#752C2C" d="M404.006,597.102c0,0,2.215,17.402-5.687,30.963c-7.901,13.555-21.79,31.83-10.384,40.416
			c11.404,8.588,30.562-3.043,42.82-34.459c0,0,5.453-14.229,5.92-16.764c0.465-2.537-9.773-18.829-9.677-25.303
			C427.096,585.48,404.006,597.102,404.006,597.102z"/>
		<path fill="#F4A134" d="M432.345,197.766c0,0-17.908,47.372-28.748,63.321c-3.98-0.996-7.913-1.826-63.123-22.08
			c-6.159-2.259-6.312,18.384-6.312,18.384s76.284,47.488,84.083,41.146c11.101-9.027,49.391-96.754,49.391-96.754L432.345,197.766z
			"/>
		<path fill="#FFDE17" d="M455.562,183.418c9.729,8.391,13.164,13.749,5.108,33.771c-9.826,24.421-13.965,30.427-13.965,30.427
			s-26.855,9.272-39.108-9.484c6.705-16.868,12.973-43.442,22.819-51.532C440.262,178.51,445.835,175.028,455.562,183.418z"/>
		<path fill="#4C2B0F" d="M488.828,123.43c0,0,18.416-15.708,23.899,7.083c5.487,22.79,19.379,21.163,23.431,19.601
			c4.054-1.563,5.168,1.598,2.01,2.711c0,0,11.262-5.45,12.72-2.045c1.458,3.407-17.951,24.777-36.932,23.132
			C487.957,171.655,475.946,145.23,488.828,123.43z"/>
		<path fill="#FFDE17" d="M541.28,265.224c-2.738-14.479-1.597-55.384-6.396-61.402c-30.808-38.649-90.74-23.544-90.74-23.544
			c-9.196,11.646-11.342,29.196-9.013,49.493c14.556,11.635,56.619,88.595,97.359,66.69
			C537.797,293.607,545.162,273.427,541.28,265.224z"/>
		<path fill="#17649A" d="M562.29,384.151c1.319-23.186-2.16-62.041-21.01-118.927c9.467,90.229-45.877-21.038-56.872-19.047
			c-27.044,4.9-37.579-7.057-49.276-16.406c-9.637,29.151,11.37,50.602,22.096,76.549c20.002,48.396-30.468,65.353-74.031,82.699
			c-10.997,4.38,31.808,6.733,85.426,55.78C564.074,449.542,560.783,410.624,562.29,384.151z"/>
		<path fill="#17649A" d="M452.08,176.916c0,0-20.799-1.327-16.948,52.855l9.661,8.017c0,0-5.114-55.275,12.748-53.763
			L452.08,176.916z"/>
		<path fill="#F4A134" d="M485.167,140.259c0,0,1.972,26.658,16.39,43.934c0,0-18.603,18.669-39.164,13.869
			c-10.965-2.561-13.477-31.011-6.813-44.474C462.245,140.123,485.167,140.259,485.167,140.259z"/>
		<path fill="#17649A" d="M506.746,183.453c0,0-15.456,2.104-20.54,17.657c-5.085,15.55-5.415,46.979-5.415,46.979l8.045,0.497
			c0,0,1.185-64.332,32.14-57.681C520.976,190.906,514.034,184.402,506.746,183.453z"/>
		<path fill="#26384C" d="M489.488,386.433c34.631-16.521,85.151,3.067,61.577,37.167c-21.227,30.705-139.223,54.611-130.523,71.922
			c14.078,28.02,3.929,44.887,0.542,103.94c0,0-13.02,6.585-20.779-3.874c-7.759-10.466-48.112-111.389-24.134-138.637
			C400.151,429.706,434.502,412.667,489.488,386.433z"/>
		<path fill="#26384C" d="M420.949,578.317c0,0,1.527,3.441,5.664,8.942c4.065,5.408,0.877,11.534,0.877,11.534
			s-17.801,14.039-27.186-3.205L420.949,578.317z"/>
		<path fill="#17649A" d="M364.899,389.092c0,0,97.033-18.534,116.862,73.613c0,0,65.485-20.334,74.981-45.595
			c16.687-44.392-58.132-52.295-84.118-51.88C446.64,365.649,433.795,351.839,364.899,389.092z"/>
		<path fill="#FBB040" d="M428.915,87.379c-15.257,4.287-10.43,28.934-12.596,55.487c-2.305,28.208,11.106,44.777,26.333,44.096
			c26.163-1.173,30.57-18.392,40.395-35.926C503.379,114.74,500.743,67.193,428.915,87.379z"/>
		<path fill="#603913" d="M436.569,82.283c-12.073,1.934-62.38,18.557-25.203,33.185c26.798,10.545,30.789-4.396,30.789-4.396
			s11.858,12.812,19.548,10.86c7.689-1.951,2.534-7.952,2.534-7.952s3.853,12.329,14.973,14.729c0,0-0.21-3.59,4.678-2.075
			c4.894,1.513,3.107,17.508-0.841,24.404c0,0,6.828-7.67,10.071-25.949C496.405,106.562,498.714,72.337,436.569,82.283z"/>
		<g>
			<path fill="#F4A134" d="M341.824,239.501c0,0-0.907-8.749-3.168-10.588c-2.261-1.838-7.587-3.836-7.587-3.836l-10.956-1.638
				l-6.198,1.517c0,0-0.808,1.869-1.364,4.815c-0.561,2.947-3.537,2.213-3.597,9.01c-0.01,1.125,0.923,4.085,6.296,8.819
				c2.896,2.549,17.485,8.767,18.912,9.791C335.584,258.415,341.824,239.501,341.824,239.501z"/>
			<path fill="#F4A134" d="M341.436,235.863c0,0,0.389-10.002,0.389-14.966c0-4.116,0.929-7.345,1.326-9.355
				c0,0-4.934-0.033-6.692,2.704c-1.697,2.641-2.296,12.128-2.296,12.128S336.125,236.051,341.436,235.863z"/>
		</g>
		<g>
			<polygon fill="#842A2A" points="538.475,424.661 463.659,429.233 398.875,381.904 540.555,415.801 			"/>
			
				<rect x="320.232" y="405.659" transform="matrix(-0.973 -0.2307 0.2307 -0.973 680.8863 900.3258)" fill="#842A2A" width="145.698" height="9.392"/>
			<polygon fill="#993939" points="540.552,415.801 465.039,422.616 462.874,431.752 538.39,424.934 			"/>
			<g>
				<path fill="#FBB040" d="M488.068,361.288c0,0-11.109,3.496-12.6,6.004c-1.489,2.504-3.313,8.133-3.313,8.133
					s-12.266,12.332-12.811,14.229c-0.543,1.891-5.046,17.33-3.121,17.52c0.685,0.074,1.532-0.666,2.401-1.758
					c1.587-1.994,5.003-8.252,5.799-9.947c1.235-2.62,2.808-1.488,2.808-1.488s1.347,4.204,4.343,4.326
					c2.994,0.123,0.794,1.875,4.577,2.957c3.782,1.092,1.645,2.013,8.376,1.078c1.117-0.15,11.403-8.926,15.305-14.932
					c2.101-3.236,4.85-14.752,5.654-16.313C506.291,369.54,488.068,361.288,488.068,361.288z"/>
				<path fill="#FBB040" d="M482.158,363.417c0,0-8.127,1.778-11.838,3.551c-3.72,1.775-6.41,9.299-7.897,10.703
					c0,0,4.332,0.016,6.42-2.328c2.088-2.342,3.582-0.725,3.582-0.725S483.122,368.649,482.158,363.417z"/>
			</g>
			<g>
				<path fill="#993939" d="M464.523,419.661c0.282,1.625-0.799,2.643-2.403,2.262l-141.843-33.635
					c-1.605-0.381-3.151-2.021-3.436-3.646l-17.418-99.792c-0.283-1.625,0.798-2.644,2.403-2.263l141.843,33.632
					c1.605,0.381,3.151,2.022,3.435,3.647L464.523,419.661z"/>
			</g>
			
				<rect x="376.347" y="346.644" transform="matrix(-0.8246 0.5657 -0.5657 -0.8246 896.2268 426.6742)" fill="#55BCED" width="11.246" height="11.253"/>
		</g>
		<g>
			<path fill="#DA1C5C" d="M438.848,174.357c-0.327,0.055-0.661,0.08-0.996,0.083c-3.93,0.021-6.622-3.569-6.734-3.724
				c-0.489-0.663-0.347-1.602,0.319-2.092c0.664-0.49,1.597-0.349,2.09,0.313c0.042,0.06,1.938,2.531,4.322,2.509
				c1.532-0.013,3.063-1.075,4.559-3.154c0.482-0.671,1.415-0.823,2.088-0.339c0.671,0.482,0.822,1.417,0.342,2.088
				C443.021,172.561,441.011,174.011,438.848,174.357z"/>
		</g>
		<path fill="#752C2C" d="M413.696,479.092c0,0,14.939,9.193,20.543,23.854c5.6,14.656,11.118,36.938,24.959,33.441
			c13.842-3.492,18.292-22.904-1.466-50.34c0,0-6.163-17.797-7.847-19.752c-1.683-1.953-20.795-4.201-25.772-8.338
			C419.129,453.821,413.696,479.092,413.696,479.092z"/>
		<path fill="#213547" d="M296.522,410.303c5.827-1.852,24.428-6.063,45.211,1.738c20.781,7.803,51.188,32.799,78.732,43.457
			c9.593,3.711,5.559,30.766-8.293,28.373c-13.851-2.393-69.287-23.066-103.454-33.508L296.522,410.303z"/>
		<g>
			<path fill="#FBB040" d="M502.128,217.445c0,0,20.864,74.05,17.67,81.676c-3.189,7.626-17.323,30.135-31.729,62.167
				c0,0,5.959,15.494,17.419,9.809c8.665-8.387,35.064-45.656,40.22-53.909c6.125-9.806,11.57-46.892-6.569-107.579L502.128,217.445
				z"/>
		</g>
		<path fill="#FFDE17" d="M513.885,193.826c12.804-1.043,19.033,0.269,27.646,20.06c10.505,24.136,11.88,31.299,11.88,31.299
			s-12.236,25.639-34.2,21.209s-22.585-33.243-21.438-45.934S501.082,194.87,513.885,193.826z"/>
	</g>
</g>
</svg>
