<?xml version="1.0" encoding="utf-8"?>
<!-- Generator: Adobe Illustrator 16.0.0, SVG Export Plug-In . SVG Version: 6.00 Build 0)  -->
<!DOCTYPE svg PUBLIC "-//W3C//DTD SVG 1.1//EN" "http://www.w3.org/Graphics/SVG/1.1/DTD/svg11.dtd">
<svg version="1.1" id="Layer_1" xmlns="http://www.w3.org/2000/svg" xmlns:xlink="http://www.w3.org/1999/xlink" x="0px" y="0px"
	 width="930.35px" height="441.49px" viewBox="0 0 930.35 441.49" enable-background="new 0 0 930.35 441.49" xml:space="preserve">
<g>
	<g id="Layer_2">
		<g opacity="0.2">
			<g>
				<path fill="#8ADAE2" d="M819.757,190.693c-22.472-74.211-100.636-102.826-189.421-85.265
					c-88.785,17.563-144.609-64.358-246.358-48.231C245.939,79.074,257.959,170.916,169.419,175.293S86.667,253.762,42.583,288.741
					c-66.988,53.151,14.105,86.296,42.131,86.296h21.773c-0.006-0.23-0.018-0.46-0.018-0.691c0-2.313,0.313-4.556,0.889-6.688
					c-3.375,0.492-6.146-0.069-6.146-0.069c1.154-3.94,3.227-6.348,5.543-7.797c-6.272-1.608-10.555-6.605-10.555-6.605
					c8.821-6.358,16.398-2.567,20.494,0.692c4.281-3.222,9.605-5.132,15.375-5.132c0.119,0,0.236,0.008,0.354,0.009
					c1.558-7.089,7.826-11.708,7.826-11.708c3.281,5.343,3.223,10.022,1.908,13.769c1.405,0.603,2.744,1.329,4.007,2.163
					c2.738-4.77,6.468-8.896,10.911-12.099c-4.856-6.373-1.957-15.156-1.957-15.156c3.903,1.662,6.184,4.053,7.47,6.594
					c0.792-8.229,8.171-13.78,8.171-13.78c1.659,2.64,2.511,5.127,2.803,7.431c2.307-1.536,4.283-2.212,4.283-2.212
					c1.035,4.128,0.5,7.396-0.757,9.958c0.813-0.052,1.633-0.087,2.461-0.087c9.098,0,17.452,3.164,24.039,8.441
					c2.263-4.947,5.255-9.49,8.854-13.479c-6.864-3.052-11.127-8.866-11.127-8.866c6.783-4.144,12.74-4.169,17.544-2.575
					c-4.254-7.997-2.455-17.362-2.455-17.362c9.959,2.791,13.855,9.305,15.238,15.269c1.424-0.587,2.876-1.121,4.36-1.584
					c2.179-5.842,7.184-9.529,7.184-9.529c1.639,2.666,2.44,5.166,2.674,7.471c1.962-0.22,3.951-0.344,5.971-0.344
					c1.73,0,3.44,0.09,5.13,0.252c0.626-5.071,2.23-9.835,4.627-14.101c-12.629-7.764-9.379-24.724-9.379-24.724
					c10.686,2.994,14.396,10.272,15.503,16.563c0.098-0.1,0.191-0.203,0.291-0.302c-1.353-8.798,5.495-16.256,5.495-16.256
					c2.813,3.054,4.188,6.104,4.674,8.974c5.153-2.549,10.954-3.987,17.092-3.987c6.532,0,12.683,1.628,18.075,4.491
					c1.682-6.07,8.354-8.768,8.354-8.768c1.81,5.858-0.431,9.774-3.014,12.194c5.775,4.412,10.271,10.412,12.826,17.354
					c3.478-0.717,7.078-1.096,10.769-1.096c1.708,0,3.396,0.089,5.062,0.246c-3.209-9.796,4.916-18.652,4.916-18.652
					c6.971,7.569,5.168,15.118,2.633,19.928c0.672,0.164,1.338,0.345,2,0.533c3.188-6.15,11.074-7.295,11.074-7.295
					c0.289,4.796-1.417,7.958-3.646,10.038c5.903,2.701,11.228,6.446,15.729,11.012c4.467-4.475,10.028-7.852,16.245-9.711
					c-3.479-5.193-2.027-11.962-2.027-11.962c6.604,2.009,8.746,6.624,9.301,10.529c1.252-0.122,2.521-0.188,3.805-0.188
					c3.218,0,6.341,0.4,9.33,1.143c4.146-9.215,15.84-10.511,15.84-10.511c0.157,5.853-1.822,9.833-4.491,12.538
					c3.093-0.265,5.531,0.313,5.531,0.313c-0.633,1.928-1.483,3.467-2.466,4.692c7.698,6.015,13.055,14.881,14.479,25.015
					c6.925,0.192,13.521,1.704,19.536,4.307c1.059-4.041,2.584-7.894,4.512-11.498c-8.517-6.719-5.85-19.117-5.85-19.117
					c6.934,2.108,10.104,6.416,11.465,10.676c0.063-0.078,0.124-0.161,0.188-0.239c-1.388-9.157,7.401-15.468,7.401-15.468
					c1.345,2.25,2.037,4.361,2.282,6.318c6.957-5.098,15.202-8.532,24.156-9.739c-4.698-6.82-2.763-15.825-2.763-15.825
					c5.255,1.599,8.346,4.461,10.13,7.607c1.025-6.475,5.459-11.31,5.459-11.31c6.863,7.452,5.223,14.889,2.75,19.707
					c0.852,0.136,1.696,0.291,2.533,0.467c1.493-12.717,12.299-22.585,25.417-22.585c14.036,0,25.431,11.299,25.593,25.297
					c0.315-0.007,0.63-0.022,0.946-0.022c2.916,0,5.753,0.334,8.484,0.946c-0.994-6.298,4.543-11.195,4.543-11.195
					c3.843,5.163,2.438,9.763,0.577,12.722c0.454,0.171,0.906,0.346,1.352,0.532c4.806-11.507,19.217-10.337,19.217-10.337
					c-1.525,9.172-7.439,12.679-12.516,13.976c5.962,4.047,10.724,9.722,13.667,16.38c3.427-0.995,7.046-1.541,10.795-1.541
					c13.633,0,25.605,7.071,32.477,17.739c2.279-2.158,4.749-4.117,7.385-5.847c-12.222-7.857-9.023-24.51-9.023-24.51
					c6.2,1.736,10.044,4.921,12.403,8.515c1.02-2.656,2.201-4.379,2.201-4.379c5.789,4.741,6.759,10.15,6.119,14.619
					c3.994-1.385,8.203-2.306,12.565-2.695c-2.806-3.163-3.426-7.332-3.426-7.332c3.244-0.204,5.633,0.638,7.396,1.928
					c-0.874-7.198,3.535-13.621,3.535-13.621c6.169,5.055,6.866,10.865,5.975,15.487c2.745-3.856,7.553-5.195,7.553-5.195
					c0.931,4.891-0.818,8.104-3.03,10.169c12.512,3.207,23.232,10.871,30.393,21.192c4.693-5.474,11.655-8.945,19.432-8.945
					c0.049,0,0.097,0.005,0.145,0.005c1.073-7.745,8.037-12.873,8.037-12.873c3.582,5.834,3.186,10.877,1.516,14.774
					c1.191,0.488,2.34,1.063,3.435,1.717c4.506-5.639,12.461-3.638,12.461-3.638c-1.354,4.628-4.41,6.722-7.383,7.625
					c4.568,4.623,7.391,10.977,7.391,17.989c0,0.99-0.063,1.967-0.172,2.928h43.749
					C1014.985,325.465,842.229,264.902,819.757,190.693z"/>
			</g>
		</g>
	</g>
	<g id="Layer_3">
		<ellipse fill="#A0EEF2" cx="478.851" cy="226.261" rx="40.723" ry="31.598"/>
		<ellipse fill="#A0EEF2" cx="589.083" cy="181.605" rx="40.932" ry="31.488"/>
		<path fill="#A0EEF2" d="M585.024,201.722c0,0,6.584,10.962-0.979,28.999c0,0,21.607-14.491,19.164-33.908L585.024,201.722z"/>
		<path fill="#A0EEF2" d="M509.022,242.716c0,0-6.478,7.772,3.235,20.794c0,0-13.672-3.128-19.08-12.495L509.022,242.716z"/>
		<polyline fill="none" stroke="#FFFFFF" stroke-width="5" stroke-linejoin="round" stroke-miterlimit="10" points="
			573.827,179.421 584.188,192.223 607.53,170.986 		"/>
		<g>
			
				<line fill="none" stroke="#FFFFFF" stroke-width="5" stroke-linejoin="round" stroke-miterlimit="10" x1="466.483" y1="213.893" x2="491.218" y2="238.627"/>
			
				<line fill="none" stroke="#FFFFFF" stroke-width="5" stroke-linejoin="round" stroke-miterlimit="10" x1="491.218" y1="213.893" x2="466.483" y2="238.627"/>
		</g>
		<g>
			<path fill="#F4A134" d="M357.768,130.809c1.04,3.715,13.414,43.625,27.634,47.81c12.981-0.366-5.958-47.797-8.365-54.146
				c-2.404-6.348-5.039-12.88-13.921-13.584C354.234,110.186,356.726,127.095,357.768,130.809z"/>
			<path fill="#494254" d="M346.785,393.304c0,0,0.89,5.36-10.631,4.455c-16.331-1.282-34.018-18.074-36.3-22.746l-0.295-2.953
				c0,0,0.679-3.944,8.886-3.379C316.653,369.247,339.065,382.138,346.785,393.304z"/>
			<path fill="#494254" d="M427.759,377.255c0,0,2.984,0.352,2.984,0.79c0,0.438-0.55,2.281-0.55,2.281s-45.706,1.521-54.483-3.041
				v-3.335L427.759,377.255z"/>
			<path fill="#FBB040" d="M398.037,352.232c0,0-2.554,4.222,10.474,9.478c14.688,5.926,22.233,10.604,21.729,13.98
				c-0.438,2.935-7.104,1.878-16.074,1.177s-15.471-1.239-22.202-1.652c-6.73-0.413-9.283,0.591-12.919-1.239
				c-4.026-2.025-0.472-10.581,0.912-15.041s0.679-11.284,0.679-11.284L398.037,352.232z"/>
			<path fill="#FBB040" d="M324.713,356.627c0,0-3.374,8.8,7.44,17.767c10.814,8.966,12.91,12.617,13.636,17.841
				c0.624,4.498-12.29,3.186-18.414,1.32c-6.123-1.865-9.791-7.146-15.335-10.985c-5.543-3.842-7.391-3.942-9.528-7.406
				c-2.259-3.661,2.737-7.374,4.121-11.834s0.679-11.285,0.679-11.285L324.713,356.627z"/>
			<path fill="#303860" d="M388.817,217.765c0,0,15.479,45.868,18.965,58.045c3.483,12.177-8.295,51.775-8.729,66.503
				c-0.186,6.301,1.764,12.253,1.764,12.253s-11.354,5.003-19.006,0.573c-5.348-3.096-0.729-13.188-4.151-20.134
				c-3.42-6.945,3.231-40.762,2.142-47.273c-1.092-6.513-25.975-48.757-26.568-62.982
				C352.638,210.523,388.817,217.765,388.817,217.765z"/>
			<path fill="#3B466B" d="M370.028,221.15c0,0,1.373,13.344,0,28.194c-1.529,16.55-5.84,34.101-6.2,40.765
				c-0.681,12.647-25.613,39.601-31.634,52.226c-5.375,11.271-6.707,16.856-6.707,16.856s-16.332,4.188-19.022-4.233
				c-2.691-8.422,5.479-22.216,8.722-32.96c3.163-10.479,17.207-23.242,18.304-29.754c1.094-6.513-6.507-63.434-2.425-77.073
				C335.147,201.529,370.028,221.15,370.028,221.15z"/>
			<path fill="#EF4136" d="M378.329,179.045c0.052,6.685,14.583,35.467,14.583,35.467s-2.188,6.384-27.149,7.468
				c-28.355,1.229-35.886,4.3-35.886,4.3L378.329,179.045z"/>
			<path fill="#EF4136" d="M316.153,159.639c-0.873-15.374,1.865-32.982,4.827-36.488c19.001-22.526,45.659-14.729,53.979-11.197
				c4.043,1.716,2.763,51.519,3.368,67.093c0.48,12.292-25.847,26.672-25.847,26.672l-22.605,20.563
				C323.066,212.852,316.907,172.92,316.153,159.639z"/>
			<path fill="#EF4136" d="M356.411,114.927c-5.06,6.523-6.506,10.305,1.47,21.573c9.725,13.742,10.275,18.553,10.275,18.553
				s15.967-2.26,24.08-13.371c-6.668-9.503-11.361-23.765-17.342-30.56C367.448,107.475,361.468,108.405,356.411,114.927z"/>
			<path fill="#FFE0B6" d="M342.123,107.045c0,0,28.516-10.896,46.479,52.25l-16.069,3.322c0,0-10.039-49.214-16.354-50.151
				L342.123,107.045z"/>
			<path fill="#FFE0B6" d="M334.859,105.534c0,0-12.114,6.374-2.235,16.937c12.529,13.396,20.592,33.646,21.545,48.757l13.798-6.157
				c0,0-10.812-29.202-32.662-43.489L334.859,105.534z"/>
			<path fill="#F4A134" d="M331.394,94.823c0,0,4.439,20.295,3.911,26.757c-0.152,1.871,12.821,7.238,19,2.502
				c6.603-5.059,5.292-20.139,1.177-26.643C348.974,91.287,331.394,94.823,331.394,94.823z"/>
			<path fill="#FBB040" d="M345.976,49.734c9.205-2.138,13.752,12.129,22.501,25.39c9.295,14.082,7.036,26.59-1.119,30.6
				c-14.009,6.892-21.255-0.846-31.414-7.188C314.904,85.391,302.644,59.782,345.976,49.734z"/>
			<path fill="#414042" d="M362.911,65.871c1.664-1.217,4.396-5.058,0.51-8.612c-3.885-3.558-1.902-2.812-4.244-7.791
				c-2.343-4.979-2.604-7.212-7.279-4.963c-4.677,2.247-8.363,3.478-14.994,2.132c-6.633-1.348-18.63,0.881-19.851,8.151
				c-1.212,7.269-3.244,8.968-7.058,11.693c-3.813,2.727-6.054,9.58-1.627,12.69c4.429,3.107,6.566,5.273,7.388,8.396
				c0.823,3.127,0.42,4.734,4.805,5.808c4.388,1.072,5.432,0.994,6.729,3.266s7.324,1.033,7.324,1.033s-10.597-10.217-4.65-12.434
				c5.945-2.22,5.568,0.553,5.568,0.553l2.648-2.703l-6.644-6.034c0,0,4.05-3.978,6.059-9.578c2.008-5.598,2.432-9.066,7.748-7.839
				C350.668,60.869,359.263,68.543,362.911,65.871z"/>
			<g>
				<path fill="#DA1C5C" d="M362.977,91.627c-0.146,0.11-0.287,0.232-0.42,0.367c-1.522,1.574-1.118,4.042-1.101,4.146
					c0.076,0.453,0.509,0.756,0.964,0.68c0.453-0.077,0.756-0.509,0.681-0.962c-0.007-0.038-0.269-1.757,0.657-2.707
					c0.602-0.609,1.617-0.814,3.031-0.614c0.457,0.064,0.879-0.251,0.943-0.709c0.063-0.458-0.254-0.878-0.708-0.944
					C365.311,90.641,363.951,90.891,362.977,91.627z"/>
			</g>
			<path fill="#494254" d="M427.688,371.535c0,0-27.131,1.584-30.318,4.881l-6.54-0.846c0,0,20.24-5.47,35.753-4.894
				L427.688,371.535z"/>
			<path fill="#494254" d="M341.726,391.173l1.057-6.42l-1.631-2.014l-0.482,7.303c0,0-21.859-8.139-31.961-9.646l2.066,3.058
				C310.774,383.454,332.67,387.804,341.726,391.173z"/>
			<path fill="#F4A134" d="M382.806,153.977c0,0,2.697-11.723,5.92-22.699c3.223-10.978,4.313-9.264,4.313-9.264
				s4.367-0.545,7.453,1.737c3.085,2.28-2.813,31.077-4.571,39.917c-1.759,8.836-4.563,15.352-10.519,14.949
				C379.446,178.213,382.806,153.977,382.806,153.977z"/>
			<path fill="#F4A134" d="M405.46,110.465c3.522-0.509,7.11-0.473,7.754-0.479c0.645-0.005,9.123-2.424,12.932-0.91
				c3.717,1.473-0.261,2.561-2.789,2.94c-2.584,0.388-5.943,4.028-6.851,4.266c-4.679,1.229-7.782,2.74-8.502,4.247
				c-0.722,1.504-6.338,3.801-6.651,8.346c-0.313,4.545-10.504-3.896-10.504-3.896s1.156-5.074,1.084-6.206
				c-0.241-3.735-0.846-8.647,0.381-9.687c1.226-1.04,7.022-1.701,9.005-2.397c1.979-0.699,3.292-1.63,3.59,0.257
				C405.205,108.83,396.119,111.811,405.46,110.465z"/>
			<path fill="#F4A134" d="M414.107,112.622c2.46-0.261,4.334-4.539,6.674-5.335c2.339-0.796,2.539,0.811,2.015,1.235
				c-0.525,0.427-3.614,2.744-3.909,3.14C418.59,112.059,411.646,112.881,414.107,112.622z"/>
			<path fill="#FBB040" d="M319.575,157.141c0.614,3.809,7.823,34.29,21.478,40.055c6.117,0.643,41.183-11.515,49.226-13.295
				c2.451-6.551-2.021-11.853-2.021-11.853c-11.421,1.332-27.054,1.214-36.372,3.885c-3.363-3.021-10.438-25.855-12.111-32.438
				c-1.675-6.58-8.56-20.34-16.813-16.993C310,131.758,318.96,153.334,319.575,157.141z"/>
			<path fill="#FBB040" d="M382.405,172.6c4.018-0.442,6.769-7.836,8.347-8.212c1.577-0.376,4.392,3.304,5.286,3.436
				c0.892,0.134,2.857,0.773,2.857,0.773s0.539,0.872,0.87,1.104c0.332,0.229-0.149,1.013-0.281,1.903
				c-0.132,0.894,0.544,0.958,0.208,2.31c-0.338,1.349-0.376,1.026-0.551,1.796c-0.175,0.763,0.028,1.411-0.251,1.69
				c-0.648,0.65-0.82,0.608-0.85,1.215c-0.028,0.604-0.642,1.617-1.263,1.708c-0.623,0.091-3.769,3.675-8.325,4.031
				C386.587,184.499,382.405,172.6,382.405,172.6z"/>
			<path fill="#EF4136" d="M323.457,122.328c3.847-1.432,18.777,12.663,21.393,29.427c1.34,8.581,3.655,10.396,3.655,10.396
				s-6.916,12.771-26.462,9.646C322.042,171.798,302.699,130.045,323.457,122.328z"/>
		</g>
		<g>
			<g>
				<path fill="#3B3444" d="M523.542,354.75c-0.98,0.453-2.203,0.047-2.719-0.902l-16.56-30.515
					c-0.516-0.948-0.135-2.099,0.847-2.552l16.715-7.748c0.981-0.455,2.203-0.049,2.721,0.899l16.557,30.516
					c0.515,0.95,0.136,2.098-0.846,2.554L523.542,354.75z"/>
				<path fill="#7AC6D2" d="M522.81,351.446c-0.489,0.228-1.104,0.024-1.36-0.45l-14.334-26.42
					c-0.261-0.477-0.068-1.049,0.422-1.277l15.022-6.963c0.49-0.227,1.103-0.025,1.359,0.449l14.336,26.42
					c0.256,0.476,0.066,1.051-0.422,1.276L522.81,351.446z"/>
				<path fill="#414042" d="M510.202,320.402c0.162,0.299,0.045,0.651-0.26,0.795c-0.308,0.143-0.687,0.016-0.849-0.281
					c-0.16-0.297-0.045-0.652,0.265-0.793C509.663,319.98,510.042,320.105,510.202,320.402z"/>
				<path fill="#414042" d="M519.56,316.064c0.162,0.299,0.043,0.655-0.262,0.798c-0.305,0.139-0.684,0.014-0.846-0.282
					c-0.16-0.297-0.043-0.653,0.264-0.794C519.021,315.643,519.399,315.768,519.56,316.064z"/>
				<path fill="#414042" d="M516.39,317.533c0.056,0.103,0.015,0.225-0.092,0.272l-3.742,1.735
					c-0.104,0.049-0.231,0.005-0.289-0.098l0,0c-0.057-0.102-0.016-0.222,0.091-0.27l3.741-1.736
					C516.206,317.391,516.333,317.433,516.39,317.533L516.39,317.533z"/>
				<path fill="#3B3444" d="M529.474,322.324c0.086,0.159,0.021,0.352-0.145,0.429l0,0c-0.164,0.076-0.367,0.007-0.455-0.151
					l-2.43-4.479c-0.086-0.159-0.023-0.353,0.141-0.426l0,0c0.168-0.078,0.371-0.011,0.457,0.147L529.474,322.324z"/>
				<path fill="#3B3444" d="M531.669,326.371c0.086,0.16,0.023,0.354-0.143,0.432l0,0c-0.164,0.074-0.371,0.007-0.457-0.152
					l-1.148-2.12c-0.088-0.16-0.022-0.353,0.141-0.431l0,0c0.166-0.076,0.371-0.008,0.457,0.152L531.669,326.371z"/>
				<circle fill="#A0EEF2" cx="522.684" cy="333.781" r="6.827"/>
				<polyline fill="none" stroke="#7AC6D2" stroke-width="2" stroke-linejoin="round" stroke-miterlimit="10" points="
					519.632,335.945 524.155,336.425 524.587,329.627 				"/>
			</g>
			<polygon fill="#F7941E" points="571.784,346.268 570.423,360.272 574.415,363.894 570.423,362.779 565.966,367.236 
				560.638,368.815 561.229,366.216 553.521,366.122 565.872,362.964 568.003,347.044 			"/>
			<path fill="#F7941E" d="M555.247,346.245l-16.861,0.853l-1.803,4.888l-1.201-4.63l-3.842,0.101l-4.889-3.228l1.686-0.635
				l-7.133-6.188l11.879,5.812l19.492-0.317C552.575,342.898,556.909,344.812,555.247,346.245z"/>
			<path fill="#3B3444" d="M565.179,296.309c0,0,13.808-0.053,19.072,3.844c5.264,3.896,10.738,11.793,10.002,19.584
				c-0.736,7.79-17.268,16.741-21.479,17.899c0,0-1.791-0.423-0.211,2.736c1.58,3.158,0.211,5.417,0.211,5.417s-5.056,2.89-7.056,0
				c-2-2.891-8.354-6.049-8.354-6.049s0.276,7.489-3.137,6.557c0,0-1.57-3.234-3.89-3.362c0,0-2.309-6.037-2.836-8.354
				c-0.524-2.315-12.983-7.732-20.971-29.602L565.179,296.309z"/>
			<path fill="#3B3444" d="M601.038,321.734l-7.625-7.985l-12.543-16.204c0,0-8.412-21.611,3.275-39.3
				c18.416-27.875,46.645-13.479,46.645-13.479s-20.848-1.896-31.377,5.687c0,0,18.529-8.002,28.533,4.001
				c0,0-17.49-6.422-26.908,5.581c0,0,7.078,0.734,6.674,5.58c0,0,5.072,0.525,4.439,6.212c0,0,10.004,3.238,1.844,15.097
				c0,0,5.104,4.276,6.16,11.121c0,0-3.687-3.264-6.635-3.159c0,0,2.737,8.339,2.526,17.121c0,0-4.772-6.274-8.336-7.117
				c0,0,3.81,6.316,0.967,13.16c0,0-3.791-7.686-8.635-8.738L601.038,321.734z"/>
			<path fill="#494254" d="M582.573,316.187c0,0,6.58,6.585,5.727,11.763h-6.945l2.683,2.495h-5.484l0.609,3.168
				c0,0-18.767,3.047-28.271-16.694l19.375-10.967L582.573,316.187z"/>
			<path fill="#F7941E" d="M545.491,307.205c0,0-1.566,9.477,4.961,12.003l3.896-2.422l3.017,1.159l3.272-3.265l4.66,0.525
				l1.744-2.738l2.914,0.263l1.027-3.209c0,0,5.581,4.055,3.579,12.661c0,0,3.455-0.236,5.15-5.923c0,0,3.379,6.962,3.273,10.063
				c0,0,3.58-4.797,2.735-10.063c0,0,4.636,4.844,5.16,11.688c0,0,4.685-7.792,1.922-16.795
				c-2.764-9.002-9.672-16.697-25.539-14.798L545.491,307.205z"/>
			<path fill="#BE1E2D" d="M540.04,269.783c0,0,6.926-1.015,5.984-4.204c-0.927-3.129-3.572-1.781-3.572-1.781
				s-1.699-0.775-1.728,0.977c0,0-4.252-1.99-3.305,1.97c0,0-2.346,0.373-1.893,2.563L540.04,269.783z"/>
			<path fill="#494254" d="M536.663,269.193c0,0,5.338-0.899,7.836,0.964c2.494,1.863,1.287-1.445,6.271,14.134
				c4.983,15.579,16.807,11.596,16.807,11.596s-1.963,3.475-5.438,3.317v5.686h-6.477l-4.234,5.054l-5.082-3.315l-4.896,3.315
				l-4.533-3.139l-4.469,3.139l-3.961-4.949l-2.517,1.16c0,0-2.5-5.226-1.633-13.831c0.867-8.606,7.59-13.738,8.586-15.742
				C533.921,274.578,534.985,269.839,536.663,269.193z"/>
			<path fill="#BE1E2D" d="M539.46,268.979c0,0,7.432,3.519,3.389,6.854c0,0,2.629,0.634,1.521,2.315
				c-1.107,1.685-9.271-0.571-12.291-0.394c0,0,0.254-6.341,1.752-6.563C535.327,270.968,535.085,268.197,539.46,268.979z"/>
			<path fill="#F7941E" d="M536.296,269.413c0,0,0.799,1.459-0.18,2.868l-4.699-2.239
				C531.417,270.042,533.72,267.662,536.296,269.413z"/>
		</g>
	</g>
</g>
</svg>
