<?xml version="1.0" encoding="utf-8"?>
<!-- Generator: Adobe Illustrator 16.0.0, SVG Export Plug-In . SVG Version: 6.00 Build 0)  -->
<!DOCTYPE svg PUBLIC "-//W3C//DTD SVG 1.1//EN" "http://www.w3.org/Graphics/SVG/1.1/DTD/svg11.dtd">
<svg version="1.1" xmlns="http://www.w3.org/2000/svg" xmlns:xlink="http://www.w3.org/1999/xlink" x="0px" y="0px"
	 width="930.35px" height="441.49px" viewBox="0 0 930.35 441.49" enable-background="new 0 0 930.35 441.49" xml:space="preserve">
<g id="Layer_2">
	<g opacity="0.2">
		<g>
			<path fill="#8ADAE2" d="M819.757,190.693c-22.472-74.209-100.636-102.826-189.421-85.264S485.727,41.071,383.978,57.197
				C245.94,79.074,257.959,170.916,169.419,175.293S86.667,253.762,42.583,288.741c-66.988,53.152,14.106,86.296,42.131,86.296
				h21.774c-0.006-0.23-0.018-0.46-0.018-0.691c0-2.314,0.313-4.556,0.889-6.688c-3.375,0.493-6.147-0.069-6.147-0.069
				c1.154-3.941,3.227-6.348,5.543-7.797c-6.272-1.608-10.555-6.605-10.555-6.605c8.822-6.359,16.399-2.568,20.495,0.692
				c4.281-3.222,9.605-5.132,15.375-5.132c0.119,0,0.236,0.008,0.354,0.009c1.558-7.089,7.826-11.708,7.826-11.708
				c3.281,5.343,3.223,10.022,1.908,13.767c1.406,0.604,2.745,1.331,4.007,2.166c2.739-4.771,6.468-8.896,10.911-12.1
				c-4.856-6.373-1.957-15.156-1.957-15.156c3.904,1.662,6.184,4.052,7.47,6.593c0.792-8.229,8.171-13.78,8.171-13.78
				c1.659,2.64,2.511,5.127,2.803,7.431c2.306-1.536,4.283-2.212,4.283-2.212c1.035,4.128,0.5,7.396-0.757,9.958
				c0.814-0.052,1.633-0.087,2.461-0.087c9.098,0,17.452,3.164,24.039,8.441c2.263-4.947,5.255-9.49,8.854-13.479
				c-6.865-3.052-11.127-8.866-11.127-8.866c6.783-4.144,12.74-4.169,17.544-2.575c-4.254-7.998-2.456-17.363-2.456-17.363
				c9.959,2.791,13.856,9.305,15.239,15.269c1.424-0.587,2.876-1.121,4.36-1.584c2.179-5.842,7.184-9.53,7.184-9.53
				c1.638,2.667,2.44,5.167,2.674,7.471c1.961-0.22,3.951-0.344,5.97-0.344c1.731,0,3.441,0.089,5.13,0.252
				c0.626-5.071,2.231-9.835,4.627-14.101c-12.629-7.763-9.379-24.723-9.379-24.723c10.686,2.994,14.396,10.273,15.503,16.563
				c0.098-0.1,0.192-0.203,0.291-0.302c-1.352-8.798,5.495-16.256,5.495-16.256c2.813,3.054,4.189,6.104,4.674,8.974
				c5.153-2.549,10.954-3.988,17.092-3.988c6.532,0,12.682,1.628,18.075,4.492c1.681-6.071,8.354-8.768,8.354-8.768
				c1.81,5.858-0.43,9.774-3.013,12.194c5.775,4.412,10.271,10.412,12.826,17.354c3.477-0.717,7.078-1.096,10.768-1.096
				c1.708,0,3.396,0.089,5.062,0.246c-3.209-9.796,4.916-18.652,4.916-18.652c6.971,7.569,5.168,15.118,2.633,19.928
				c0.672,0.164,1.338,0.344,2,0.533c3.188-6.151,11.074-7.295,11.074-7.295c0.289,4.796-1.417,7.958-3.647,10.038
				c5.904,2.701,11.228,6.446,15.729,11.012c4.467-4.475,10.028-7.852,16.245-9.711c-3.479-5.194-2.027-11.962-2.027-11.962
				c6.603,2.008,8.746,6.624,9.301,10.529c1.251-0.122,2.52-0.188,3.804-0.188c3.218,0,6.341,0.4,9.33,1.142
				c4.146-9.215,15.84-10.511,15.84-10.511c0.157,5.853-1.822,9.833-4.491,12.538c3.093-0.264,5.531,0.313,5.531,0.313
				c-0.633,1.929-1.483,3.467-2.466,4.692c7.699,6.015,13.055,14.881,14.479,25.015c6.925,0.192,13.52,1.704,19.536,4.307
				c1.059-4.042,2.584-7.894,4.512-11.499c-8.517-6.718-5.85-19.117-5.85-19.117c6.934,2.109,10.104,6.416,11.465,10.676
				c0.063-0.078,0.124-0.161,0.188-0.239c-1.387-9.157,7.402-15.468,7.402-15.468c1.345,2.25,2.037,4.361,2.282,6.318
				c6.957-5.097,15.202-8.532,24.156-9.739c-4.698-6.82-2.762-15.825-2.762-15.825c5.255,1.599,8.345,4.461,10.129,7.607
				c1.026-6.474,5.459-11.309,5.459-11.309c6.864,7.452,5.223,14.889,2.751,19.707c0.851,0.136,1.696,0.291,2.533,0.467
				c1.493-12.717,12.299-22.585,25.417-22.585c14.036,0,25.43,11.299,25.592,25.298c0.316-0.008,0.63-0.024,0.947-0.024
				c2.916,0,5.753,0.334,8.484,0.946c-0.994-6.297,4.543-11.195,4.543-11.195c3.843,5.163,2.438,9.763,0.577,12.722
				c0.454,0.171,0.906,0.346,1.352,0.532c4.805-11.508,19.217-10.337,19.217-10.337c-1.526,9.172-7.44,12.679-12.516,13.976
				c5.962,4.047,10.724,9.721,13.667,16.38c3.427-0.996,7.046-1.541,10.795-1.541c13.633,0,25.605,7.071,32.476,17.739
				c2.28-2.158,4.749-4.117,7.385-5.847c-12.222-7.857-9.023-24.51-9.023-24.51c6.2,1.737,10.044,4.921,12.403,8.515
				c1.02-2.656,2.201-4.379,2.201-4.379c5.789,4.741,6.759,10.15,6.119,14.619c3.995-1.384,8.203-2.305,12.566-2.695
				c-2.806-3.163-3.426-7.332-3.426-7.332c3.244-0.204,5.633,0.638,7.397,1.928c-0.874-7.199,3.535-13.621,3.535-13.621
				c6.169,5.054,6.866,10.865,5.974,15.487c2.746-3.857,7.553-5.195,7.553-5.195c0.931,4.89-0.818,8.104-3.03,10.168
				c12.512,3.208,23.232,10.872,30.392,21.193c4.694-5.474,11.656-8.945,19.432-8.945c0.049,0,0.097,0.003,0.145,0.004
				c1.073-7.745,8.037-12.873,8.037-12.873c3.582,5.834,3.185,10.877,1.515,14.774c1.192,0.489,2.34,1.063,3.435,1.718
				c4.506-5.639,12.461-3.638,12.461-3.638c-1.355,4.628-4.41,6.722-7.383,7.625c4.568,4.623,7.391,10.976,7.391,17.989
				c0,0.99-0.063,1.967-0.172,2.928h43.749C1014.985,325.465,842.229,264.902,819.757,190.693z"/>
		</g>
	</g>
</g>
<g id="Layer_3">
	<g>
		<path fill="#F4A134" d="M392.7,123.435c0,0-2.797,1.761,0.245,3.868c0,0-1.633,1.078-0.709,2.231s1.782,1.955,1.782,1.955
			L392.7,123.435z"/>
		<path fill="#494254" d="M581.058,386.81c0,0-0.89,5.36,10.631,4.455c16.331-1.282,34.017-18.074,36.299-22.746l0.295-2.953
			c0,0-0.678-3.945-8.885-3.379C611.189,362.753,588.777,375.644,581.058,386.81z"/>
		<path fill="#494254" d="M500.083,370.761c0,0-2.984,0.352-2.984,0.79s0.55,2.281,0.55,2.281s45.706,1.522,54.483-3.041v-3.335
			L500.083,370.761z"/>
		<path fill="#FBB040" d="M529.806,345.738c0,0,2.554,4.221-10.474,9.477c-14.688,5.926-22.233,10.604-21.729,13.981
			c0.438,2.934,7.104,1.877,16.074,1.176s15.471-1.239,22.202-1.652s9.283,0.591,12.919-1.239
			c4.026-2.026,0.472-10.581-0.912-15.041s-0.679-11.285-0.679-11.285L529.806,345.738z"/>
		<path fill="#FBB040" d="M603.129,350.133c0,0,3.374,8.8-7.44,17.767c-10.815,8.965-12.91,12.617-13.636,17.84
			c-0.624,4.498,12.29,3.186,18.414,1.321c6.123-1.865,9.791-7.146,15.335-10.986c5.543-3.841,7.391-3.942,9.528-7.406
			c2.259-3.661-2.737-7.374-4.121-11.834s-0.679-11.285-0.679-11.285L603.129,350.133z"/>
		<path fill="#303860" d="M539.025,211.27c0,0-15.48,45.869-18.965,58.045c-3.484,12.176,8.295,51.775,8.729,66.503
			c0.186,6.3-1.763,12.253-1.763,12.253s11.354,5.002,19.005,0.573c5.348-3.096,0.73-13.188,4.152-20.134
			c3.42-6.945-3.232-40.762-2.142-47.273c1.092-6.513,25.975-48.757,26.569-62.984C575.206,204.027,539.025,211.27,539.025,211.27z"
			/>
		<path fill="#3B466B" d="M557.814,214.656c0,0-1.373,13.343,0,28.194c1.529,16.55,5.84,34.1,6.2,40.765
			c0.681,12.647,25.613,39.6,31.634,52.225c5.375,11.272,6.707,16.857,6.707,16.857s16.332,4.187,19.022-4.234
			c2.692-8.422-5.479-22.216-8.722-32.96c-3.163-10.479-17.207-23.242-18.303-29.754c-1.094-6.512,6.507-63.433,2.425-77.074
			C592.695,195.035,557.814,214.656,557.814,214.656z"/>
		<path fill="#EF4136" d="M535.879,189.716c3.7,5.566,0,23.051,0,23.051s13.162,18.564,34.45,5.486
			c24.185-14.856,24.169-16.713,24.169-16.713l2.28-19.941L535.879,189.716z"/>
		<path fill="#EF4136" d="M576.532,138.825c-7.885-13.227-20.014-26.283-24.43-27.531c-28.355-8.027-56.715,8.013-52.147,20.112
			c1.551,4.11,27.706,45.067,35.924,58.311c6.483,10.453,36.35,7.627,36.35,7.627l25.899-7.627
			C595.862,179.797,583.344,150.251,576.532,138.825z"/>
		<path fill="#FBB040" d="M568.368,145.479c6.757,5.167,23.833,21.982,22.423,26.331c-2.217,6.829-7.415,44.721-7.415,44.721
			l11.015,15.072l-0.811-11.548c0,0,16.118-46.191,18.209-54.165c1.052-4.01,1.414-4.396-0.461-7.557
			c-2.153-3.633-27.757-30.572-27.757-30.572L568.368,145.479z"/>
		<path fill="#EF4136" d="M516.119,132.16c0.782,7.62,0.078,11.347-11.61,16.731c-14.255,6.564-17.016,10.188-17.016,10.188
			s-11.366-9.257-12.306-22.007c9.811-4.567,20.39-13.891,28.353-16.591C511.118,121.004,515.336,124.542,516.119,132.16z"/>
		<path fill="#FBB040" d="M475.948,137.353c0,0,11.755,7.025,11.793,16.92c0.013,3.284-21.33,11.656-27.04,12.615
			c-3.961,0.667-3.608,0.935-4.445,0.851c-0.837-0.085-36.933-13.246-39.86-16.11c-2.928-2.866,0.87-12.063,7.886-10.532
			c0,0,26.461,8.727,30.032,8.919C457.886,150.209,467.654,141.679,475.948,137.353z"/>
		<path fill="#FBB040" d="M416.396,151.629c-2.496-1.057-11.599-8.848-10.658-15.762c0.942-6.914,1.481-6.968,1.481-6.968
			s-2.512,0.799-3.158,1.136c-0.649,0.338-3.405,0.582-3.405,0.582s-2.322-0.04-3.269-1.307c-0.947-1.27,5.214-2.931,5.214-2.931
			l8.53-1.979l6.119,1.171c0,0,5.209,10.053,6.247,15.408C424.534,146.333,416.396,151.629,416.396,151.629z"/>
		<path fill="#FBB040" d="M405.664,128.353c0,0-3.873,4.89-3.708,6.509c0.162,1.62,1.197,2.423,0.85,3.028
			c-0.349,0.605,0.731,1.861,1.232,2.765c0.501,0.902,6.417,4.127,6.417,4.127l-1.686-16.742L405.664,128.353z"/>
		<path fill="#FFE0B6" d="M525.568,109.786c0,0-31.41,10.087-24.427,65.286l18.529,1.4c0,0-7.422-50.012-2.714-54.323
			L525.568,109.786z"/>
		<path fill="#EF4136" d="M542.147,116.563c-1.79,3.692,2.466,22.342,18.747,27.115c8.409,2.465,8.679,7.079,8.679,7.079
			s13.685-0.665,17.627-20.064C587.2,130.692,551.646,96.979,542.147,116.563z"/>
		<path fill="#FFE0B6" d="M530.741,104.468c0,0,15.955,1.349,19.738,18.269c4.32,19.328,2.114,32.232,1.041,46.976l-14.881,2.622
			c0,0,7.421-50.011,2.715-54.322L530.741,104.468z"/>
		<path fill="#F4A134" d="M527.615,93.654c0,0,7.685,19.302,11.739,24.358c1.175,1.467-6.57,13.177-14.343,12.712
			c-8.302-0.497-15.659-13.725-15.89-21.416C511.069,100.565,527.615,93.654,527.615,93.654z"/>
		<path fill="#FBB040" d="M490.287,64.457c-8.822,3.384-4.603,17.75-4.428,33.634c0.184,16.873,9.057,25.971,18.059,24.729
			c15.466-2.133,17.138-12.599,22.005-23.547C535.998,76.606,531.817,48.523,490.287,64.457z"/>
		<path fill="#414042" d="M485.291,87.31c-2.06-0.079-6.473-1.729-5.243-6.852c1.227-5.122,0.002-3.393-0.846-8.831
			c-0.847-5.438-1.879-7.434,3.254-8.189s8.876-1.8,13.617-6.628c4.741-4.829,15.929-9.701,21.009-4.359
			c5.076,5.343,7.711,5.615,12.397,5.739c4.684,0.123,10.38,4.547,8.452,9.603c-1.929,5.055-2.489,8.048-1.419,11.095
			c1.068,3.05,2.303,4.158-0.73,7.502c-3.034,3.344-3.944,3.864-3.748,6.473c0.196,2.608-5.489,4.957-5.489,4.957
			s3.06-14.399-3.109-12.908c-6.168,1.492-4.304,3.577-4.304,3.577l-3.709-0.756l2.127-8.719c0,0-5.583-1.028-10.382-4.544
			c-4.798-3.514-7.091-6.153-10.81-2.158C492.636,76.31,489.811,87.482,485.291,87.31z"/>
		<g>
			<path fill="#DA1C5C" d="M501.194,114.41c-0.186,0-0.371-0.014-0.557-0.042c-2.164-0.337-3.328-2.551-3.377-2.646
				c-0.212-0.41-0.05-0.913,0.36-1.124c0.409-0.21,0.91-0.05,1.122,0.358c0.019,0.036,0.845,1.565,2.157,1.764
				c0.846,0.126,1.781-0.322,2.789-1.334c0.325-0.327,0.853-0.328,1.18-0.002c0.326,0.326,0.327,0.854,0.003,1.18
				C503.649,113.791,502.415,114.41,501.194,114.41z"/>
		</g>
		<path fill="#494254" d="M500.154,365.041c0,0,27.13,1.584,30.318,4.881l6.54-0.846c0,0-20.24-5.469-35.753-4.893L500.154,365.041z
			"/>
		<path fill="#494254" d="M586.116,384.679l-1.056-6.42l1.631-2.014l0.482,7.303c0,0,21.859-8.139,31.961-9.645l-2.066,3.057
			C617.068,376.96,595.172,381.31,586.116,384.679z"/>
		<g>
			<path fill="#3B3444" d="M395.851,142.216c-1.08,0-2.02-0.882-2.088-1.96l-2.189-34.648c-0.067-1.078,0.76-1.96,1.84-1.96h18.424
				c1.081,0,2.02,0.882,2.088,1.96l2.189,34.648c0.067,1.078-0.76,1.96-1.84,1.96H395.851z"/>
			<path fill="#7AC6D2" d="M396.576,138.912c-0.54,0-1.011-0.441-1.044-0.98l-1.896-29.999c-0.034-0.54,0.38-0.98,0.92-0.98h16.559
				c0.539,0,1.009,0.441,1.043,0.98l1.896,29.999c0.033,0.539-0.38,0.98-0.92,0.98H396.576z"/>
			<path fill="#414042" d="M398.193,105.445c0.022,0.337-0.234,0.61-0.57,0.61c-0.338,0-0.628-0.273-0.65-0.61
				c-0.021-0.337,0.234-0.61,0.572-0.61C397.881,104.835,398.173,105.108,398.193,105.445z"/>
			<path fill="#414042" d="M408.507,105.445c0.022,0.337-0.235,0.61-0.571,0.61c-0.337,0-0.628-0.273-0.648-0.61
				c-0.022-0.337,0.234-0.61,0.571-0.61S408.486,105.108,408.507,105.445z"/>
			<path fill="#414042" d="M405.013,105.445c0.006,0.115-0.082,0.209-0.196,0.209h-4.127c-0.114,0-0.213-0.094-0.222-0.209l0,0
				c-0.007-0.115,0.08-0.208,0.196-0.208h4.125C404.906,105.237,405.005,105.33,405.013,105.445L405.013,105.445z"/>
			<path fill="#3B3444" d="M414.869,115.292c0.01,0.182-0.128,0.329-0.31,0.329l0,0c-0.182,0-0.339-0.147-0.351-0.329l-0.321-5.083
				c-0.012-0.182,0.126-0.33,0.308-0.33l0,0c0.183,0,0.34,0.147,0.351,0.33L414.869,115.292z"/>
			<path fill="#3B3444" d="M415.159,119.889c0.012,0.182-0.126,0.33-0.309,0.33l0,0c-0.182,0-0.339-0.148-0.351-0.33l-0.151-2.407
				c-0.012-0.182,0.126-0.329,0.308-0.329l0,0c0.182,0,0.339,0.147,0.351,0.329L415.159,119.889z"/>
			<path fill="#A0EEF2" d="M409.873,129.715h-10.566c-0.245-4.011,1.211-7.385,3.409-8.369c-1.609-0.561-2.831-2.06-2.939-3.828
				c-0.138-2.245,1.57-4.064,3.815-4.064s4.177,1.82,4.315,4.064c0.108,1.768-0.929,3.267-2.47,3.828
				C407.756,122.331,409.626,125.704,409.873,129.715z"/>
		</g>
		<path fill="#FBB040" d="M420.251,132.417c0,0-3.346-4.185-7.306-7.021c-1.778-1.273-9.495-0.813-9.58,0.264
			c-0.229,2.901,2.094,1.403,6.108,4.693c1.368,1.122,2.176,5.045,2.843,6.057c0.984,1.494,3.733,4.644,5.812,4.546L420.251,132.417
			z"/>
	</g>
	<g>
		<polygon fill="#F7941E" points="361.072,339.773 362.434,353.778 358.44,357.399 362.434,356.285 366.891,360.742 
			372.218,362.321 371.627,359.722 379.335,359.628 366.984,356.47 364.854,340.55 		"/>
		<path fill="#F7941E" d="M378.118,340.347l9.854,13.709l-2.693,4.458l4.365-1.95l2.321,3.064l5.572,1.808l-0.557-1.714l9.287,1.714
			l-11.953-5.657L382.4,340.347C382.4,340.347,378.201,338.153,378.118,340.347z"/>
		<path fill="#3B3444" d="M367.678,289.814c0,0-13.808-0.053-19.073,3.843c-5.264,3.896-10.739,11.793-10.002,19.584
			c0.737,7.791,17.268,16.742,21.479,17.9c0,0,1.79-0.423,0.21,2.736c-1.58,3.158-0.21,5.417-0.21,5.417s5.053,2.89,7.054,0
			c2-2.89,8.355-6.049,8.355-6.049s-0.038,5.61,1.753,7.333c0,0,2.948-1.226,6.317,0.986c0,0,1.264-11.162,1.791-13.479
			c0.526-2.315,12.894-7.555,20.879-29.423L367.678,289.814z"/>
		<path fill="#3B3444" d="M331.817,315.241l7.626-7.986l12.542-16.204c0,0,8.413-21.611-3.274-39.3
			c-18.417-27.875-46.644-13.478-46.644-13.478s20.848-1.896,31.377,5.686c0,0-18.531-8.002-28.534,4.001
			c0,0,17.489-6.422,26.907,5.581c0,0-7.078,0.735-6.674,5.58c0,0-5.071,0.526-4.439,6.212c0,0-10.003,3.239-1.843,15.097
			c0,0-5.106,4.276-6.16,11.121c0,0,3.686-3.264,6.633-3.159c0,0-2.737,8.339-2.527,17.121c0,0,4.773-6.274,8.335-7.117
			c0,0-3.809,6.316-0.966,13.16c0,0,3.791-7.685,8.634-8.738L331.817,315.241z"/>
		<path fill="#494254" d="M350.283,309.692c0,0-6.581,6.585-5.727,11.762h6.945l-2.681,2.495h5.483l-0.609,3.168
			c0,0,18.766,3.047,28.271-16.694l-19.375-10.967L350.283,309.692z"/>
		<path fill="#F7941E" d="M387.365,300.711c0,0,1.567,9.477-4.96,12.003l-3.896-2.422l-3.017,1.159l-3.274-3.264l-4.66,0.525
			l-1.744-2.738l-2.915,0.262l-1.027-3.209c0,0-5.581,4.055-3.58,12.662c0,0-3.455-0.237-5.149-5.923c0,0-3.379,6.962-3.273,10.062
			c0,0-3.58-4.797-2.737-10.062c0,0-4.633,4.844-5.16,11.688c0,0-4.684-7.792-1.921-16.795c2.763-9.002,9.671-16.697,25.538-14.798
			L387.365,300.711z"/>
		<path fill="#BE1E2D" d="M392.817,263.289c0,0-6.927-1.014-5.984-4.204c0.924-3.129,3.572-1.781,3.572-1.781
			s1.699-0.775,1.726,0.977c0,0,4.252-1.991,3.304,1.969c0,0,2.346,0.373,1.892,2.564L392.817,263.289z"/>
		<path fill="#494254" d="M396.194,262.7c0,0-5.339-0.9-7.836,0.963c-2.495,1.864-1.287-1.445-6.271,14.134
			s-16.807,11.596-16.807,11.596s1.963,3.475,5.438,3.317v5.686h6.476l4.236,5.054l5.082-3.316l4.896,3.316l4.534-3.139l4.469,3.139
			l3.96-4.95l2.515,1.16c0,0,2.5-5.225,1.632-13.831c-0.867-8.606-7.588-13.738-8.585-15.742
			C398.936,268.084,397.871,263.345,396.194,262.7z"/>
		<path fill="#BE1E2D" d="M393.396,262.484c0,0-7.433,3.518-3.389,6.854c0,0-2.629,0.634-1.52,2.316
			c1.109,1.684,9.271-0.572,12.292-0.394c0,0-0.255-6.341-1.753-6.563C397.529,264.474,397.772,261.703,393.396,262.484z"/>
		<path fill="#F7941E" d="M396.561,262.919c0,0-0.8,1.459,0.18,2.868l4.698-2.239C401.439,263.548,399.137,261.168,396.561,262.919z
			"/>
	</g>
</g>
</svg>
