<?xml version="1.0" encoding="utf-8"?>
<!-- Generator: Adobe Illustrator 16.0.0, SVG Export Plug-In . SVG Version: 6.00 Build 0)  -->
<!DOCTYPE svg PUBLIC "-//W3C//DTD SVG 1.1//EN" "http://www.w3.org/Graphics/SVG/1.1/DTD/svg11.dtd">
<svg version="1.1" id="Layer_1" xmlns="http://www.w3.org/2000/svg" xmlns:xlink="http://www.w3.org/1999/xlink" x="0px" y="0px"
	 width="930.35px" height="441.49px" viewBox="0 0 930.35 441.49" enable-background="new 0 0 930.35 441.49" xml:space="preserve">
<g>
	<g id="Layer_2">
		<g opacity="0.2">
			<g>
				<path fill="#8ADAE2" d="M819.757,190.693c-22.472-74.209-100.636-102.825-189.421-85.263
					c-88.785,17.563-144.609-64.357-246.359-48.232C245.939,79.074,257.958,170.917,169.418,175.294s-82.752,78.47-126.836,113.448
					c-66.988,53.152,14.105,86.296,42.131,86.296h21.773c-0.006-0.229-0.018-0.46-0.018-0.69c0-2.313,0.313-4.557,0.889-6.688
					c-3.375,0.493-6.146-0.069-6.146-0.069c1.154-3.94,3.227-6.348,5.543-7.797c-6.272-1.606-10.555-6.604-10.555-6.604
					c8.821-6.358,16.398-2.567,20.494,0.691c4.281-3.222,9.605-5.132,15.375-5.132c0.119,0,0.236,0.008,0.354,0.011
					c1.558-7.091,7.826-11.709,7.826-11.709c3.281,5.344,3.223,10.021,1.908,13.768c1.405,0.604,2.744,1.33,4.007,2.166
					c2.738-4.771,6.468-8.896,10.911-12.1c-4.856-6.373-1.957-15.156-1.957-15.156c3.903,1.662,6.184,4.052,7.47,6.593
					c0.792-8.229,8.171-13.78,8.171-13.78c1.659,2.641,2.511,5.127,2.803,7.432c2.307-1.535,4.283-2.213,4.283-2.213
					c1.035,4.129,0.5,7.396-0.757,9.959c0.813-0.053,1.633-0.088,2.461-0.088c9.098,0,17.452,3.164,24.039,8.441
					c2.263-4.947,5.255-9.49,8.854-13.479c-6.864-3.053-11.127-8.866-11.127-8.866c6.783-4.145,12.74-4.168,17.544-2.574
					c-4.254-7.998-2.456-17.363-2.456-17.363c9.96,2.791,13.856,9.307,15.239,15.27c1.424-0.586,2.876-1.121,4.36-1.584
					c2.179-5.842,7.184-9.529,7.184-9.529c1.639,2.666,2.44,5.166,2.674,7.471c1.962-0.22,3.951-0.344,5.971-0.344
					c1.73,0,3.44,0.089,5.13,0.252c0.626-5.071,2.23-9.835,4.627-14.102c-12.629-7.764-9.379-24.724-9.379-24.724
					c10.686,2.994,14.396,10.272,15.503,16.563c0.098-0.102,0.191-0.203,0.291-0.304c-1.353-8.798,5.495-16.256,5.495-16.256
					c2.813,3.056,4.188,6.104,4.674,8.976c5.153-2.549,10.954-3.988,17.092-3.988c6.532,0,12.683,1.628,18.075,4.492
					c1.683-6.071,8.354-8.77,8.354-8.77c1.81,5.857-0.432,9.773-3.015,12.194c5.775,4.411,10.271,10.411,12.826,17.354
					c3.479-0.717,7.078-1.096,10.77-1.096c1.708,0,3.396,0.089,5.062,0.246c-3.209-9.796,4.916-18.652,4.916-18.652
					c6.971,7.569,5.168,15.118,2.633,19.929c0.672,0.164,1.338,0.345,2,0.532c3.188-6.149,11.074-7.295,11.074-7.295
					c0.289,4.798-1.417,7.958-3.646,10.038c5.902,2.701,11.228,6.446,15.729,11.014c4.467-4.477,10.028-7.854,16.245-9.713
					c-3.479-5.193-2.027-11.962-2.027-11.962c6.604,2.009,8.746,6.624,9.302,10.529c1.252-0.122,2.521-0.188,3.805-0.188
					c3.218,0,6.341,0.399,9.33,1.143c4.146-9.215,15.84-10.512,15.84-10.512c0.157,5.854-1.822,9.834-4.491,12.537
					c3.093-0.264,5.531,0.313,5.531,0.313c-0.633,1.929-1.483,3.467-2.466,4.692c7.697,6.015,13.055,14.881,14.479,25.015
					c6.925,0.192,13.521,1.704,19.536,4.307c1.059-4.042,2.584-7.894,4.512-11.499c-8.517-6.718-5.85-19.115-5.85-19.115
					c6.934,2.107,10.104,6.416,11.465,10.676c0.063-0.078,0.124-0.161,0.188-0.239c-1.389-9.157,7.4-15.468,7.4-15.468
					c1.346,2.25,2.037,4.359,2.282,6.316c6.957-5.097,15.202-8.531,24.156-9.738c-4.698-6.819-2.764-15.824-2.764-15.824
					c5.255,1.599,8.347,4.461,10.13,7.607c1.025-6.476,5.459-11.311,5.459-11.311c6.863,7.452,5.224,14.891,2.75,19.707
					c0.853,0.137,1.696,0.291,2.533,0.467c1.493-12.717,12.299-22.584,25.417-22.584c14.036,0,25.432,11.299,25.594,25.298
					c0.314-0.009,0.63-0.023,0.945-0.023c2.916,0,5.753,0.334,8.484,0.946c-0.994-6.297,4.543-11.195,4.543-11.195
					c3.843,5.162,2.438,9.763,0.577,12.722c0.454,0.172,0.906,0.347,1.352,0.532c4.807-11.508,19.217-10.337,19.217-10.337
					c-1.524,9.172-7.438,12.679-12.516,13.977c5.962,4.048,10.724,9.722,13.667,16.38c3.427-0.996,7.046-1.541,10.795-1.541
					c13.633,0,25.605,7.07,32.478,17.738c2.278-2.157,4.749-4.116,7.385-5.847c-12.223-7.857-9.023-24.511-9.023-24.511
					c6.2,1.736,10.044,4.922,12.403,8.516c1.02-2.656,2.201-4.379,2.201-4.379c5.789,4.74,6.759,10.15,6.119,14.619
					c3.993-1.385,8.202-2.307,12.564-2.695c-2.806-3.163-3.426-7.332-3.426-7.332c3.244-0.204,5.633,0.638,7.396,1.929
					c-0.874-7.198,3.535-13.62,3.535-13.62c6.169,5.053,6.866,10.863,5.976,15.485c2.745-3.856,7.553-5.194,7.553-5.194
					c0.931,4.891-0.818,8.104-3.03,10.168c12.512,3.209,23.232,10.873,30.394,21.192c4.692-5.474,11.654-8.944,19.432-8.944
					c0.049,0,0.097,0.004,0.145,0.004c1.073-7.744,8.037-12.873,8.037-12.873c3.582,5.834,3.187,10.877,1.517,14.774
					c1.19,0.488,2.34,1.063,3.435,1.718c4.506-5.64,12.461-3.638,12.461-3.638c-1.354,4.628-4.41,6.722-7.383,7.625
					c4.568,4.623,7.391,10.976,7.391,17.987c0,0.99-0.063,1.968-0.172,2.929h43.749
					C1014.985,325.466,842.229,264.903,819.757,190.693z"/>
			</g>
		</g>
	</g>
	<g id="Layer_3">
		<g>
			<g>
				<path fill="#F4A134" d="M587.614,113.834c0,0,3.143,1.022,0.711,3.812c0,0,1.846,0.645,1.232,1.989
					c-0.609,1.346-1.247,2.332-1.247,2.332L587.614,113.834z"/>
				<path fill="#494254" d="M426.664,411.852c0,0,0.89,5.359-10.631,4.455c-16.332-1.281-34.019-18.074-36.298-22.746l-0.295-2.953
					c0,0,0.678-3.944,8.885-3.379S418.944,400.686,426.664,411.852z"/>
				<path fill="#494254" d="M507.64,395.803c0,0,2.984,0.354,2.984,0.791c0,0.438-0.551,2.28-0.551,2.28s-45.708,1.522-54.485-3.041
					v-3.335L507.64,395.803z"/>
				<path fill="#FBB040" d="M477.916,370.78c0,0-2.554,4.221,10.474,9.477c14.688,5.927,22.234,10.604,21.73,13.981
					c-0.438,2.934-7.104,1.877-16.075,1.176s-15.471-1.239-22.202-1.652c-6.731-0.412-9.285,0.592-12.919-1.238
					c-4.026-2.025-0.472-10.58,0.912-15.041c1.384-4.459,0.679-11.284,0.679-11.284L477.916,370.78z"/>
				<path fill="#FBB040" d="M404.591,375.175c0,0-3.374,8.802,7.44,17.769c10.813,8.965,12.91,12.615,13.636,17.84
					c0.624,4.498-12.29,3.186-18.414,1.32c-6.124-1.864-9.792-7.146-15.334-10.985s-7.391-3.942-9.529-7.406
					c-2.258-3.661,2.738-7.374,4.121-11.834c1.387-4.46,0.682-11.285,0.682-11.285L404.591,375.175z"/>
				<path fill="#303860" d="M468.696,236.312c0,0,15.479,45.868,18.965,58.046c3.484,12.176-8.295,51.774-8.729,66.502
					c-0.186,6.301,1.765,12.254,1.765,12.254s-11.354,5.002-19.005,0.572c-5.35-3.096-0.73-13.188-4.152-20.134
					c-3.42-6.944,3.231-40.763,2.142-47.272c-1.092-6.514-25.975-48.758-26.567-62.982
					C432.516,229.07,468.696,236.312,468.696,236.312z"/>
				<path fill="#3B466B" d="M449.907,239.699c0,0,1.373,13.342,0,28.193c-1.529,16.549-5.84,34.1-6.2,40.765
					c-0.681,12.647-25.613,39.6-31.634,52.225c-5.375,11.272-6.707,16.857-6.707,16.857s-16.333,4.187-19.022-4.234
					c-2.691-8.422,5.479-22.216,8.723-32.96c3.163-10.479,17.208-23.24,18.303-29.754c1.094-6.512-6.507-63.434-2.425-77.072
					C415.026,220.077,449.907,239.699,449.907,239.699z"/>
				<path fill="#EF4136" d="M413.165,173.824c4.401-14.756,12.959-30.388,16.935-32.681c25.521-14.733,56.95-6.137,55.488,6.713
					c-0.496,4.364-15.813,50.483-20.534,65.339c-2.223,6.304,5.653,22.348,5.653,22.348s-8.21,21.227-32.054,13.766
					c-27.089-8.475-31.083-9.448-31.083-9.448s-2.017-3.635-2.864-11.401C403.856,220.691,409.361,186.57,413.165,173.824z"/>
				<path fill="#EF4136" d="M470.101,152.553c1.109,7.578,2.706,11.02,15.357,13.373c15.429,2.869,18.994,5.705,18.994,5.705
					s8.75-11.761,6.535-24.353c-10.633-2.022-23.174-8.469-31.558-9.133C472.213,140.51,468.992,144.974,470.101,152.553z"/>
				<path fill="#FBB040" d="M510.319,147.737c0,0-9.677,9.692-7.286,19.296c0.794,3.188,23.538,6.071,29.308,5.601
					c4.004-0.323,3.729,0.021,4.52-0.266c0.791-0.286,32.559-21.896,34.693-25.39c2.139-3.496-3.801-11.482-10.227-8.278
					c0,0-23.517,14.947-26.93,16.011C530.981,155.773,519.421,149.898,510.319,147.737z"/>
				<path fill="#FBB040" d="M571.554,146.978c2.16-1.639,9.076-11.422,6.467-17.896c-2.605-6.473-3.143-6.392-3.143-6.392
					s2.631,0.159,3.34,0.326c0.711,0.169,3.443-0.271,3.443-0.271s2.242-0.606,2.85-2.066c0.605-1.463-5.771-1.564-5.771-1.564
					l-8.756,0.174l-5.576,4.689c0,0-2.652,8.97-2.348,14.415C562.366,143.838,571.554,146.978,571.554,146.978z"/>
				<path fill="#FBB040" d="M576.251,121.78c0,0,4.953,3.792,5.191,5.401s-0.566,2.643-0.082,3.145
					c0.486,0.501-0.252,1.983-0.518,2.982c-0.266,0.998-5.211,5.573-5.211,5.573l-2.471-16.644L576.251,121.78z"/>
				<path fill="#EF4136" d="M450.655,146.563c0.559,4.063-9.266,20.479-26.225,19.977c-8.759-0.26-11.465,3.058-11.465,3.058
					s-1.869-1.854-2.907-3.845c-2.111-4.052,1.962-12.344-4.712-19.343c-0.117-0.124,0.193,0.112,0.594-0.865
					C405.94,145.545,447.686,125.001,450.655,146.563z"/>
				<path fill="#494254" d="M507.567,390.083c0,0-27.132,1.584-30.318,4.881l-6.54-0.846c0,0,20.24-5.47,35.753-4.894
					L507.567,390.083z"/>
				<path fill="#494254" d="M421.604,409.721l1.057-6.421l-1.631-2.014l-0.482,7.303c0,0-21.859-8.139-31.961-9.645l2.066,3.057
					C390.652,402.002,412.548,406.352,421.604,409.721z"/>
				<g>
					<path fill="#3B3444" d="M568.976,132.528c-1.08,0.037-2.049-0.813-2.148-1.89l-3.333-34.557
						c-0.104-1.075,0.697-1.983,1.773-2.02l18.414-0.608c1.078-0.033,2.048,0.814,2.152,1.891l3.33,34.559
						c0.102,1.074-0.695,1.982-1.773,2.019L568.976,132.528z"/>
					<path fill="#7AC6D2" d="M569.591,129.204c-0.541,0.019-1.023-0.407-1.076-0.944l-2.883-29.922
						c-0.053-0.537,0.35-0.994,0.887-1.011l16.552-0.546c0.539-0.02,1.021,0.408,1.072,0.946l2.887,29.921
						c0.051,0.537-0.35,0.991-0.889,1.01L569.591,129.204z"/>
					<path fill="#414042" d="M570.104,95.703c0.031,0.334-0.217,0.616-0.553,0.627c-0.336,0.011-0.637-0.252-0.668-0.588
						c-0.033-0.339,0.213-0.619,0.551-0.63C569.772,95.102,570.073,95.364,570.104,95.703z"/>
					<path fill="#414042" d="M580.413,95.362c0.033,0.336-0.215,0.616-0.551,0.628c-0.338,0.011-0.639-0.253-0.668-0.588
						c-0.033-0.336,0.213-0.618,0.551-0.629C580.081,94.762,580.38,95.025,580.413,95.362z"/>
					<path fill="#414042" d="M576.919,95.477c0.012,0.113-0.074,0.21-0.188,0.215l-4.127,0.137
						c-0.113,0.004-0.217-0.087-0.229-0.202l0,0c-0.01-0.115,0.072-0.212,0.191-0.216l4.122-0.136
						C576.808,95.27,576.909,95.362,576.919,95.477L576.919,95.477z"/>
					<path fill="#3B3444" d="M587.095,104.992c0.02,0.183-0.117,0.336-0.299,0.341l0,0c-0.18,0.007-0.344-0.138-0.359-0.317
						l-0.486-5.069c-0.021-0.185,0.111-0.334,0.295-0.34l0,0c0.184-0.005,0.346,0.136,0.359,0.316L587.095,104.992z"/>
					<path fill="#3B3444" d="M587.538,109.577c0.018,0.183-0.115,0.334-0.299,0.34l0,0c-0.184,0.007-0.344-0.136-0.361-0.317
						l-0.229-2.403c-0.02-0.178,0.113-0.329,0.297-0.336l0,0c0.182-0.005,0.342,0.136,0.359,0.314L587.538,109.577z"/>
					<g>
						<g>
							<g>
								<defs>
									<path id="SVGID_1_" d="M569.591,129.204c-0.541,0.019-1.023-0.407-1.076-0.944l-2.883-29.922
										c-0.053-0.537,0.35-0.994,0.887-1.011l16.552-0.546c0.539-0.02,1.021,0.408,1.072,0.946l2.887,29.921
										c0.051,0.537-0.35,0.991-0.889,1.01L569.591,129.204z"/>
								</defs>
								<clipPath id="SVGID_2_">
									<use xlink:href="#SVGID_1_"  overflow="visible"/>
								</clipPath>
								<g clip-path="url(#SVGID_2_)">
									<path fill="#3B466B" d="M566.231,124.481c0,0,5.058-4.252,6.896-4.46s13.519-0.563,13.519-0.563l1.163,11.048
										l-18.927,0.737L566.231,124.481z"/>
									<path fill="#F49389" d="M576.662,111.292c-1.742,2-1.999,11.716-1.514,12.888c3.296,1.741,7.785-4.587,7.596-5.108
										c-1.094-2.963,0.944-9.238,0.944-9.238S578.406,109.293,576.662,111.292z"/>
									<path fill="#FFAFA4" d="M583.381,112.545c-2.412,2.604-3.883,5.375-8.421,4.492c-2.642-0.515-4.256-3.914-2.693-8.66
										c1.475-4.467,1.666-8.896,4.461-9C589.893,98.889,588.373,107.158,583.381,112.545z"/>
									<path fill="#EF4136" d="M578.577,98.389c11.077,0.867,9.063,7.205,7.924,10.279c-1.137,3.073-3.12,3.876-3.12,3.876
										c0.964-1.02,1.934-3.688,1.155-4.153c-0.776-0.462-0.889,0.163-0.889,0.163s-0.235,1.341-1.188,1.884
										c0,0-0.533-2.126,0.606-3.271c0,0,0.303-3.161-2.808-1.751c-3.104,1.408-7.912,3.363-9.062,0.737
										c0,0,1.767-0.376,1.228-2.921C571.886,100.688,575.751,97.414,578.577,98.389z"/>
									<path fill="#EF4136" d="M584.993,111.269c-0.58,0.782-4.095,1.199-3.626,6.468c0.24,2.705-3.635,6.216-3.302,5.925
										c-2.952,2.582,0.582,2.213,0.774,4.408c0.232,2.642,2.021,4.536,3.943,3.375c1.921-1.162,1.142-4.175,1.191-5.162
										c0.053-0.987,6.563,0.124,5.552-4.182c-0.909-3.875-3.267-3.547-3.005-6.461c0.262-2.916,1.177-8.53,0.867-11.671
										C586.915,99.127,584.993,111.269,584.993,111.269z"/>
									
										<ellipse transform="matrix(-0.9772 -0.2125 0.2125 -0.9772 1132.7527 342.7681)" fill="#3B3444" cx="584.8" cy="110.498" rx="2.973" ry="3.891"/>
									<path fill="#3B3444" d="M584.836,107.344c0,0,3.471-7.608-6.259-8.953c0,0,1.125-0.224,2.104,0
										c0.981,0.223,7.435,0.946,6.068,9.891L584.836,107.344z"/>
									<polygon fill="#3B3444" points="582.533,112.717 577.747,115.376 577.859,115.991 583.712,113.669 									"/>
									<g>
										<path fill="#DA1C5C" d="M574.946,115.387c1.079,0.313,1.641-0.945,1.669-0.971c0.126-0.106,0.14-0.297,0.032-0.423
											c-0.108-0.126-0.844-0.024-1.307-0.135c-0.299-0.074-1.06-0.646-1.211-0.582c-0.153,0.063-0.225,0.239-0.162,0.392
											C574.081,114.285,574.146,115.098,574.946,115.387z"/>
									</g>
								</g>
							</g>
						</g>
					</g>
				</g>
				<path fill="#FBB040" d="M563.106,129.297c0,0,2.217-4.877,5.359-8.598c1.41-1.67,9.006-3.115,9.354-2.092
					c0.932,2.756-1.688,1.873-4.771,6.047c-1.051,1.423-0.873,5.425-1.27,6.57c-0.588,1.688-2.482,5.416-4.521,5.832
					L563.106,129.297z"/>
				<path fill="#FBB040" d="M379.24,168.93c0.84,0.039,0.516-0.033,4.498,0.489c5.738,0.759,28.6-0.979,29.551-4.124
					c2.868-9.474-6.31-19.638-6.31-19.638c-9.197,1.704-18.683,3.833-22.441,5.914c0,0,3.619-15.495,2.684-31.345
					c-0.266-4.479,1.615-13.748,1.615-13.748s-6.4-6.498-10.451-3.001c-4.049,3.497-11.043,47.118-11.596,54.297
					C366.24,164.954,367.019,168.356,379.24,168.93z"/>
				<path fill="#FFE0B6" d="M458.938,130.488c0,0,31.41,10.088,24.428,65.285l-18.53,1.399c0,0,7.422-50.012,2.714-54.321
					L458.938,130.488z"/>
				<path fill="#FFE0B6" d="M452.982,129.897c0,0-15.955,1.349-19.738,18.27c-4.32,19.327-2.114,32.232-1.041,46.976l14.881,2.623
					c0,0-7.421-50.013-2.715-54.322L452.982,129.897z"/>
				<path fill="#F4A134" d="M449.513,118.039c0,0-2.718,20.598-5.409,26.493c-0.777,1.71,9.602,11.163,17.021,8.808
					c7.927-2.518,11.818-17.146,10.156-24.657C467.25,120.683,449.513,118.039,449.513,118.039z"/>
				<path fill="#FBB040" d="M478.545,80.582c9.383,1.117,8.814,16.08,12.539,31.521c3.959,16.402-2.413,27.399-11.445,28.401
					c-15.517,1.724-19.705-8.014-27.105-17.434C437.208,103.566,434.375,75.316,478.545,80.582z"/>
				<path fill="#414042" d="M488.992,101.512c1.977-0.58,5.852-3.262,3.4-7.928c-2.442-4.664-0.831-3.289-1.345-8.769
					c-0.512-5.48-0.001-7.667-5.161-7.142c-5.162,0.526-9.047,0.433-14.825-3.088c-5.782-3.519-17.823-5.499-21.439,0.926
					c-3.611,6.425-6.099,7.334-10.612,8.603c-4.511,1.267-8.947,6.954-5.84,11.382c3.109,4.428,4.387,7.193,4.096,10.409
					c-0.287,3.22-1.213,4.596,2.55,7.095c3.762,2.498,4.771,2.778,5.221,5.356c0.449,2.575,6.536,3.46,6.536,3.46
					s-6.495-13.21-0.149-13.277c6.348-0.063,5.049,2.412,5.049,2.412l3.41-1.642l-4.198-7.932c0,0,5.159-2.364,8.95-6.951
					c3.792-4.583,5.367-7.704,9.953-4.74C479.174,92.647,484.652,102.788,488.992,101.512z"/>
				<g>
					<path fill="#DA1C5C" d="M481.223,133.049c2.942-1.078,2.125-4.831,2.15-4.935c0.104-0.449-0.176-0.896-0.625-1.001
						c-0.449-0.105-1.93,1.33-3.153,1.846c-0.79,0.329-3.442,0.297-3.682,0.692c-0.236,0.396-0.107,0.907,0.287,1.146
						C477.465,132,478.95,133.719,481.223,133.049z"/>
				</g>
			</g>
			<g>
				<polygon fill="#F7941E" points="399.341,130.299 400.703,144.305 396.709,147.757 400.703,146.81 405.161,151.268 
					410.487,152.846 409.897,150.247 417.604,150.153 405.253,146.995 403.124,131.075 				"/>
				<path fill="#F7941E" d="M414.692,124.781l5.672,12l-2.37,3.923l4.042-1.415l2.321,3.064l5.57,1.808l-0.557-1.714l9.287,1.714
					l-11.953-5.657l-7.732-13.723C418.974,124.781,414.775,122.588,414.692,124.781z"/>
				<path fill="#3B3444" d="M405.948,80.34c0,0-13.81-0.053-19.073,3.844c-5.264,3.896-10.739,11.793-10.002,19.584
					s17.268,16.741,21.479,17.899c0,0,1.79-0.423,0.21,2.736c-1.578,3.158-0.21,5.417-0.21,5.417s5.055,2.89,7.056,0
					c2-2.891,8.354-6.049,8.354-6.049s0.24,1.613,2.031,3.337c0,0,2.883,2.212,4.813,0.563c0,0,2.491-6.743,3.02-9.06
					c0.526-2.315,12.894-7.555,20.879-29.423L405.948,80.34z"/>
				<path fill="#3B3444" d="M370.086,105.767l7.626-7.986l12.542-16.204c0,0,8.413-21.611-3.272-39.3
					c-18.418-27.876-46.646-13.479-46.646-13.479s20.848-1.896,31.377,5.687c0,0-18.531-8.002-28.534,4.001
					c0,0,17.489-6.422,26.907,5.581c0,0-7.078,0.734-6.674,5.58c0,0-5.071,0.525-4.439,6.212c0,0-10.003,3.239-1.843,15.097
					c0,0-5.104,4.276-6.16,11.121c0,0,3.688-3.264,6.635-3.159c0,0-2.737,8.339-2.527,17.121c0,0,4.771-6.274,8.335-7.117
					c0,0-3.811,6.316-0.966,13.16c0,0,3.791-7.685,8.634-8.737L370.086,105.767z"/>
				<path fill="#494254" d="M388.552,100.219c0,0-6.581,6.584-5.727,11.762h6.944l-2.682,2.495h5.483l-0.609,3.168
					c0,0,18.767,3.047,28.271-16.694L400.86,89.982L388.552,100.219z"/>
				<path fill="#F7941E" d="M425.633,91.236c0,0,1.567,9.477-4.96,12.003l-3.896-2.422l-3.019,1.159l-3.272-3.265l-4.66,0.525
					l-1.744-2.738l-2.915,0.263l-1.027-3.209c0,0-5.581,4.055-3.579,12.661c0,0-3.454-0.236-5.148-5.923
					c0,0-3.379,6.962-3.273,10.063c0,0-3.58-4.797-2.735-10.063c0,0-4.635,4.844-5.16,11.688c0,0-4.686-7.792-1.921-16.795
					c2.763-9.002,9.671-16.697,25.538-14.798L425.633,91.236z"/>
				<path fill="#BE1E2D" d="M448.795,57.025c0,0-5.813-3.901-3.587-6.373c2.184-2.424,3.992-0.067,3.992-0.067
					s1.866,0.033,1.137,1.626c0,0,4.694,0.037,2.131,3.2c0,0,1.957,1.348,0.604,3.13L448.795,57.025z"/>
				<path fill="#494254" d="M452.097,57.951c0,0-4.43-3.115-7.484-2.512c-3.057,0.606-11.778-0.781-22.688,11.406
					c-10.908,12.189-18.377,13.071-18.377,13.071s1.963,3.476,5.438,3.317v5.686h6.476l4.236,5.055l5.082-3.316l4.896,3.316
					l4.534-3.14l4.469,3.14l3.96-4.95l2.517,1.16c0,0-0.655-1.453,1.745-8.07c1.861-5.138,5.424-13.651,5.388-15.888
					C452.251,63.989,453.333,59.254,452.097,57.951z"/>
				<path fill="#BE1E2D" d="M449.667,56.55c0,0-8.223-0.029-6.013,4.726c0,0-2.646-0.563-2.37,1.433
					c0.272,1.999,8.611,3.482,11.261,4.945c0,0,2.505-5.83,1.249-6.679C452.539,60.125,453.952,57.73,449.667,56.55z"/>
				<path fill="#F7941E" d="M452.333,58.305c0,0-1.35,0.974-1.072,2.668l5.204,0.003C456.465,60.976,455.415,57.836,452.333,58.305z
					"/>
			</g>
		</g>
		<g>
			<path fill="#FBB040" d="M554.39,98.066c0,0-1.318-7.173-1.318-7.271c0-0.098,3.96-4.812,3.96-4.812l5.521-2.021l-2.143-4.04
				l-7.34,2.469l-3.96,6.019l1.057,9.657L554.39,98.066L554.39,98.066z"/>
			<path fill="#FBB040" d="M561.778,98.31c0,0-0.709-3.854-0.709-3.906c0-0.052,2.127-2.585,2.127-2.585l2.967-1.085l-1.151-2.171
				l-3.94,1.326l-2.128,3.232l0.566,5.188L561.778,98.31L561.778,98.31z"/>
			<path fill="#FBB040" d="M540.251,94.232c0,0-1.992-10.826-1.992-10.976c0-0.148,5.979-7.262,5.979-7.262l8.335-3.05l-3.233-6.098
				l-11.078,3.726l-5.977,9.083l1.595,14.575L540.251,94.232L540.251,94.232z"/>
		</g>
	</g>
</g>
</svg>
