<?xml version="1.0" encoding="utf-8"?>
<!-- Generator: Adobe Illustrator 16.0.0, SVG Export Plug-In . SVG Version: 6.00 Build 0)  -->
<!DOCTYPE svg PUBLIC "-//W3C//DTD SVG 1.1//EN" "http://www.w3.org/Graphics/SVG/1.1/DTD/svg11.dtd">
<svg version="1.1" id="Layer_1" xmlns="http://www.w3.org/2000/svg" xmlns:xlink="http://www.w3.org/1999/xlink" x="0px" y="0px"
	 width="930.35px" height="441.49px" viewBox="0 0 930.35 441.49" enable-background="new 0 0 930.35 441.49" xml:space="preserve">
<g>
	<g id="Layer_2">
		<g opacity="0.2">
			<g>
				<path fill="#8ADAE2" d="M819.757,190.693c-22.472-74.209-100.636-102.825-189.421-85.265
					c-88.785,17.563-144.609-64.356-246.358-48.231C245.94,79.074,257.959,170.917,169.419,175.294S86.667,253.763,42.583,288.742
					c-66.988,53.151,14.105,86.296,42.131,86.296h21.773c-0.006-0.23-0.018-0.46-0.018-0.691c0-2.313,0.313-4.556,0.889-6.688
					c-3.375,0.493-6.146-0.069-6.146-0.069c1.154-3.941,3.227-6.348,5.543-7.797c-6.272-1.608-10.555-6.605-10.555-6.605
					c8.821-6.358,16.398-2.567,20.494,0.692c4.281-3.222,9.605-5.132,15.375-5.132c0.119,0,0.236,0.008,0.354,0.009
					c1.558-7.089,7.826-11.708,7.826-11.708c3.281,5.344,3.223,10.022,1.908,13.768c1.405,0.604,2.744,1.331,4.007,2.166
					c2.738-4.771,6.468-8.896,10.911-12.101c-4.856-6.373-1.957-15.155-1.957-15.155c3.903,1.661,6.184,4.052,7.47,6.593
					c0.792-8.229,8.171-13.78,8.171-13.78c1.659,2.64,2.511,5.127,2.803,7.431c2.307-1.536,4.283-2.212,4.283-2.212
					c1.035,4.128,0.5,7.396-0.757,9.958c0.813-0.052,1.633-0.087,2.461-0.087c9.098,0,17.452,3.164,24.039,8.441
					c2.263-4.947,5.255-9.49,8.854-13.479c-6.864-3.052-11.127-8.866-11.127-8.866c6.783-4.144,12.74-4.168,17.544-2.574
					c-4.254-7.998-2.456-17.363-2.456-17.363c9.96,2.791,13.856,9.305,15.239,15.27c1.424-0.588,2.876-1.121,4.36-1.584
					c2.179-5.843,7.184-9.53,7.184-9.53c1.639,2.667,2.44,5.167,2.674,7.471c1.962-0.22,3.951-0.344,5.971-0.344
					c1.73,0,3.44,0.089,5.13,0.252c0.626-5.071,2.23-9.835,4.627-14.102c-12.629-7.763-9.379-24.723-9.379-24.723
					c10.686,2.994,14.396,10.272,15.503,16.563c0.098-0.101,0.191-0.203,0.291-0.303c-1.353-8.798,5.495-16.256,5.495-16.256
					c2.813,3.054,4.188,6.104,4.674,8.975c5.153-2.55,10.954-3.988,17.092-3.988c6.532,0,12.683,1.628,18.075,4.492
					c1.682-6.071,8.354-8.769,8.354-8.769c1.81,5.858-0.431,9.774-3.014,12.194c5.775,4.412,10.271,10.412,12.826,17.354
					c3.478-0.717,7.078-1.096,10.769-1.096c1.708,0,3.396,0.089,5.062,0.246c-3.209-9.796,4.916-18.652,4.916-18.652
					c6.971,7.569,5.168,15.118,2.633,19.928c0.672,0.164,1.338,0.345,2,0.533c3.188-6.15,11.074-7.295,11.074-7.295
					c0.289,4.796-1.417,7.958-3.646,10.038c5.903,2.701,11.228,6.446,15.729,11.012c4.467-4.475,10.028-7.852,16.245-9.711
					c-3.479-5.194-2.027-11.962-2.027-11.962c6.604,2.008,8.746,6.624,9.301,10.529c1.252-0.122,2.521-0.188,3.805-0.188
					c3.218,0,6.341,0.4,9.33,1.143c4.146-9.216,15.84-10.512,15.84-10.512c0.157,5.854-1.822,9.833-4.491,12.538
					c3.093-0.264,5.531,0.313,5.531,0.313c-0.633,1.929-1.483,3.467-2.466,4.691c7.698,6.016,13.055,14.882,14.479,25.016
					c6.925,0.191,13.521,1.704,19.536,4.307c1.059-4.042,2.584-7.894,4.512-11.499c-8.517-6.718-5.85-19.117-5.85-19.117
					c6.934,2.109,10.104,6.416,11.465,10.677c0.063-0.078,0.124-0.161,0.188-0.239c-1.388-9.157,7.401-15.468,7.401-15.468
					c1.345,2.25,2.037,4.36,2.282,6.317c6.957-5.097,15.202-8.531,24.156-9.738c-4.698-6.82-2.763-15.825-2.763-15.825
					c5.255,1.599,8.346,4.461,10.13,7.606c1.025-6.474,5.459-11.309,5.459-11.309c6.863,7.452,5.223,14.889,2.75,19.707
					c0.852,0.136,1.696,0.291,2.533,0.467c1.493-12.717,12.299-22.585,25.417-22.585c14.036,0,25.431,11.299,25.593,25.298
					c0.315-0.008,0.63-0.023,0.946-0.023c2.916,0,5.753,0.334,8.484,0.945c-0.994-6.297,4.543-11.194,4.543-11.194
					c3.843,5.163,2.438,9.763,0.577,12.722c0.454,0.171,0.906,0.346,1.352,0.532c4.806-11.508,19.217-10.337,19.217-10.337
					c-1.525,9.172-7.439,12.679-12.516,13.976c5.962,4.047,10.724,9.722,13.667,16.38c3.427-0.996,7.046-1.541,10.795-1.541
					c13.633,0,25.605,7.071,32.477,17.739c2.279-2.158,4.749-4.117,7.385-5.847c-12.222-7.857-9.023-24.51-9.023-24.51
					c6.2,1.736,10.044,4.921,12.403,8.515c1.02-2.656,2.201-4.379,2.201-4.379c5.789,4.741,6.759,10.149,6.119,14.619
					c3.994-1.385,8.203-2.306,12.565-2.695c-2.806-3.163-3.426-7.332-3.426-7.332c3.244-0.204,5.633,0.638,7.396,1.928
					c-0.874-7.198,3.535-13.621,3.535-13.621c6.169,5.055,6.866,10.865,5.975,15.487c2.745-3.857,7.553-5.195,7.553-5.195
					c0.931,4.891-0.818,8.104-3.03,10.168c12.512,3.209,23.232,10.872,30.393,21.193c4.693-5.474,11.655-8.945,19.432-8.945
					c0.049,0,0.097,0.004,0.145,0.005c1.073-7.745,8.037-12.873,8.037-12.873c3.582,5.834,3.186,10.877,1.516,14.773
					c1.191,0.489,2.34,1.063,3.435,1.718c4.506-5.639,12.461-3.638,12.461-3.638c-1.354,4.628-4.41,6.723-7.383,7.625
					c4.568,4.623,7.391,10.977,7.391,17.989c0,0.99-0.063,1.967-0.172,2.928h43.749
					C1014.985,325.466,842.229,264.903,819.757,190.693z"/>
			</g>
		</g>
	</g>
	<g id="Layer_3">
		<g>
			<path fill="#FFE0B6" d="M614.898,68.758c0,0-11.393-1.281-20.085,11.135c-8.693,12.414-17.66,6.192-17.66,6.192l9.838,18.301
				c0,0,8.407-4.966,13.547-15.308s7.935-18.952,16.316-17.327L614.898,68.758z"/>
			<path fill="#F4A134" d="M417.541,91.128c0,0-3.144,1.022-0.711,3.812c0,0-1.847,0.645-1.235,1.988
				c0.612,1.347,1.249,2.333,1.249,2.333L417.541,91.128z"/>
			<path fill="#494254" d="M578.49,389.145c0,0-0.891,5.36,10.631,4.455c16.331-1.281,34.017-18.073,36.299-22.746l0.295-2.952
				c0,0-0.678-3.945-8.885-3.38C608.622,365.089,586.21,377.979,578.49,389.145z"/>
			<path fill="#494254" d="M497.516,373.097c0,0-2.983,0.353-2.983,0.79c0,0.438,0.55,2.281,0.55,2.281s45.706,1.522,54.483-3.041
				v-3.335L497.516,373.097z"/>
			<path fill="#FBB040" d="M527.238,348.074c0,0,2.554,4.221-10.475,9.477c-14.688,5.927-22.232,10.604-21.729,13.981
				c0.438,2.934,7.104,1.877,16.074,1.176c8.97-0.701,15.471-1.239,22.201-1.651c6.731-0.413,9.283,0.591,12.919-1.239
				c4.026-2.026,0.473-10.581-0.911-15.041c-1.385-4.46-0.68-11.285-0.68-11.285L527.238,348.074z"/>
			<path fill="#FBB040" d="M600.562,352.469c0,0,3.375,8.801-7.439,17.768c-10.815,8.965-12.91,12.616-13.636,17.84
				c-0.624,4.498,12.29,3.186,18.414,1.32c6.123-1.864,9.791-7.146,15.335-10.985c5.543-3.841,7.391-3.942,9.527-7.406
				c2.26-3.661-2.736-7.374-4.121-11.834c-1.384-4.46-0.679-11.285-0.679-11.285L600.562,352.469z"/>
			<path fill="#303860" d="M536.458,213.606c0,0-15.48,45.868-18.965,58.045c-3.484,12.176,8.295,51.774,8.729,66.503
				c0.187,6.3-1.763,12.253-1.763,12.253s11.354,5.002,19.005,0.573c5.348-3.096,0.73-13.188,4.152-20.135
				c3.42-6.944-3.232-40.762-2.143-47.272c1.092-6.513,25.976-48.757,26.569-62.983
				C572.637,206.364,536.458,213.606,536.458,213.606z"/>
			<path fill="#3B466B" d="M555.247,216.993c0,0-1.373,13.342,0,28.192c1.529,16.551,5.84,34.101,6.2,40.766
				c0.681,12.646,25.612,39.6,31.634,52.225c5.375,11.272,6.707,16.857,6.707,16.857s16.332,4.187,19.021-4.234
				c2.692-8.422-5.479-22.216-8.722-32.96c-3.163-10.479-17.207-23.241-18.303-29.754c-1.094-6.512,6.507-63.433,2.425-77.073
				S555.247,216.993,555.247,216.993z"/>
			<path fill="#EF4136" d="M591.989,151.118c-4.401-14.756-12.959-30.388-16.936-32.681c-25.521-14.733-56.947-6.137-55.485,6.713
				c0.495,4.364,15.813,50.483,20.531,65.339c2.224,6.304-5.65,22.348-5.65,22.348s8.21,21.226,32.054,13.765
				c27.089-8.474,31.083-9.447,31.083-9.447s2.015-3.635,2.864-11.402C601.299,197.985,595.793,163.864,591.989,151.118z"/>
			<path fill="#EF4136" d="M535.054,129.847c-1.108,7.578-2.706,11.02-15.356,13.373c-15.429,2.869-18.994,5.705-18.994,5.705
				s-8.749-11.761-6.534-24.353c10.631-2.022,23.173-8.469,31.555-9.133C532.941,117.804,536.162,122.268,535.054,129.847z"/>
			<path fill="#FBB040" d="M494.836,125.031c0,0,9.674,9.691,7.285,19.296c-0.793,3.187-23.537,6.071-29.308,5.601
				c-4.005-0.324-3.729,0.021-4.519-0.266c-0.791-0.286-32.559-21.896-34.694-25.391c-2.137-3.495,3.802-11.481,10.228-8.277
				c0,0,23.515,14.947,26.929,16.011C474.173,133.067,485.734,127.192,494.836,125.031z"/>
			<path fill="#FBB040" d="M433.602,124.272c-2.159-1.639-9.075-11.423-6.468-17.896c2.608-6.473,3.145-6.392,3.145-6.392
				s-2.631,0.159-3.34,0.326c-0.713,0.169-3.443-0.271-3.443-0.271s-2.242-0.606-2.85-2.067c-0.606-1.463,5.772-1.563,5.772-1.563
				l8.755,0.174l5.646,2.636c0,0,2.585,11.023,2.277,16.47C442.789,121.134,433.602,124.272,433.602,124.272z"/>
			<path fill="#FBB040" d="M428.903,99.074c0,0-4.953,3.792-5.191,5.4c-0.239,1.61,0.567,2.644,0.082,3.146
				c-0.487,0.501,0.253,1.983,0.516,2.982c0.266,0.998,5.211,5.573,5.211,5.573l2.471-16.644L428.903,99.074z"/>
			<path fill="#EF4136" d="M554.499,123.857c-0.559,4.063,9.264,20.479,26.223,19.977c8.76-0.26,11.466,3.057,11.466,3.057
				s1.868-1.854,2.906-3.844c2.113-4.052-1.96-12.344,4.712-19.343c0.118-0.124-0.192,0.112-0.592-0.865
				C599.214,122.839,557.468,102.295,554.499,123.857z"/>
			<path fill="#F4A134" d="M555.64,95.333c0,0,2.719,20.597,5.409,26.493c0.779,1.71-9.6,11.163-17.021,8.808
				c-7.928-2.518-11.816-17.146-10.154-24.657C537.904,97.977,555.64,95.333,555.64,95.333z"/>
			<path fill="#FBB040" d="M526.609,57.876c-9.384,1.117-8.814,16.08-12.539,31.521c-3.959,16.402,2.413,27.399,11.444,28.401
				c15.518,1.724,19.703-8.014,27.105-17.434C567.946,80.86,570.777,52.61,526.609,57.876z"/>
			<path fill="#414042" d="M516.162,78.806c-1.978-0.581-5.853-3.262-3.402-7.928c2.444-4.664,0.833-3.289,1.345-8.769
				c0.513-5.48,0.002-7.667,5.161-7.142c5.162,0.526,9.048,0.433,14.827-3.088c5.78-3.519,17.821-5.499,21.438,0.925
				c3.61,6.426,6.099,7.334,10.611,8.604c4.512,1.267,8.948,6.954,5.841,11.382c-3.109,4.428-4.388,7.193-4.097,10.409
				c0.288,3.22,1.213,4.596-2.548,7.095c-3.762,2.498-4.771,2.778-5.221,5.356c-0.449,2.574-6.536,3.46-6.536,3.46
				s6.495-13.21,0.149-13.277c-6.347-0.063-5.05,2.412-5.05,2.412l-3.409-1.642l4.198-7.932c0,0-5.16-2.365-8.951-6.951
				c-3.789-4.583-5.364-7.704-9.95-4.74C525.979,69.941,520.502,80.082,516.162,78.806z"/>
			<g>
				<path fill="#DA1C5C" d="M523.932,110.343c-2.941-1.078-2.125-4.831-2.149-4.935c-0.104-0.449,0.176-0.896,0.625-1.001
					s1.93,1.33,3.152,1.846c0.79,0.329,3.444,0.297,3.683,0.692c0.235,0.396,0.106,0.906-0.287,1.146
					C527.689,109.294,526.204,111.013,523.932,110.343z"/>
			</g>
			<path fill="#494254" d="M497.587,367.377c0,0,27.13,1.584,30.318,4.881l6.54-0.846c0,0-20.24-5.469-35.753-4.893L497.587,367.377
				z"/>
			<path fill="#494254" d="M583.549,387.015l-1.056-6.42l1.631-2.014l0.482,7.303c0,0,21.858-8.139,31.961-9.645l-2.066,3.057
				C614.501,379.296,592.604,383.645,583.549,387.015z"/>
			<g>
				<path fill="#3B3444" d="M415.991,110.109c-1.047-0.266-1.742-1.351-1.544-2.411l6.372-34.128
					c0.198-1.063,1.218-1.715,2.265-1.449l17.862,4.517c1.047,0.267,1.74,1.351,1.544,2.413l-6.372,34.127
					c-0.199,1.063-1.217,1.714-2.266,1.448L415.991,110.109z"/>
				<path fill="#7AC6D2" d="M417.504,107.085c-0.524-0.133-0.872-0.676-0.771-1.207l5.517-29.549c0.1-0.531,0.609-0.857,1.133-0.725
					l16.054,4.06c0.521,0.132,0.869,0.675,0.771,1.206l-5.517,29.549c-0.102,0.531-0.609,0.857-1.134,0.727L417.504,107.085z"/>
				<g>
					<path fill="#A0EEF2" d="M426.526,94.261l1.2-5.915c0,0,2.804-1.66,3.5-5.099c0,0,1.846,0.462,1.477,2.28
						c-0.37,1.817-1.56,2.865-0.587,3.226c0.97,0.356,2.997-0.04,2.68,1.522c-0.119,0.592-0.219,5.837-2.872,5.325
						c-0.622-0.12-1.438-0.096-2.351-0.354C428.309,94.89,426.526,94.261,426.526,94.261z"/>
					<path fill="#A0EEF2" d="M434.754,90.795c0,0,0.456,0.586-0.126,1.656c0,0,0.359,1.129-0.409,1.744c0,0-0.104,1.288-1.023,0.994
						c-0.36-0.114-0.365-0.633-0.365-0.633L434.754,90.795z"/>
					
						<rect x="423.256" y="89.227" transform="matrix(-0.9803 -0.1975 0.1975 -0.9803 822.1456 264.957)" fill="#A0EEF2" width="2.057" height="4.515"/>
					<path fill="#A0EEF2" d="M428.558,87.721c-0.479,0.331-1.389,0.54-1.945,0.892c-0.559,0.351-0.622,0.933-1.22,0.811
						l-0.896,4.425c0,0,1.047,0.104,2.03,0.414L428.558,87.721z"/>
				</g>
				<path fill="#414042" d="M427.276,75.036c-0.063,0.331-0.377,0.533-0.703,0.451c-0.328-0.083-0.542-0.419-0.48-0.75
					c0.063-0.334,0.377-0.536,0.705-0.453C427.124,74.367,427.34,74.703,427.276,75.036z"/>
				<path fill="#414042" d="M437.275,77.564c-0.062,0.332-0.378,0.532-0.703,0.451c-0.326-0.084-0.541-0.42-0.479-0.75
					c0.063-0.334,0.377-0.535,0.703-0.452C437.123,76.895,437.338,77.231,437.275,77.564z"/>
				<path fill="#414042" d="M433.888,76.708c-0.021,0.113-0.13,0.182-0.24,0.154l-4.002-1.013c-0.11-0.027-0.184-0.144-0.163-0.257
					l0,0c0.021-0.113,0.129-0.184,0.241-0.154l4,1.012C433.836,76.479,433.908,76.594,433.888,76.708L433.888,76.708z"/>
				<path fill="#3B3444" d="M441.029,88.67c-0.035,0.179-0.205,0.288-0.382,0.243l0,0c-0.176-0.044-0.293-0.228-0.26-0.404
					l0.937-5.007c0.032-0.181,0.203-0.289,0.379-0.245l0,0c0.178,0.045,0.295,0.228,0.26,0.406L441.029,88.67z"/>
				<path fill="#3B3444" d="M440.184,93.197c-0.032,0.18-0.202,0.288-0.381,0.243l0,0c-0.176-0.044-0.293-0.227-0.26-0.405
					l0.445-2.372c0.032-0.178,0.203-0.286,0.379-0.241l0,0c0.176,0.044,0.292,0.226,0.26,0.403L440.184,93.197z"/>
			</g>
			<path fill="#FBB040" d="M442.049,106.591c0,0-2.218-4.877-5.36-8.598c-1.411-1.67-9.007-3.115-9.354-2.092
				c-0.932,2.756,1.686,1.873,4.771,6.047c1.052,1.423,0.873,5.425,1.271,6.569c0.588,1.689,2.481,5.417,4.521,5.832
				L442.049,106.591z"/>
			<path fill="#FBB040" d="M625.913,146.225c-0.839,0.039-0.516-0.033-4.498,0.489c-5.74,0.759-28.6-0.979-29.551-4.124
				c-2.868-9.474,6.309-19.638,6.309-19.638c9.197,1.704,18.683,3.833,22.441,5.914c0,0-3.619-15.495-2.684-31.345
				c0.266-4.479-1.614-13.748-1.614-13.748s6.399-6.498,10.449-3.001c4.051,3.497,11.044,47.118,11.597,54.297
				C638.914,142.248,638.134,145.65,625.913,146.225z"/>
			<path fill="#FBB040" d="M616.755,84.381c0,0-4.893-6.693-5.104-8.35c-0.212-1.657,0.81-4.396,1.021-6.089
				c0.211-1.694-1.808-6.662,0.734-8.356c2.541-1.693,4.565-0.835,4.565-0.835l2.282-2.188c0,0,2.37-0.693,4.275,1.002
				c1.904,1.693,7.055,1.716,8.326,3.431c1.271,1.716,0.145,3.134-0.702,4.192c-0.849,1.06-5.05,11.724-4.536,17.191
				C628.132,89.849,616.755,84.381,616.755,84.381z"/>
			<path fill="#FFE0B6" d="M627.231,68.758l-1.995,3.306c0,0,51.167,56.236,40.391,73.001l23.15-14.617
				C688.777,130.446,672.226,76.15,627.231,68.758z"/>
		</g>
		<g>
			<path fill="#494254" d="M383.025,298.924c0,0,27.52,11.065,50.894-17.406l-4.261-0.6l3.232-8.002l-8.545,3.809l4.201-9.598
				l-6.463,2.881l1.044-7.534c0,0-22.947,22.417-33.383,25.413L383.025,298.924z"/>
			<path fill="#F7941E" d="M387.652,288.404c0,0,25.503-9.997,34.978-33.878c0,0,2.187,7.986-0.821,12.318l6.563-5.802
				c0,0-2.7,9.855-7.118,13.938S404.007,291.094,387.652,288.404z"/>
			<polygon fill="#F7941E" points="358.505,342.109 359.866,356.114 355.873,359.735 359.866,358.621 364.324,363.078 
				369.65,364.657 369.06,362.058 376.768,361.964 364.417,358.806 362.287,342.886 			"/>
			<path fill="#F7941E" d="M375.551,342.683l9.854,13.709l-2.693,4.458l4.365-1.949l2.321,3.063l5.571,1.808l-0.557-1.714
				l9.287,1.714l-11.953-5.656l-11.915-15.433C379.833,342.683,375.633,340.489,375.551,342.683z"/>
			<path fill="#3B3444" d="M365.111,292.15c0,0-13.809-0.054-19.073,3.843c-5.264,3.896-10.739,11.793-10.002,19.584
				s17.268,16.742,21.479,17.899c0,0,1.79-0.423,0.21,2.736c-1.58,3.158-0.21,5.417-0.21,5.417s5.054,2.89,7.055,0
				c2-2.89,8.354-6.049,8.354-6.049s-0.038,5.61,1.753,7.333c0,0,2.948-1.226,6.317,0.986c0,0,1.264-11.162,1.791-13.479
				c0.525-2.314,12.894-7.555,20.879-29.423L365.111,292.15z"/>
			<path fill="#3B3444" d="M329.25,317.577l7.626-7.986l12.542-16.204c0,0,8.413-21.61-3.274-39.3
				c-18.417-27.875-46.644-13.478-46.644-13.478s20.848-1.896,31.377,5.686c0,0-18.531-8.002-28.534,4.001
				c0,0,17.489-6.422,26.907,5.581c0,0-7.078,0.735-6.674,5.58c0,0-5.071,0.526-4.439,6.212c0,0-10.003,3.239-1.843,15.097
				c0,0-5.105,4.276-6.16,11.121c0,0,3.687-3.264,6.633-3.158c0,0-2.736,8.339-2.526,17.12c0,0,4.772-6.273,8.335-7.116
				c0,0-3.81,6.315-0.966,13.16c0,0,3.791-7.686,8.634-8.738L329.25,317.577z"/>
			<path fill="#494254" d="M378.058,301.645c0,0-27.315,11.56-51.198-16.486l4.249-0.676l-3.377-7.943l8.611,3.654l-4.374-9.521
				l6.515,2.764l-1.18-7.514c0,0,23.348,22,33.835,24.809L378.058,301.645z"/>
			<path fill="#F7941E" d="M373.242,291.208c0,0-25.679-9.535-35.583-33.242c0,0-2.041,8.025,1.043,12.304l-6.665-5.684
				c0,0,2.877,9.807,7.368,13.809C343.896,282.396,356.939,294.191,373.242,291.208z"/>
			<path fill="#BE1E2D" d="M390.25,265.625c0,0-6.927-1.014-5.984-4.204c0.925-3.129,3.572-1.781,3.572-1.781
				s1.699-0.774,1.726,0.978c0,0,4.253-1.991,3.305,1.969c0,0,2.346,0.373,1.892,2.564L390.25,265.625z"/>
			<path fill="#494254" d="M393.626,265.036c0,0-5.339-0.9-7.836,0.963c-2.495,1.864-1.287-1.445-6.271,14.134
				c-4.983,15.579-16.807,11.596-16.807,11.596s1.963,3.476,5.438,3.317v5.687h6.476l4.236,5.054l5.082-3.316l4.896,3.316
				l4.534-3.14l4.469,3.14l3.96-4.95l2.516,1.16c0,0,2.5-5.225,1.632-13.831c-0.867-8.606-7.588-13.738-8.585-15.742
				C396.368,270.42,395.303,265.681,393.626,265.036z"/>
			<path fill="#BE1E2D" d="M390.829,264.82c0,0-7.434,3.518-3.389,6.854c0,0-2.63,0.635-1.521,2.316
				c1.109,1.684,9.271-0.572,12.292-0.395c0,0-0.255-6.341-1.753-6.563C394.961,266.811,395.205,264.039,390.829,264.82z"/>
			<path fill="#F7941E" d="M393.993,265.255c0,0-0.8,1.459,0.18,2.868l4.698-2.239C398.872,265.884,396.569,263.504,393.993,265.255
				z"/>
			<path fill="#494254" d="M428.885,253.864c0,0,6.588-6.121,7.394-13.078C436.278,240.786,439.63,253.136,428.885,253.864z"/>
			<path fill="#494254" d="M450.993,264.943c0,0-6.43,6.285-13.417,6.756C437.576,271.699,449.749,275.639,450.993,264.943z"/>
			<path fill="#494254" d="M422.301,313.584c0,0-6.826-5.854-13.829-5.866C408.472,307.718,420.364,302.993,422.301,313.584z"/>
			<path fill="#494254" d="M356.513,245.591c0,0,0.946,8.943,6.029,13.761C362.542,259.352,350.651,254.624,356.513,245.591z"/>
			<path fill="#494254" d="M291.86,278.232c0,0,7.767,4.533,14.658,3.29C306.52,281.522,295.668,288.304,291.86,278.232z"/>
		</g>
		<polygon fill="#FBB040" points="411.046,71.383 408.239,76.495 396.599,71.245 400.369,64.379 		"/>
		<polygon fill="#FBB040" points="427.434,60.526 421.665,61.389 418.794,48.945 426.541,47.788 		"/>
		<polygon fill="#FBB040" points="445.997,66.993 441.817,62.924 449.979,53.104 455.593,58.568 		"/>
		<polygon fill="#FBB040" points="452.091,85.682 452.798,79.893 465.556,80.44 464.606,88.218 		"/>
	</g>
</g>
</svg>
